<svg width="1914" height="851" viewBox="0 0 1914 851" fill="none" xmlns="http://www.w3.org/2000/svg">
  <g opacity="0.02">
    <path opacity="0.02"
      d="M1882.49 134.356L1913.96 147.081V146.954L1882.56 134.28C1882.52 134.28 1882.49 134.28 1882.49 134.28C1882.49 134.28 1882.49 134.28 1882.45 134.305C1882.45 134.305 1882.45 134.331 1882.49 134.356Z"
      fill="black" />
  </g>
  <g opacity="0.02">
    <path opacity="0.02"
      d="M1881.81 330.557L1913.99 316.486V316.359L1881.74 330.481C1881.7 330.506 1881.7 330.532 1881.7 330.557C1881.7 330.557 1881.77 330.582 1881.81 330.557Z"
      fill="black" />
  </g>
  <g opacity="0.12">
    <path opacity="0.12"
      d="M1881.41 330.151C1881.52 330.1 1881.63 330.074 1881.73 330.074C1882.06 330.074 1882.38 330.252 1882.38 330.481L1890.34 469.256C1890.34 469.51 1890.09 469.713 1889.76 469.713C1889.44 469.713 1889.12 469.536 1889.12 469.307L1881.16 330.532C1881.13 330.379 1881.23 330.252 1881.41 330.151Z"
      fill="black" />
  </g>
  <g opacity="0.03">
    <path opacity="0.03"
      d="M1889.62 469.205C1889.69 469.18 1889.76 469.18 1889.83 469.231C1889.91 469.282 1889.91 469.358 1889.83 469.409L1729.91 579.713C1729.84 579.764 1729.73 579.764 1729.66 579.713C1729.59 579.662 1729.59 579.586 1729.66 579.535L1889.62 469.205Z"
      fill="black" />
  </g>
  <g opacity="0.28">
    <path opacity="0.28"
      d="M1888.9 468.444C1889.08 468.367 1889.26 468.291 1889.48 468.266C1890.26 468.164 1891.02 468.52 1891.16 469.078L1913.42 553.934C1913.56 554.492 1913.06 555.026 1912.27 555.127C1911.48 555.229 1910.73 554.873 1910.59 554.315L1888.33 469.459C1888.19 469.078 1888.44 468.672 1888.9 468.444Z"
      fill="black" />
  </g>
  <g opacity="0.18">
    <path opacity="0.18"
      d="M1729.23 579.027C1729.34 578.976 1729.45 578.925 1729.59 578.925L1911.81 553.502C1912.34 553.426 1912.84 553.68 1912.95 554.035C1913.06 554.416 1912.7 554.772 1912.2 554.848L1729.98 580.272C1729.45 580.348 1728.94 580.094 1728.84 579.738C1728.77 579.459 1728.91 579.179 1729.23 579.027Z"
      fill="black" />
  </g>
  <g opacity="0.04">
    <path opacity="0.04"
      d="M1490.75 0L1532.18 100.043C1532.21 100.12 1532.32 100.145 1532.43 100.145C1532.54 100.12 1532.57 100.043 1532.57 99.9671L1491.14 0H1490.75Z"
      fill="black" />
  </g>
  <g opacity="0.03">
    <path opacity="0.03"
      d="M1532.32 99.9163C1532.32 99.9163 1532.36 99.9164 1532.36 99.891L1651.31 77.5406C1651.39 77.5152 1651.46 77.566 1651.49 77.6168C1651.53 77.6676 1651.46 77.7184 1651.39 77.7438L1532.43 100.094C1532.36 100.12 1532.29 100.069 1532.25 100.018C1532.25 99.9925 1532.25 99.9417 1532.32 99.9163Z"
      fill="black" />
  </g>
  <g opacity="0.19">
    <path opacity="0.19"
      d="M1531.82 99.4338C1531.89 99.383 1532 99.3576 1532.07 99.3322C1532.61 99.2052 1533.15 99.4084 1533.33 99.7894L1580.28 201.153C1580.46 201.534 1580.17 201.915 1579.63 202.042C1579.09 202.169 1578.56 201.966 1578.38 201.585L1531.43 100.221C1531.32 99.9164 1531.46 99.6116 1531.82 99.4338Z"
      fill="black" />
  </g>
  <g opacity="0.28">
    <path opacity="0.28"
      d="M1578.48 200.493C1579.17 200.163 1580.1 200.265 1580.6 200.747L1625.36 245.626C1625.83 246.108 1625.69 246.769 1625.01 247.124C1624.33 247.454 1623.39 247.353 1622.89 246.87L1578.13 201.992C1577.62 201.509 1577.77 200.849 1578.48 200.493C1578.48 200.493 1578.45 200.493 1578.48 200.493Z"
      fill="black" />
  </g>
  <g opacity="0.09">
    <path opacity="0.09"
      d="M973.884 52.8028C974.099 52.7012 974.385 52.7012 974.6 52.8028C974.887 52.9297 974.959 53.2345 974.78 53.4377L939.799 90.2904C939.584 90.4936 939.19 90.5444 938.903 90.4174C938.616 90.2904 938.544 89.9856 938.724 89.7825L973.704 52.9297C973.74 52.8789 973.812 52.8282 973.884 52.8028Z"
      fill="black" />
  </g>
  <g opacity="0.03">
    <path opacity="0.03"
      d="M974.098 53.0567C974.134 53.0567 974.134 53.0313 974.17 53.0313L1045.28 40.1544C1045.39 40.129 1045.49 40.1798 1045.53 40.256C1045.56 40.3322 1045.49 40.4084 1045.39 40.4338L974.277 53.3107C974.17 53.3361 974.062 53.2853 974.026 53.2091C973.991 53.1329 974.062 53.0821 974.098 53.0567Z"
      fill="black" />
  </g>
  <g opacity="0.03">
    <path opacity="0.03"
      d="M879.836 37.2083C879.872 37.1829 879.908 37.1829 879.944 37.1829L1045.35 40.1544C1045.46 40.1544 1045.53 40.2052 1045.53 40.2814C1045.53 40.3576 1045.46 40.4084 1045.35 40.4084L879.944 37.4368C879.836 37.4368 879.765 37.386 879.765 37.3099C879.765 37.2845 879.801 37.2337 879.836 37.2083Z"
      fill="black" />
  </g>
  <g opacity="0.18">
    <path opacity="0.18"
      d="M938.579 89.3507C938.579 89.3507 938.615 89.3507 938.579 89.3507L1044.7 39.5957C1045.24 39.3417 1045.92 39.4433 1046.28 39.8243C1046.6 40.1798 1046.5 40.6878 1045.99 40.9164H1045.96L939.87 90.646C939.332 90.8999 938.651 90.7984 938.293 90.4174C937.97 90.0872 938.078 89.6046 938.579 89.3507Z"
      fill="black" />
  </g>
  <g opacity="0.14">
    <path opacity="0.14"
      d="M1044.81 39.7482C1045.14 39.5958 1045.6 39.5958 1045.92 39.7989L1135.63 95.0145C1135.99 95.2431 1136.06 95.6495 1135.71 95.9035C1135.38 96.1828 1134.81 96.2082 1134.45 95.9543L1044.74 40.7387C1044.38 40.5101 1044.31 40.1037 1044.67 39.8497C1044.71 39.8243 1044.78 39.7989 1044.81 39.7482Z"
      fill="black" />
  </g>
  <g opacity="0.01">
    <path opacity="0.01"
      d="M1134.99 95.4209C1135.02 95.3955 1135.1 95.3955 1135.13 95.4463C1135.17 95.4717 1135.17 95.5224 1135.1 95.5478L973.023 177.914C972.988 177.939 972.916 177.939 972.88 177.889C972.844 177.863 972.844 177.812 972.916 177.787L1134.99 95.4209Z"
      fill="black" />
  </g>
  <g opacity="0.19">
    <path opacity="0.19"
      d="M1134.34 94.7859C1134.85 94.5319 1135.56 94.6081 1135.99 94.9637L1218.86 168.771C1219.29 169.152 1219.18 169.685 1218.68 169.964C1218.21 170.269 1217.39 170.193 1216.99 169.837L1134.13 96.0304C1133.7 95.6494 1133.81 95.1161 1134.31 94.8367C1134.31 94.8113 1134.34 94.7859 1134.34 94.7859Z"
      fill="black" />
  </g>
  <g opacity="0.02">
    <path opacity="0.02"
      d="M1217.85 169.228C1217.89 169.203 1217.92 169.203 1218 169.228L1354.94 227.263C1355.02 227.288 1355.02 227.339 1354.98 227.364C1354.94 227.415 1354.87 227.415 1354.84 227.39L1217.89 169.355C1217.82 169.33 1217.82 169.279 1217.85 169.253C1217.82 169.228 1217.82 169.228 1217.85 169.228Z"
      fill="black" />
  </g>
  <g opacity="0.29">
    <path opacity="0.29"
      d="M1289.64 221.421C1289.96 221.243 1290.39 221.167 1290.86 221.193L1355.05 226.069C1356.02 226.145 1356.74 226.755 1356.63 227.44C1356.52 228.126 1355.66 228.634 1354.69 228.558L1290.5 223.682C1289.53 223.605 1288.82 222.996 1288.92 222.31C1288.96 221.954 1289.25 221.624 1289.64 221.421Z"
      fill="black" />
  </g>
  <g opacity="0.04">
    <path opacity="0.04"
      d="M959.834 405.939C959.906 405.913 959.977 405.888 960.049 405.913C960.228 405.939 960.336 406.04 960.336 406.167L949.44 473.726C949.404 473.853 949.261 473.93 949.082 473.93C948.902 473.904 948.795 473.803 948.795 473.676L959.691 406.117C959.691 406.04 959.762 405.964 959.834 405.939Z"
      fill="black" />
  </g>
  <g opacity="0.01">
    <path opacity="0.01"
      d="M829.373 383.055H829.408L960.013 406.091C960.049 406.091 960.049 406.116 960.049 406.142C960.049 406.167 960.013 406.167 959.977 406.167L829.373 383.131C829.337 383.106 829.337 383.08 829.373 383.055C829.337 383.055 829.337 383.055 829.373 383.055Z"
      fill="black" />
  </g>
  <g opacity="0.14">
    <path opacity="0.14"
      d="M856.898 385.036C857.149 384.909 857.436 384.858 857.758 384.934L960.263 405.431C960.801 405.532 961.124 405.939 960.98 406.32C960.837 406.701 960.263 406.929 959.726 406.828L857.221 386.331C856.683 386.23 856.36 385.823 856.504 385.442C856.575 385.265 856.719 385.112 856.898 385.036Z"
      fill="black" />
  </g>
  <g opacity="0.02">
    <path opacity="0.02"
      d="M959.905 406.015C959.941 405.99 960.013 405.99 960.085 406.015L1053.34 439.972C1053.41 439.998 1053.45 440.074 1053.41 440.125C1053.38 440.175 1053.27 440.201 1053.2 440.175L959.941 406.218C959.869 406.193 959.834 406.117 959.87 406.066C959.87 406.04 959.87 406.04 959.905 406.015Z"
      fill="black" />
  </g>
  <g opacity="0.19">
    <path opacity="0.19"
      d="M959.188 405.304C959.403 405.202 959.654 405.126 959.905 405.126L996.929 403.78C997.682 403.754 998.363 404.161 998.398 404.72C998.434 405.278 997.861 405.735 997.072 405.761L960.048 407.107C959.296 407.132 958.615 406.726 958.579 406.167C958.579 405.812 958.83 405.507 959.188 405.304Z"
      fill="black" />
  </g>
  <g opacity="0.02">
    <path opacity="0.02"
      d="M829.301 383.004C829.337 382.979 829.373 382.979 829.408 382.979L997.072 404.669C997.144 404.669 997.216 404.72 997.18 404.796C997.18 404.847 997.108 404.897 997.001 404.872L829.337 383.182C829.265 383.182 829.193 383.131 829.229 383.055C829.265 383.03 829.265 383.004 829.301 383.004Z"
      fill="black" />
  </g>
  <g opacity="0.24">
    <path opacity="0.24"
      d="M996.069 403.805C996.678 403.5 997.538 403.526 998.147 403.881L1054.35 439.185C1055.03 439.617 1055.1 440.379 1054.49 440.861C1053.88 441.344 1052.8 441.394 1052.12 440.963L995.925 405.659C995.244 405.228 995.172 404.466 995.782 403.983C995.889 403.907 995.961 403.856 996.069 403.805Z"
      fill="black" />
  </g>
  <g opacity="0.04">
    <path opacity="0.04"
      d="M996.893 404.618C997 404.567 997.144 404.567 997.251 404.618L1123.81 476.545C1123.91 476.622 1123.95 476.749 1123.84 476.825C1123.77 476.926 1123.55 476.926 1123.45 476.85L996.893 404.923C996.785 404.847 996.749 404.72 996.857 404.643C996.821 404.643 996.857 404.618 996.893 404.618Z"
      fill="black" />
  </g>
  <g opacity="0.03">
    <path opacity="0.03"
      d="M1053.13 439.972C1053.16 439.947 1053.24 439.947 1053.31 439.947L1200.9 476.952C1201.01 476.977 1201.04 477.054 1201.01 477.13C1200.97 477.206 1200.86 477.231 1200.76 477.206L1053.16 440.201C1053.06 440.175 1053.02 440.099 1053.06 440.023C1053.09 439.998 1053.09 439.972 1053.13 439.972Z"
      fill="black" />
  </g>
  <g opacity="0.25">
    <path opacity="0.25"
      d="M1052.27 439.083C1052.84 438.779 1053.67 438.779 1054.27 439.109L1124.63 475.733C1125.38 476.139 1125.56 476.901 1124.99 477.434C1124.42 477.993 1123.34 478.095 1122.59 477.688L1052.23 441.064C1051.48 440.658 1051.3 439.896 1051.87 439.363C1051.98 439.236 1052.09 439.159 1052.27 439.083Z"
      fill="black" />
  </g>
  <g opacity="0.02">
    <path opacity="0.02"
      d="M1123.52 476.622C1123.55 476.596 1123.59 476.596 1123.63 476.596L1272.22 502.02C1272.29 502.045 1272.33 502.096 1272.33 502.147C1272.29 502.198 1272.22 502.223 1272.15 502.223L1123.55 476.8C1123.48 476.774 1123.45 476.723 1123.45 476.673C1123.48 476.647 1123.48 476.622 1123.52 476.622Z"
      fill="black" />
  </g>
  <g opacity="0.22">
    <path opacity="0.22"
      d="M1122.77 475.834C1123.02 475.707 1123.3 475.657 1123.63 475.657L1200.86 476.038C1201.69 476.038 1202.33 476.52 1202.33 477.079C1202.33 477.663 1201.65 478.12 1200.86 478.12L1123.63 477.739C1122.8 477.739 1122.16 477.257 1122.16 476.698C1122.12 476.342 1122.37 476.038 1122.77 475.834Z"
      fill="black" />
  </g>
  <g opacity="0.01">
    <path opacity="0.01"
      d="M1200.79 477.053H1200.83L1272.22 502.096C1272.26 502.096 1272.26 502.121 1272.26 502.147C1272.26 502.172 1272.22 502.172 1272.19 502.172L1200.79 477.13C1200.79 477.104 1200.76 477.079 1200.79 477.053Z"
      fill="black" />
  </g>
  <g opacity="0.12">
    <path opacity="0.12"
      d="M791.095 629.392C791.274 629.29 791.489 629.265 791.74 629.29C792.241 629.341 792.564 629.671 792.492 630.001L782.134 681.128C782.063 681.483 781.597 681.712 781.131 681.661C780.629 681.61 780.306 681.28 780.378 680.95L790.736 629.823C790.736 629.62 790.88 629.468 791.095 629.392Z"
      fill="black" />
  </g>
  <g opacity="0.22">
    <path opacity="0.22"
      d="M790.7 628.985C791.166 628.757 791.811 628.706 792.349 628.909L810.126 635.69C810.879 635.97 811.166 636.656 810.771 637.189C810.377 637.722 809.409 637.925 808.657 637.646L790.88 630.865C790.127 630.585 789.84 629.9 790.234 629.366C790.342 629.214 790.521 629.087 790.7 628.985Z"
      fill="black" />
  </g>
  <g opacity="0.01">
    <path opacity="0.01"
      d="M791.56 629.849C791.596 629.823 791.668 629.849 791.704 629.874L843.673 690.017C843.709 690.042 843.673 690.093 843.637 690.119C843.602 690.144 843.53 690.119 843.494 690.093L791.525 629.95C791.489 629.9 791.525 629.874 791.56 629.849Z"
      fill="black" />
  </g>
  <g opacity="0.21">
    <path opacity="0.21"
      d="M808.513 635.817C808.585 635.792 808.656 635.741 808.764 635.716C809.516 635.487 810.377 635.716 810.699 636.224L844.891 689.585C845.214 690.119 844.891 690.728 844.175 690.957C843.422 691.185 842.562 690.957 842.239 690.449L808.047 637.087C807.724 636.656 807.939 636.122 808.513 635.817Z"
      fill="black" />
  </g>
  <g opacity="0.17">
    <path opacity="0.17"
      d="M842.92 689.382C842.956 689.357 842.992 689.357 843.028 689.331C843.566 689.103 844.282 689.255 844.569 689.636L906.646 768.421C906.968 768.802 906.753 769.285 906.216 769.513C905.678 769.742 904.961 769.589 904.674 769.208L842.598 690.423C842.311 690.068 842.454 689.611 842.92 689.382Z"
      fill="black" />
  </g>
  <g opacity="0.01">
    <path opacity="0.01"
      d="M905.606 768.751L1049.36 705.942C1049.4 705.916 1049.47 705.942 1049.51 705.967C1049.54 705.992 1049.51 706.043 1049.47 706.069L905.714 768.878C905.678 768.904 905.606 768.878 905.57 768.853C905.57 768.827 905.57 768.777 905.606 768.751Z"
      fill="black" />
  </g>
  <g opacity="0.14">
    <path opacity="0.14"
      d="M905.14 768.294C905.498 768.116 905.964 768.142 906.287 768.345L1010.4 838.495C1010.76 838.749 1010.76 839.129 1010.44 839.383C1010.08 839.637 1009.54 839.663 1009.19 839.409L905.068 769.259C904.71 769.005 904.71 768.624 905.033 768.37C905.068 768.345 905.104 768.319 905.14 768.294Z"
      fill="black" />
  </g>
  <g opacity="0.13">
    <path opacity="0.13"
      d="M578.557 595.155C578.952 594.952 579.525 594.977 579.883 595.206L591.675 602.825C592.105 603.104 592.141 603.587 591.747 603.892C591.353 604.197 590.672 604.222 590.241 603.943L578.45 596.323C578.02 596.044 577.984 595.561 578.378 595.256C578.45 595.206 578.486 595.18 578.557 595.155Z"
      fill="black" />
  </g>
  <g opacity="0.16">
    <path opacity="0.16"
      d="M578.45 595.053C578.737 594.926 579.095 594.85 579.454 594.926C580.099 595.053 580.529 595.511 580.35 595.993L567.805 632.211C567.626 632.668 566.981 632.973 566.3 632.846C565.655 632.719 565.225 632.262 565.404 631.779L577.948 595.561C578.056 595.333 578.235 595.18 578.45 595.053Z"
      fill="black" />
  </g>
  <g opacity="0.11">
    <path opacity="0.11"
      d="M566.156 631.525C566.3 631.449 566.515 631.398 566.694 631.423C567.124 631.449 567.447 631.728 567.411 632.058L555.476 715.263C555.44 715.567 555.046 715.796 554.58 715.771C554.15 715.745 553.827 715.466 553.863 715.136L565.798 631.931C565.87 631.754 565.977 631.601 566.156 631.525Z"
      fill="black" />
  </g>
  <g opacity="0.02">
    <path opacity="0.02"
      d="M392.184 713.282C392.22 713.282 392.22 713.256 392.256 713.256L554.687 715.085C554.759 715.085 554.795 715.136 554.795 715.161C554.795 715.212 554.759 715.237 554.687 715.237L392.256 713.409C392.184 713.409 392.148 713.358 392.148 713.333C392.148 713.333 392.184 713.307 392.184 713.282Z"
      fill="black" />
  </g>
  <g opacity="0.02">
    <path opacity="0.02"
      d="M554.615 715.11C554.651 715.11 554.687 715.085 554.687 715.085C554.759 715.085 554.831 715.136 554.831 715.187L547.017 843.168C547.017 843.219 546.946 843.269 546.874 843.269C546.802 843.269 546.73 843.219 546.73 843.168L554.544 715.187C554.58 715.161 554.58 715.136 554.615 715.11Z"
      fill="black" />
  </g>
  <g opacity="0.18">
    <path opacity="0.18"
      d="M1889.73 558.404C1890.12 558.582 1890.66 558.505 1890.95 558.226L1913.96 532.701V530.39L1889.48 557.566C1889.22 557.82 1889.33 558.226 1889.73 558.404Z"
      fill="black" />
  </g>
  <g opacity="0.01">
    <path opacity="0.01"
      d="M1736.9 473.676C1736.94 473.65 1736.97 473.676 1736.97 473.676L1890.23 557.82C1890.26 557.845 1890.26 557.871 1890.23 557.896C1890.19 557.921 1890.16 557.921 1890.12 557.896L1736.87 473.752C1736.87 473.752 1736.87 473.726 1736.9 473.676C1736.9 473.676 1736.9 473.701 1736.9 473.676Z"
      fill="black" />
  </g>
  <g opacity="0.1">
    <path opacity="0.1"
      d="M1889.98 557.642C1890.16 557.54 1890.44 557.566 1890.55 557.718C1890.69 557.845 1890.66 558.048 1890.44 558.15L1745.14 633.201C1744.97 633.303 1744.68 633.277 1744.57 633.125C1744.43 632.998 1744.46 632.795 1744.68 632.693L1889.98 557.642Z"
      fill="black" />
  </g>
  <g opacity="0.49">
    <path opacity="0.49"
      d="M1888.87 556.524C1889.76 556.067 1891.02 556.143 1891.84 556.702C1892.74 557.337 1892.74 558.378 1891.84 559.013L1795.9 626.852C1795 627.487 1793.53 627.487 1792.63 626.852C1791.74 626.217 1791.74 625.176 1792.63 624.541L1888.58 556.702C1888.69 556.651 1888.76 556.575 1888.87 556.524Z"
      fill="black" />
  </g>
  <g opacity="0.47">
    <path opacity="0.47"
      d="M1743.71 631.703C1743.93 631.601 1744.21 631.5 1744.5 631.474L1793.85 624.261C1795 624.083 1796.11 624.617 1796.33 625.429C1796.58 626.242 1795.82 627.03 1794.68 627.182L1745.32 634.395C1744.18 634.573 1743.07 634.04 1742.85 633.227C1742.67 632.643 1743.07 632.033 1743.71 631.703Z"
      fill="black" />
  </g>
  <g opacity="0.15">
    <path opacity="0.15"
      d="M1729.37 579.179C1729.45 579.129 1729.55 579.103 1729.63 579.103C1730.02 579.052 1730.38 579.23 1730.45 579.484L1745.61 632.82C1745.68 633.1 1745.43 633.354 1745.07 633.405C1744.68 633.455 1744.32 633.278 1744.25 632.998L1729.09 579.662C1729.02 579.484 1729.16 579.281 1729.37 579.179Z"
      fill="black" />
  </g>
  <g opacity="0.09">
    <path opacity="0.09"
      d="M1553.65 643.945C1553.68 643.945 1553.68 643.919 1553.72 643.919L1729.55 579.281C1729.81 579.18 1730.09 579.256 1730.24 579.433C1730.38 579.611 1730.27 579.84 1730.02 579.916L1554.18 644.554C1553.93 644.656 1553.65 644.58 1553.5 644.402C1553.4 644.25 1553.47 644.046 1553.65 643.945Z"
      fill="black" />
  </g>
  <g opacity="0.3">
    <path opacity="0.3"
      d="M1615.04 2.33657C1615.15 2.28578 1615.26 2.23498 1615.4 2.20958C1616.15 2.0318 1616.94 2.31117 1617.19 2.84454L1652.71 77.3373C1652.96 77.8707 1652.57 78.4294 1651.81 78.6072C1651.06 78.785 1650.27 78.5056 1650.02 77.9723L1614.5 3.47949C1614.29 3.04772 1614.54 2.56516 1615.04 2.33657Z"
      fill="black" />
  </g>
  <g opacity="0.06">
    <path opacity="0.06"
      d="M1651.21 77.4898C1651.28 77.4644 1651.35 77.439 1651.42 77.4644C1651.56 77.4898 1651.64 77.5914 1651.6 77.693L1576.19 248.292C1576.15 248.394 1576.01 248.445 1575.87 248.419C1575.72 248.394 1575.65 248.292 1575.69 248.191L1651.1 77.5914C1651.13 77.5406 1651.17 77.5152 1651.21 77.4898Z"
      fill="black" />
  </g>
  <g opacity="0.08">
    <path opacity="0.08"
      d="M1441.25 188.556C1441.36 188.505 1441.54 188.48 1441.68 188.556L1576.15 248.038C1576.33 248.115 1576.37 248.292 1576.26 248.419C1576.15 248.546 1575.9 248.572 1575.72 248.496L1441.25 189.013C1441.07 188.937 1441.03 188.759 1441.14 188.632C1441.18 188.607 1441.21 188.581 1441.25 188.556Z"
      fill="black" />
  </g>
  <g opacity="0.23">
    <path opacity="0.23"
      d="M1575.29 247.607C1575.58 247.454 1575.94 247.429 1576.3 247.505C1576.87 247.657 1577.19 248.089 1576.98 248.521L1518.06 365.073C1517.84 365.479 1517.2 365.708 1516.62 365.556C1516.05 365.403 1515.73 364.971 1515.94 364.54L1574.86 247.988C1574.97 247.835 1575.12 247.708 1575.29 247.607Z"
      fill="black" />
  </g>
  <g opacity="0.32">
    <path opacity="0.32"
      d="M1516.09 363.905C1516.48 363.702 1516.98 363.651 1517.48 363.752C1518.31 363.93 1518.77 364.565 1518.52 365.175L1490.5 427.781C1490.24 428.365 1489.35 428.695 1488.49 428.518C1487.66 428.34 1487.2 427.705 1487.45 427.095L1515.48 364.489C1515.62 364.235 1515.83 364.032 1516.09 363.905Z"
      fill="black" />
  </g>
  <g opacity="0.24">
    <path opacity="0.24"
      d="M1488.27 426.714C1488.7 426.511 1489.28 426.486 1489.71 426.714C1490.24 426.994 1490.39 427.552 1489.99 427.933L1488.81 429.102C1488.42 429.483 1487.63 429.584 1487.09 429.305C1486.55 429.025 1486.41 428.467 1486.8 428.086L1487.99 426.917C1488.06 426.841 1488.17 426.765 1488.27 426.714Z"
      fill="black" />
  </g>
  <g opacity="0.14">
    <path opacity="0.14"
      d="M1225.24 2.92084C1225.52 2.76845 1225.95 2.79385 1226.2 2.99703C1226.49 3.20022 1226.49 3.55579 1226.2 3.75898L1102.16 89.9857C1101.87 90.1889 1101.37 90.1889 1101.08 89.9857C1100.8 89.7825 1100.8 89.427 1101.08 89.2238L1225.13 2.99703C1225.16 2.97164 1225.2 2.94624 1225.24 2.92084Z"
      fill="black" />
  </g>
  <g opacity="0.06">
    <path opacity="0.06"
      d="M1101.41 89.4015C1101.55 89.3253 1101.69 89.3507 1101.84 89.4269L1234.12 180.022C1234.27 180.124 1234.27 180.251 1234.12 180.352C1233.98 180.454 1233.8 180.454 1233.66 180.352L1101.37 89.757C1101.23 89.6555 1101.23 89.5285 1101.37 89.4269C1101.41 89.4269 1101.41 89.4015 1101.41 89.4015Z"
      fill="black" />
  </g>
  <g opacity="0.05">
    <path opacity="0.05"
      d="M1233.77 180.022C1233.8 179.997 1233.87 179.997 1233.91 179.997C1234.05 179.997 1234.16 180.073 1234.16 180.174L1231.01 326.341C1231.01 326.442 1230.86 326.519 1230.76 326.519C1230.61 326.519 1230.5 326.442 1230.5 326.341L1233.66 180.174C1233.66 180.098 1233.69 180.047 1233.77 180.022Z"
      fill="black" />
  </g>
  <g opacity="0.13">
    <path opacity="0.13"
      d="M1230.36 325.934C1230.47 325.884 1230.58 325.858 1230.72 325.833C1231.11 325.807 1231.44 326.036 1231.47 326.315L1240.83 437.356C1240.86 437.636 1240.54 437.864 1240.15 437.89C1239.75 437.915 1239.43 437.686 1239.39 437.407L1230.04 326.366C1230.04 326.188 1230.15 326.036 1230.36 325.934Z"
      fill="black" />
  </g>
  <g opacity="0.17">
    <path opacity="0.17"
      d="M1239.54 436.848C1239.61 436.823 1239.68 436.772 1239.79 436.772C1240.29 436.645 1240.86 436.823 1241.04 437.204L1273.12 501.918C1273.3 502.274 1273.01 502.68 1272.51 502.807C1272.01 502.934 1271.43 502.757 1271.26 502.376L1239.18 437.661C1239.03 437.331 1239.21 437.001 1239.54 436.848Z"
      fill="black" />
  </g>
  <g opacity="0.13">
    <path opacity="0.13"
      d="M879.443 36.8019C879.837 36.6241 880.339 36.6749 880.625 36.9289L939.942 89.6301C940.229 89.9094 940.193 90.2904 939.799 90.4936C939.404 90.6968 938.867 90.6714 938.58 90.392L879.263 37.6908C878.977 37.4115 879.012 37.0305 879.407 36.8273C879.407 36.8273 879.407 36.8273 879.443 36.8019Z"
      fill="black" />
  </g>
  <g opacity="0.05">
    <path opacity="0.05"
      d="M939.046 89.8333C939.081 89.8079 939.117 89.8079 939.153 89.8079C939.332 89.7825 939.511 89.8587 939.547 89.9603L973.274 177.787C973.31 177.914 973.238 178.041 973.059 178.066C972.879 178.092 972.7 178.016 972.664 177.914L938.938 90.0619C938.866 89.9857 938.938 89.8841 939.046 89.8333Z"
      fill="black" />
  </g>
  <g opacity="0.14">
    <path opacity="0.14"
      d="M865.751 151.703C865.966 151.602 866.253 151.551 866.539 151.627L973.274 177.279C973.74 177.381 973.991 177.736 973.811 178.066C973.668 178.397 973.166 178.574 972.7 178.447L865.966 152.795C865.5 152.694 865.249 152.338 865.428 152.008C865.464 151.881 865.572 151.779 865.751 151.703Z"
      fill="black" />
  </g>
  <g opacity="0.04">
    <path opacity="0.04"
      d="M972.844 177.711C972.88 177.685 972.916 177.685 972.951 177.685C973.095 177.685 973.202 177.736 973.202 177.838L992.843 301.628C992.843 301.73 992.771 301.806 992.628 301.806C992.485 301.806 992.377 301.755 992.377 301.654L972.736 177.863C972.736 177.812 972.772 177.762 972.844 177.711Z"
      fill="black" />
  </g>
  <g opacity="0.02">
    <path opacity="0.02"
      d="M992.521 301.552C992.557 301.552 992.557 301.527 992.593 301.527C992.664 301.527 992.736 301.578 992.736 301.628L1000.05 438.753C1000.05 438.804 999.976 438.855 999.904 438.855C999.832 438.855 999.761 438.804 999.761 438.753L992.449 301.628C992.449 301.603 992.485 301.578 992.521 301.552Z"
      fill="black" />
  </g>
  <g opacity="0.02">
    <path opacity="0.02"
      d="M999.832 438.677C999.868 438.677 999.868 438.651 999.904 438.651C999.976 438.651 1000.05 438.702 1000.05 438.753L1012.16 576.944C1012.16 576.995 1012.09 577.046 1012.02 577.046C1011.95 577.046 1011.88 576.995 1011.88 576.944L999.761 438.753C999.797 438.753 999.797 438.702 999.832 438.677Z"
      fill="black" />
  </g>
  <g opacity="0.04">
    <path opacity="0.04"
      d="M1011.91 576.843C1011.95 576.817 1011.98 576.817 1011.98 576.817C1012.13 576.792 1012.23 576.868 1012.27 576.944L1049.65 705.992C1049.69 706.094 1049.58 706.17 1049.47 706.196C1049.33 706.221 1049.22 706.145 1049.18 706.069L1011.8 577.021C1011.77 576.944 1011.84 576.868 1011.91 576.843Z"
      fill="black" />
  </g>
  <g opacity="0.14">
    <path opacity="0.14"
      d="M1048.9 705.484C1049.33 705.281 1049.87 705.357 1050.15 705.637L1082.16 739.01C1082.45 739.289 1082.34 739.696 1081.94 739.899C1081.55 740.102 1080.98 740.026 1080.69 739.721L1048.68 706.348C1048.4 706.069 1048.47 705.688 1048.9 705.484Z"
      fill="black" />
  </g>
  <g opacity="0.08">
    <path opacity="0.08"
      d="M829.05 382.725C829.158 382.674 829.337 382.623 829.48 382.649L857.58 385.188C857.902 385.214 858.153 385.442 858.117 385.671C858.081 385.9 857.759 386.077 857.436 386.052L829.337 383.512C829.014 383.487 828.763 383.258 828.799 383.03C828.799 382.903 828.907 382.776 829.05 382.725Z"
      fill="black" />
  </g>
  <g opacity="0.13">
    <path opacity="0.13"
      d="M828.871 382.572C829.086 382.471 829.373 382.42 829.659 382.496C830.125 382.598 830.376 382.953 830.233 383.283L803.997 440.759C803.854 441.09 803.352 441.267 802.886 441.166C802.42 441.064 802.169 440.709 802.313 440.379L828.548 382.903C828.62 382.75 828.727 382.649 828.871 382.572Z"
      fill="black" />
  </g>
  <g opacity="0.1">
    <path opacity="0.1"
      d="M802.778 440.175C802.922 440.099 803.101 440.074 803.28 440.099C803.638 440.15 803.854 440.404 803.746 440.633L770.486 540.346C770.414 540.6 770.055 540.727 769.733 540.676C769.375 540.625 769.16 540.371 769.267 540.142L802.527 440.429C802.563 440.328 802.671 440.226 802.778 440.175Z"
      fill="black" />
  </g>
  <g opacity="0.04">
    <path opacity="0.04"
      d="M769.769 540.117C769.805 540.092 769.877 540.092 769.948 540.092C770.092 540.117 770.163 540.193 770.128 540.295L732.495 670.638C732.459 670.74 732.351 670.791 732.208 670.765C732.065 670.74 731.993 670.664 732.029 670.562L769.662 540.219C769.662 540.193 769.698 540.143 769.769 540.117Z"
      fill="black" />
  </g>
  <g opacity="0.05">
    <path opacity="0.05"
      d="M732.065 670.435C732.1 670.41 732.136 670.41 732.172 670.41C732.315 670.384 732.459 670.46 732.495 670.562L754.286 760.979C754.322 761.081 754.214 761.183 754.071 761.208C753.927 761.233 753.784 761.157 753.748 761.056L731.957 670.638C731.957 670.562 731.993 670.486 732.065 670.435Z"
      fill="black" />
  </g>
  <g opacity="0.12">
    <path opacity="0.12"
      d="M753.641 760.624C753.856 760.522 754.142 760.497 754.358 760.599C754.68 760.726 754.788 761.03 754.608 761.259L701.062 828.589C700.883 828.818 700.453 828.894 700.13 828.767C699.808 828.64 699.7 828.335 699.879 828.107L753.426 760.776C753.497 760.726 753.569 760.675 753.641 760.624Z"
      fill="black" />
  </g>
  <g opacity="0.02">
    <path opacity="0.02"
      d="M663.464 449.039C663.464 449.039 663.464 449.014 663.464 449.039C663.536 449.014 663.643 449.014 663.679 449.065L719.376 509.309C719.412 509.36 719.412 509.436 719.34 509.462C719.269 509.512 719.161 509.487 719.089 509.436L663.393 449.192C663.357 449.141 663.357 449.065 663.464 449.039Z"
      fill="black" />
  </g>
  <g opacity="0.14">
    <path opacity="0.14"
      d="M604.148 447.82C604.327 447.744 604.542 447.693 604.757 447.693L663.572 448.404C664.145 448.404 664.611 448.735 664.611 449.166C664.611 449.573 664.11 449.903 663.536 449.903L604.721 449.192C604.148 449.192 603.682 448.862 603.682 448.43C603.682 448.15 603.861 447.947 604.148 447.82Z"
      fill="black" />
  </g>
  <g opacity="0.14">
    <path opacity="0.14"
      d="M539.563 497.296C539.85 497.169 540.208 497.144 540.531 497.27C540.961 497.448 541.104 497.829 540.889 498.134L470.426 587.967C470.175 588.272 469.637 588.374 469.207 588.221C468.777 588.043 468.634 587.662 468.849 587.358L539.312 497.524C539.384 497.423 539.455 497.347 539.563 497.296Z"
      fill="black" />
  </g>
  <g opacity="0.05">
    <path opacity="0.05"
      d="M469.422 587.485C469.458 587.459 469.53 587.434 469.601 587.434C469.781 587.434 469.888 587.535 469.888 587.662L467.666 637.621C467.666 637.748 467.523 637.849 467.343 637.824C467.164 637.824 467.057 637.722 467.057 637.595L469.279 587.637C469.315 587.586 469.35 587.535 469.422 587.485Z"
      fill="black" />
  </g>
  <g opacity="0.03">
    <path opacity="0.03"
      d="M469.493 587.535C469.565 587.51 469.637 587.51 469.708 587.51C469.816 587.535 469.852 587.637 469.816 587.713L392.471 713.409C392.435 713.485 392.292 713.51 392.184 713.485C392.077 713.459 392.041 713.358 392.077 713.282L469.422 587.586C469.422 587.586 469.457 587.561 469.493 587.535Z"
      fill="black" />
  </g>
  <g opacity="0.26">
    <path opacity="0.26"
      d="M1616.26 850H1620.06L1588.74 828.996C1588.27 828.691 1587.59 828.666 1587.09 828.92C1587.01 828.945 1586.94 828.996 1586.87 829.047C1586.37 829.428 1586.41 830.012 1586.91 830.342L1616.26 850Z"
      fill="black" />
  </g>
  <g opacity="0.02">
    <path opacity="0.02"
      d="M1562.11 752.42C1562.18 752.395 1562.25 752.42 1562.25 752.471L1587.91 829.656C1587.91 829.682 1587.87 829.732 1587.84 829.732C1587.8 829.732 1587.73 829.707 1587.73 829.682L1562.07 752.496C1562.03 752.471 1562.07 752.42 1562.11 752.42Z"
      fill="black" />
  </g>
  <g opacity="0.09">
    <path opacity="0.09"
      d="M1736.54 473.904C1736.69 474.057 1736.97 474.107 1737.19 474.031L1913.96 400.275V399.488L1736.69 473.447C1736.69 473.447 1736.65 473.447 1736.65 473.472C1736.47 473.549 1736.44 473.752 1736.54 473.904Z"
      fill="black" />
  </g>
  <g opacity="0.25">
    <path opacity="0.25"
      d="M1532.68 540.93C1532.75 540.904 1532.79 540.879 1532.86 540.854L1736.44 472.914C1737.08 472.71 1737.8 472.888 1738.12 473.345C1738.41 473.803 1738.16 474.311 1737.51 474.539L1533.93 542.479C1533.29 542.682 1532.57 542.505 1532.25 542.047C1532 541.641 1532.18 541.184 1532.68 540.93Z"
      fill="black" />
  </g>
  <g opacity="0.38">
    <path opacity="0.38"
      d="M1735.83 472.583C1735.97 472.507 1736.15 472.456 1736.33 472.406L1840.12 447.541C1841.16 447.287 1842.27 447.693 1842.6 448.404C1842.95 449.141 1842.38 449.928 1841.38 450.157L1737.58 475.022C1736.54 475.276 1735.43 474.869 1735.11 474.158C1734.82 473.574 1735.15 472.939 1735.83 472.583Z"
      fill="black" />
  </g>
  <g opacity="0.11">
    <path opacity="0.11"
      d="M1500.96 481.041C1501 481.016 1501.03 481.016 1501.07 480.99C1501.32 480.914 1501.64 481.016 1501.75 481.193L1533.9 541.514C1534.01 541.717 1533.86 541.92 1533.61 541.996C1533.36 542.073 1533.04 541.971 1532.93 541.793L1500.78 481.473C1500.67 481.32 1500.74 481.143 1500.96 481.041Z"
      fill="black" />
  </g>
  <g opacity="0.28">
    <path opacity="0.28"
      d="M1400 594.342C1400.5 594.088 1401.18 594.139 1401.64 594.444C1402.15 594.799 1402.15 595.358 1401.64 595.714L1344.05 636.96C1343.55 637.316 1342.76 637.316 1342.26 636.96C1341.75 636.605 1341.75 636.046 1342.26 635.69L1399.85 594.444C1399.89 594.418 1399.96 594.393 1400 594.342Z"
      fill="black" />
  </g>
  <g opacity="0.15">
    <path opacity="0.15"
      d="M1342.72 635.919C1342.87 635.843 1343.04 635.817 1343.22 635.817C1343.62 635.843 1343.9 636.122 1343.87 636.402L1340.5 656.085C1340.46 656.365 1340.07 656.568 1339.68 656.542C1339.28 656.517 1338.99 656.237 1339.03 655.958L1342.4 636.275C1342.44 636.122 1342.54 635.995 1342.72 635.919Z"
      fill="black" />
  </g>
  <g opacity="0.39">
    <path opacity="0.39"
      d="M1614.68 2.00646C1615.19 1.75248 1615.87 1.67629 1616.51 1.82868C1617.55 2.10806 1618.05 2.9208 1617.69 3.63195L1592.86 50.9995C1592.46 51.736 1591.32 52.0916 1590.31 51.8376C1589.27 51.5583 1588.77 50.7455 1589.13 50.0344L1613.97 2.66682C1614.11 2.38744 1614.4 2.15885 1614.68 2.00646Z"
      fill="black" />
  </g>
  <g opacity="0.23">
    <path opacity="0.23"
      d="M1316.67 191.096C1316.85 191.02 1317.02 190.969 1317.24 190.969L1441.43 188.023C1442.04 187.997 1442.54 188.353 1442.54 188.759C1442.58 189.191 1442.07 189.546 1441.5 189.546L1317.31 192.493C1316.7 192.518 1316.2 192.162 1316.2 191.756C1316.2 191.477 1316.38 191.248 1316.67 191.096Z"
      fill="black" />
  </g>
  <g opacity="0.05">
    <path opacity="0.05"
      d="M1590.85 50.3899C1590.92 50.3391 1591.03 50.3391 1591.14 50.3899C1591.24 50.4407 1591.24 50.5423 1591.17 50.6185L1441.64 188.861C1441.57 188.937 1441.43 188.937 1441.32 188.886C1441.21 188.835 1441.21 188.734 1441.29 188.657L1590.81 50.4153C1590.81 50.4153 1590.85 50.3899 1590.85 50.3899Z"
      fill="black" />
  </g>
  <g opacity="0.02">
    <path opacity="0.02"
      d="M1441.43 188.734C1441.46 188.734 1441.5 188.734 1441.5 188.734C1441.54 188.759 1441.54 188.784 1441.5 188.81L1286.63 342.773C1286.6 342.799 1286.56 342.799 1286.52 342.773C1286.49 342.748 1286.49 342.723 1286.52 342.697L1441.43 188.734C1441.43 188.734 1441.43 188.759 1441.43 188.734Z"
      fill="black" />
  </g>
  <g opacity="0.06">
    <path opacity="0.06"
      d="M1286.45 342.57C1286.52 342.52 1286.63 342.52 1286.74 342.57C1286.85 342.621 1286.92 342.748 1286.81 342.824L1168.43 479.72C1168.36 479.822 1168.18 479.822 1168.07 479.771C1167.96 479.72 1167.89 479.593 1168 479.517L1286.38 342.621C1286.38 342.621 1286.42 342.596 1286.45 342.57Z"
      fill="black" />
  </g>
  <g opacity="0.07">
    <path opacity="0.07"
      d="M1168.03 479.441C1168.11 479.39 1168.25 479.39 1168.36 479.415C1168.54 479.466 1168.61 479.593 1168.54 479.72L1099.61 610.368C1099.54 610.495 1099.36 610.546 1099.18 610.495C1099 610.445 1098.93 610.318 1099 610.191L1167.93 479.542C1167.93 479.492 1168 479.466 1168.03 479.441Z"
      fill="black" />
  </g>
  <g opacity="0.05">
    <path opacity="0.05"
      d="M1099.15 610.114C1099.22 610.089 1099.25 610.064 1099.33 610.089C1099.47 610.089 1099.61 610.191 1099.58 610.318L1081.69 739.416C1081.69 739.518 1081.55 739.594 1081.37 739.594C1081.23 739.594 1081.08 739.493 1081.12 739.366L1099 610.267C1099.04 610.191 1099.08 610.14 1099.15 610.114Z"
      fill="black" />
  </g>
  <g opacity="0.21">
    <path opacity="0.21"
      d="M1027.79 13.4102C1028.29 13.1563 1028.97 13.2579 1029.29 13.6134L1102.52 89.1475C1102.84 89.5031 1102.73 89.9603 1102.23 90.2143C1101.73 90.4428 1101.05 90.3666 1100.72 90.0111L1027.54 14.477C1027.18 14.1214 1027.32 13.6642 1027.79 13.4102Z"
      fill="black" />
  </g>
  <g opacity="0.18">
    <path opacity="0.18"
      d="M753.462 760.446C753.748 760.294 754.143 760.268 754.465 760.37C754.967 760.548 755.218 760.954 754.967 761.335L709.521 831.739C709.27 832.094 708.696 832.247 708.159 832.094C707.657 831.917 707.406 831.51 707.657 831.129L753.103 760.725C753.211 760.624 753.318 760.522 753.462 760.446Z"
      fill="black" />
  </g>
  <g opacity="0.03">
    <path opacity="0.03"
      d="M879.836 37.2337C879.872 37.2083 879.908 37.2083 879.944 37.2083C880.051 37.2083 880.087 37.259 880.087 37.3352L866.396 152.236C866.396 152.313 866.324 152.338 866.217 152.338C866.109 152.338 866.073 152.287 866.073 152.211L879.764 37.3098C879.764 37.2844 879.8 37.2337 879.836 37.2337Z"
      fill="black" />
  </g>
  <g opacity="0.05">
    <path opacity="0.05"
      d="M866.073 152.059C866.145 152.033 866.217 152.008 866.288 152.033C866.432 152.059 866.504 152.16 866.468 152.262L812.706 275.875C812.67 275.976 812.527 276.027 812.384 276.002C812.24 275.976 812.169 275.875 812.204 275.773L865.966 152.16C866.002 152.11 866.038 152.084 866.073 152.059Z"
      fill="black" />
  </g>
  <g opacity="0.05">
    <path opacity="0.05"
      d="M812.276 275.646C812.384 275.595 812.491 275.595 812.599 275.621C812.742 275.671 812.814 275.798 812.706 275.925L718.767 398.624C718.695 398.726 718.516 398.776 718.337 398.7C718.194 398.649 718.122 398.522 718.23 398.395L812.169 275.697C812.204 275.697 812.24 275.671 812.276 275.646Z"
      fill="black" />
  </g>
  <g opacity="0.04">
    <path opacity="0.04"
      d="M718.373 398.395C718.444 398.345 718.552 398.345 718.659 398.395C718.767 398.446 718.803 398.548 718.731 398.624L597.696 517.792C597.625 517.868 597.481 517.894 597.374 517.843C597.266 517.792 597.23 517.69 597.302 517.614L718.337 398.446C718.337 398.421 718.337 398.421 718.373 398.395Z"
      fill="black" />
  </g>
  <g opacity="0.01">
    <path opacity="0.01"
      d="M597.446 517.665C597.481 517.665 597.517 517.665 597.517 517.665C597.553 517.691 597.553 517.716 597.517 517.741L467.415 637.646C467.379 637.671 467.343 637.671 467.307 637.646C467.271 637.621 467.271 637.595 467.307 637.57L597.446 517.665Z"
      fill="black" />
  </g>
  <g opacity="0.15">
    <path opacity="0.15"
      d="M454.046 636.376C454.226 636.3 454.405 636.249 454.62 636.274L467.451 637.011C467.917 637.036 468.275 637.341 468.239 637.671C468.204 638.002 467.773 638.255 467.308 638.23L454.477 637.494C454.011 637.468 453.652 637.163 453.688 636.833C453.688 636.655 453.831 636.478 454.046 636.376Z"
      fill="black" />
  </g>
  <g opacity="0.02">
    <path opacity="0.02"
      d="M724.358 249.537C724.394 249.511 724.43 249.511 724.466 249.537L791.489 264.319C791.56 264.344 791.596 264.369 791.56 264.42C791.524 264.471 791.489 264.496 791.417 264.471L724.394 249.689C724.323 249.664 724.287 249.638 724.323 249.588C724.323 249.562 724.323 249.537 724.358 249.537Z"
      fill="black" />
  </g>
  <g opacity="0.1">
    <path opacity="0.1"
      d="M642.462 267.57C642.497 267.544 642.569 267.519 642.641 267.519L724.215 249.181C724.537 249.105 724.896 249.232 725.003 249.486C725.111 249.715 724.932 249.969 724.573 250.045L642.999 268.382C642.677 268.458 642.318 268.331 642.211 268.077C642.139 267.874 642.246 267.671 642.462 267.57Z"
      fill="black" />
  </g>
  <g opacity="0.17">
    <path opacity="0.17"
      d="M535.119 305.616C535.154 305.591 535.19 305.565 535.262 305.565L642.355 267.265C642.892 267.062 643.538 267.214 643.824 267.595C644.111 267.976 643.896 268.458 643.358 268.636L536.266 306.937C535.728 307.14 535.083 306.987 534.796 306.606C534.509 306.251 534.653 305.845 535.119 305.616Z"
      fill="black" />
  </g>
  <g opacity="0.21">
    <path opacity="0.21"
      d="M407.381 353.263C407.417 353.237 407.452 353.212 407.524 353.212L535.154 305.464C535.763 305.235 536.516 305.413 536.838 305.845C537.161 306.276 536.946 306.81 536.301 307.038L408.671 354.787C408.062 355.015 407.309 354.838 406.986 354.406C406.7 353.999 406.879 353.517 407.381 353.263Z"
      fill="black" />
  </g>
  <g opacity="0.07">
    <path opacity="0.07"
      d="M309.535 398.218L407.883 353.745C408.062 353.669 408.313 353.695 408.456 353.822C408.564 353.949 408.492 354.126 408.349 354.228L310.001 398.7C309.822 398.776 309.571 398.751 309.428 398.624C309.284 398.472 309.356 398.319 309.535 398.218Z"
      fill="black" />
  </g>
  <g opacity="0.17">
    <path opacity="0.17"
      d="M284.303 408.275L284.339 408.25L407.56 353.415C408.026 353.212 408.599 353.314 408.886 353.644C409.173 353.974 409.03 354.33 408.564 354.584L285.378 409.418C284.912 409.621 284.339 409.52 284.052 409.19C283.765 408.885 283.909 408.478 284.303 408.275Z"
      fill="black" />
  </g>
  <g opacity="0.16">
    <path opacity="0.16"
      d="M1522.36 850H1526.94L1491.46 837.58C1491.1 837.453 1490.71 837.479 1490.42 837.631C1490.28 837.707 1490.17 837.784 1490.1 837.911C1489.85 838.266 1490.06 838.698 1490.57 838.876L1522.36 850Z"
      fill="black" />
  </g>
  <g opacity="0.23">
    <path opacity="0.23"
      d="M1277.64 782.873C1277.99 782.695 1278.42 782.644 1278.85 782.746L1491.46 837.301C1492.14 837.479 1492.5 838.012 1492.25 838.495C1492 838.977 1491.25 839.231 1490.57 839.053L1277.96 784.498C1277.28 784.32 1276.92 783.787 1277.17 783.304C1277.24 783.152 1277.42 783 1277.64 782.873Z"
      fill="black" />
  </g>
  <g opacity="0.27">
    <path opacity="0.27"
      d="M1154.45 781.501C1154.67 781.4 1154.95 781.323 1155.27 781.323L1278.42 782.695C1279.18 782.695 1279.79 783.152 1279.79 783.685C1279.79 784.219 1279.14 784.651 1278.39 784.651L1155.2 783.254C1154.45 783.254 1153.84 782.797 1153.84 782.263C1153.88 781.958 1154.09 781.679 1154.45 781.501Z"
      fill="black" />
  </g>
  <g opacity="0.27">
    <path opacity="0.27"
      d="M1154.52 781.577C1155.02 781.323 1155.7 781.374 1156.13 781.679C1156.6 782.035 1156.6 782.593 1156.1 782.924L1094.52 825.237C1094.02 825.592 1093.23 825.567 1092.77 825.211C1092.3 824.856 1092.3 824.297 1092.8 823.967L1154.38 781.654C1154.41 781.628 1154.45 781.603 1154.52 781.577Z"
      fill="black" />
  </g>
  <g opacity="0.22">
    <path opacity="0.22"
      d="M1087.43 850L1094.63 824.754C1094.74 824.373 1094.38 823.992 1093.84 823.916C1093.56 823.865 1093.31 823.916 1093.09 824.018C1092.88 824.119 1092.73 824.271 1092.7 824.449L1085.38 849.975H1087.43V850Z"
      fill="black" />
  </g>
  <g opacity="0.35">
    <path opacity="0.35"
      d="M1839.62 447.693C1839.8 447.617 1839.98 447.541 1840.2 447.49C1841.23 447.261 1842.35 447.693 1842.67 448.43L1856.4 480.863C1856.72 481.6 1856.11 482.387 1855.07 482.616C1854.03 482.844 1852.92 482.412 1852.6 481.676L1838.87 449.243C1838.58 448.658 1838.94 448.023 1839.62 447.693Z"
      fill="black" />
  </g>
  <g opacity="0.05">
    <path opacity="0.05"
      d="M1211.33 529.043C1211.37 529.043 1211.36 529.018 1211.4 529.018L1501.18 481.193C1501.32 481.168 1501.43 481.219 1501.46 481.32C1501.5 481.422 1501.43 481.498 1501.28 481.524L1211.51 529.348C1211.36 529.374 1211.26 529.323 1211.22 529.221C1211.22 529.145 1211.26 529.069 1211.33 529.043Z"
      fill="black" />
  </g>
  <g opacity="0.25">
    <path opacity="0.25"
      d="M1437.56 436.289C1438.1 436.01 1438.85 436.061 1439.35 436.391L1502.25 480.635C1502.79 481.016 1502.79 481.651 1502.25 482.032C1501.71 482.413 1500.82 482.413 1500.28 482.032L1437.38 437.788C1436.84 437.407 1436.84 436.772 1437.38 436.391C1437.41 436.366 1437.49 436.315 1437.56 436.289Z"
      fill="black" />
  </g>
  <g opacity="0.08">
    <path opacity="0.08"
      d="M994.958 602.317C994.958 602.317 994.994 602.292 995.029 602.292L1211.33 528.942C1211.51 528.866 1211.76 528.942 1211.83 529.069C1211.94 529.196 1211.87 529.348 1211.65 529.424L995.352 602.774C995.173 602.851 994.922 602.774 994.85 602.647C994.779 602.52 994.814 602.393 994.958 602.317Z"
      fill="black" />
  </g>
  <g opacity="0.08">
    <path opacity="0.08"
      d="M994.958 602.317C995.102 602.241 995.317 602.266 995.46 602.368C995.603 602.47 995.603 602.647 995.424 602.749L838.19 703.757C838.011 703.884 837.796 703.859 837.652 703.732C837.509 703.63 837.509 703.453 837.688 703.351L994.922 602.343C994.958 602.317 994.958 602.317 994.958 602.317Z"
      fill="black" />
  </g>
  <g opacity="0.04">
    <path opacity="0.04"
      d="M837.831 703.427C837.903 703.402 838.01 703.402 838.082 703.427C838.19 703.478 838.19 703.58 838.118 703.63L708.768 831.51C708.696 831.586 708.553 831.586 708.481 831.535C708.374 831.485 708.374 831.383 708.445 831.332L837.795 703.453C837.795 703.453 837.795 703.427 837.831 703.427Z"
      fill="black" />
  </g>
  <g opacity="0.1">
    <path opacity="0.1"
      d="M702.567 850L709.09 831.535C709.162 831.358 708.983 831.18 708.732 831.129C708.589 831.104 708.445 831.129 708.338 831.18C708.23 831.231 708.194 831.282 708.159 831.383L701.6 850.025H702.567V850Z"
      fill="black" />
  </g>
  <g opacity="0.05">
    <path opacity="0.05"
      d="M1378.42 85.0076C1378.46 84.9822 1378.49 84.9822 1378.53 84.9822L1590.96 50.3392C1591.1 50.3138 1591.28 50.3899 1591.28 50.4915C1591.32 50.5931 1591.21 50.7201 1591.06 50.7201L1378.63 85.3632C1378.49 85.3886 1378.35 85.3124 1378.31 85.2108C1378.28 85.1346 1378.31 85.033 1378.42 85.0076Z"
      fill="black" />
  </g>
  <g opacity="0.39">
    <path opacity="0.39"
      d="M1589.77 49.2978C1589.95 49.2216 1590.13 49.1455 1590.31 49.0947L1737.98 14.2484C1739.09 13.9944 1740.31 14.4008 1740.66 15.2135C1741.02 16.0009 1740.45 16.8644 1739.3 17.1184L1591.64 51.9646C1590.53 52.2186 1589.31 51.8123 1588.95 50.9995C1588.66 50.3646 1589.02 49.6788 1589.77 49.2978Z"
      fill="black" />
  </g>
  <g opacity="0.23">
    <path opacity="0.23"
      d="M1377.88 84.4743C1378.2 84.3219 1378.63 84.2711 1378.99 84.3727C1379.6 84.5505 1379.89 85.033 1379.64 85.4648L1318.35 192.035C1318.1 192.467 1317.42 192.67 1316.81 192.493C1316.2 192.315 1315.91 191.832 1316.16 191.401L1377.45 84.8298C1377.56 84.6775 1377.7 84.5759 1377.88 84.4743Z"
      fill="black" />
  </g>
  <g opacity="0.19">
    <path opacity="0.19"
      d="M298.353 707.897L454.01 636.3C454.476 636.097 455.049 636.173 455.336 636.503C455.623 636.833 455.515 637.24 455.049 637.443L299.392 709.015C298.926 709.218 298.353 709.142 298.066 708.812C297.815 708.532 297.923 708.126 298.353 707.897Z"
      fill="black" />
  </g>
  <g opacity="0.11">
    <path opacity="0.11"
      d="M1008.43 0H1006.93L1028.07 14.2992C1028.29 14.4262 1028.61 14.4515 1028.83 14.2738C1029.04 14.1214 1029.01 13.8928 1028.79 13.7404L1008.43 0Z"
      fill="black" />
  </g>
  <g opacity="0.05">
    <path opacity="0.05"
      d="M1028.29 13.9182C1028.36 13.8928 1028.47 13.8928 1028.54 13.9182C1028.65 13.969 1028.65 14.0706 1028.61 14.1214L884.316 165.977C884.245 166.053 884.101 166.053 884.03 166.028C883.922 165.977 883.922 165.875 883.958 165.825L1028.25 13.969C1028.25 13.9436 1028.29 13.9182 1028.29 13.9182Z"
      fill="black" />
  </g>
  <g opacity="0.08">
    <path opacity="0.08"
      d="M883.923 165.672C884.066 165.596 884.281 165.621 884.389 165.698C884.532 165.799 884.496 165.952 884.353 166.053L706.761 278.465C706.618 278.567 706.403 278.542 706.259 278.44C706.116 278.338 706.152 278.186 706.295 278.084L883.923 165.672C883.923 165.698 883.887 165.698 883.923 165.672Z"
      fill="black" />
  </g>
  <g opacity="0.07">
    <path opacity="0.07"
      d="M504.761 353.593C504.761 353.593 504.796 353.593 504.796 353.568L706.33 278.059C706.509 277.983 706.724 278.034 706.796 278.161C706.868 278.288 706.832 278.44 706.653 278.491L505.119 353.999C504.94 354.076 504.725 354.025 504.653 353.898C504.581 353.822 504.617 353.669 504.761 353.593Z"
      fill="black" />
  </g>
  <g opacity="0.04">
    <path opacity="0.04"
      d="M309.642 398.345L309.678 398.319L504.904 353.669C505.011 353.644 505.119 353.695 505.155 353.746C505.191 353.822 505.155 353.898 505.047 353.923L309.822 398.573C309.714 398.599 309.607 398.548 309.571 398.497C309.535 398.446 309.571 398.37 309.642 398.345Z"
      fill="black" />
  </g>
  <g opacity="0.21">
    <path opacity="0.21"
      d="M221.904 428.391C221.94 428.365 222.012 428.34 222.048 428.34L309.285 397.786C309.822 397.608 310.467 397.761 310.718 398.116C310.969 398.497 310.754 398.954 310.252 399.132L222.98 429.686C222.442 429.864 221.797 429.711 221.546 429.356C221.331 429 221.474 428.594 221.904 428.391Z"
      fill="black" />
  </g>
  <g opacity="0.17">
    <path opacity="0.17"
      d="M789.911 1.39688C790.234 1.2445 790.664 1.2445 790.986 1.39688C791.417 1.60007 791.488 2.03184 791.201 2.31122L708.445 82.3662C708.158 82.6456 707.549 82.7218 707.154 82.5186C706.76 82.3154 706.653 81.8836 706.939 81.6043L789.696 1.52388C789.768 1.47308 789.84 1.42228 789.911 1.39688Z"
      fill="black" />
  </g>
  <g opacity="0.21">
    <path opacity="0.21"
      d="M575.225 130.928C575.261 130.902 575.296 130.902 575.332 130.877L707.155 81.2741C707.693 81.0709 708.41 81.2233 708.696 81.6043C708.983 81.9853 708.804 82.4932 708.23 82.6964L576.407 132.299C575.87 132.502 575.153 132.35 574.866 131.969C574.615 131.613 574.759 131.156 575.225 130.928Z"
      fill="black" />
  </g>
  <g opacity="0.24">
    <path opacity="0.24"
      d="M396.414 147.411C396.557 147.335 396.736 147.284 396.951 147.258L575.726 130.724C576.371 130.673 576.981 131.004 577.088 131.461C577.16 131.918 576.694 132.35 576.049 132.426L397.274 148.96C396.629 149.011 396.02 148.681 395.912 148.224C395.876 147.893 396.091 147.589 396.414 147.411Z"
      fill="black" />
  </g>
  <g opacity="0.22">
    <path opacity="0.22"
      d="M185.669 131.131C185.884 131.029 186.135 130.978 186.386 131.004L397.202 147.385C397.776 147.436 398.206 147.792 398.134 148.224C398.063 148.63 397.561 148.935 396.952 148.884L186.135 132.502C185.562 132.451 185.131 132.096 185.203 131.664C185.275 131.435 185.454 131.258 185.669 131.131Z"
      fill="black" />
  </g>
  <g opacity="0.05">
    <path opacity="0.05"
      d="M1378.67 850H1379.82L1195.63 757.144C1195.52 757.094 1195.34 757.094 1195.24 757.144C1195.2 757.17 1195.17 757.17 1195.17 757.195C1195.06 757.297 1195.09 757.449 1195.24 757.525L1378.67 850Z"
      fill="black" />
  </g>
  <g opacity="0.07">
    <path opacity="0.07"
      d="M917.362 677.089C917.469 677.038 917.649 677.013 917.792 677.064L1195.6 757.043C1195.81 757.119 1195.92 757.297 1195.85 757.449C1195.74 757.602 1195.49 757.678 1195.27 757.627L917.469 677.648C917.254 677.572 917.147 677.394 917.218 677.242C917.254 677.165 917.29 677.115 917.362 677.089Z"
      fill="black" />
  </g>
  <g opacity="0.08">
    <path opacity="0.08"
      d="M687.406 659.488C687.478 659.438 687.586 659.412 687.729 659.438L917.685 677.039C917.935 677.064 918.115 677.216 918.079 677.394C918.043 677.572 917.828 677.699 917.577 677.674L687.621 660.073C687.371 660.047 687.191 659.895 687.227 659.717C687.227 659.615 687.299 659.539 687.406 659.488Z"
      fill="black" />
  </g>
  <g opacity="0.06">
    <path opacity="0.06"
      d="M486.231 678.385C486.267 678.359 486.303 678.359 486.375 678.359L687.657 659.539C687.837 659.514 687.98 659.615 688.016 659.717C688.052 659.844 687.908 659.946 687.765 659.971L486.482 678.791C486.303 678.816 486.16 678.715 486.124 678.613C486.088 678.512 486.124 678.435 486.231 678.385Z"
      fill="black" />
  </g>
  <g opacity="0.02">
    <path opacity="0.02"
      d="M298.854 708.431C298.854 708.431 298.89 708.431 298.854 708.431L486.374 678.512C486.41 678.512 486.446 678.512 486.446 678.562C486.446 678.588 486.446 678.613 486.374 678.613L298.89 708.507C298.854 708.507 298.818 708.507 298.818 708.456C298.818 708.456 298.818 708.431 298.854 708.431Z"
      fill="black" />
  </g>
  <g opacity="0.08">
    <path opacity="0.08"
      d="M298.676 708.228C298.819 708.151 298.998 708.151 299.142 708.228C299.321 708.304 299.357 708.482 299.249 708.634L162.659 849.416C162.516 849.543 162.265 849.568 162.086 849.492C161.907 849.416 161.871 849.238 161.978 849.086L298.568 708.304C298.604 708.278 298.64 708.253 298.676 708.228Z"
      fill="black" />
  </g>
  <g opacity="0.15">
    <path opacity="0.15"
      d="M1725.79 378.28C1726.18 378.077 1726.76 378.128 1727.08 378.382L1855.25 480.838C1855.61 481.117 1855.57 481.549 1855.18 481.803C1854.78 482.057 1854.17 482.032 1853.81 481.752L1725.65 379.296C1725.29 379.017 1725.32 378.585 1725.72 378.331C1725.72 378.305 1725.75 378.28 1725.79 378.28Z"
      fill="black" />
  </g>
  <g opacity="0.36">
    <path opacity="0.36"
      d="M1853.96 482.895L1913.96 492.47V489.067L1855 479.644C1854.32 479.543 1853.67 479.644 1853.13 479.898C1852.67 480.127 1852.34 480.482 1852.2 480.889C1851.91 481.803 1852.7 482.692 1853.96 482.895Z"
      fill="black" />
  </g>
  <g opacity="0.08">
    <path opacity="0.08"
      d="M1330.72 279.227C1330.75 279.227 1330.75 279.202 1330.79 279.202C1331.04 279.126 1331.33 279.202 1331.47 279.354L1438.81 436.924C1438.92 437.102 1438.85 437.305 1438.6 437.407C1438.35 437.483 1438.06 437.407 1437.92 437.255L1330.57 279.684C1330.43 279.507 1330.5 279.329 1330.72 279.227Z"
      fill="black" />
  </g>
  <g opacity="0.18">
    <path opacity="0.18"
      d="M1437.7 436.442C1437.81 436.391 1437.92 436.366 1438.02 436.34L1726.01 378.077C1726.62 377.95 1727.22 378.204 1727.37 378.61C1727.55 379.017 1727.19 379.474 1726.62 379.575L1438.63 437.839C1438.02 437.966 1437.41 437.712 1437.27 437.305C1437.13 436.975 1437.34 436.645 1437.7 436.442Z"
      fill="black" />
  </g>
  <g opacity="0.18">
    <path opacity="0.18"
      d="M-2.88992 466.335C-2.81824 466.285 -2.71072 466.259 -2.6032 466.234L222.299 428.391C222.765 428.314 223.231 428.518 223.338 428.848C223.446 429.178 223.159 429.508 222.693 429.584L-2.20895 467.428C-2.67488 467.504 -3.14081 467.301 -3.24833 466.97C-3.32002 466.742 -3.17665 466.488 -2.88992 466.335Z"
      fill="black" />
  </g>
  <g opacity="0.08">
    <path opacity="0.08"
      d="M222.298 428.797C222.405 428.746 222.585 428.721 222.692 428.772C222.871 428.848 222.943 429 222.836 429.127L130.402 544.79C130.294 544.917 130.079 544.968 129.9 544.892C129.721 544.816 129.649 544.663 129.757 544.536L222.19 428.899C222.226 428.848 222.262 428.797 222.298 428.797Z"
      fill="black" />
  </g>
  <g opacity="0.3">
    <path opacity="0.3"
      d="M1733.14 0L1736.83 15.8992C1737.01 16.6104 1737.94 17.093 1738.94 16.966C1739.95 16.839 1740.63 16.1786 1740.45 15.4675L1736.87 0H1733.14Z"
      fill="black" />
  </g>
  <g opacity="0.08">
    <path opacity="0.08"
      d="M1837.83 0L1738.55 15.3659C1738.48 15.3659 1738.44 15.3913 1738.37 15.4167C1738.23 15.4929 1738.16 15.6199 1738.19 15.7723C1738.26 15.95 1738.51 16.077 1738.77 16.0262L1842.27 0H1837.83Z"
      fill="black" />
  </g>
  <g opacity="0.08">
    <path opacity="0.08"
      d="M1363.4 0L1378.06 85.2108C1378.1 85.414 1378.35 85.541 1378.6 85.5156C1378.85 85.4902 1379.07 85.3124 1379.03 85.1346L1364.41 0H1363.4Z"
      fill="black" />
  </g>
  <g opacity="0.02">
    <path opacity="0.02"
      d="M1062.73 154.218C1062.77 154.218 1062.77 154.192 1062.73 154.218L1378.53 85.1093C1378.56 85.1093 1378.64 85.1093 1378.64 85.1601C1378.64 85.1854 1378.64 85.2363 1378.56 85.2363L1062.8 154.345C1062.77 154.345 1062.7 154.345 1062.7 154.294C1062.7 154.268 1062.73 154.218 1062.73 154.218Z"
      fill="black" />
  </g>
  <g opacity="0.06">
    <path opacity="0.06"
      d="M772.6 200.899C772.636 200.874 772.672 200.874 772.708 200.874L1062.7 154.04C1062.88 154.014 1063.06 154.091 1063.09 154.218C1063.13 154.345 1063.02 154.472 1062.84 154.497L772.851 201.331C772.672 201.357 772.493 201.28 772.457 201.153C772.457 201.052 772.493 200.95 772.6 200.899Z"
      fill="black" />
  </g>
  <g opacity="0.08">
    <path opacity="0.08"
      d="M490.138 208.874C490.21 208.849 490.282 208.824 490.389 208.824L772.78 200.772C773.031 200.772 773.246 200.899 773.246 201.077C773.246 201.255 773.067 201.407 772.816 201.407L490.425 209.459C490.174 209.459 489.959 209.332 489.959 209.154C489.959 209.027 490.031 208.925 490.138 208.874Z"
      fill="black" />
  </g>
  <g opacity="0.07">
    <path opacity="0.07"
      d="M212.621 170.472C212.693 170.422 212.801 170.422 212.944 170.422L490.496 208.849C490.711 208.874 490.855 209.027 490.819 209.179C490.783 209.332 490.568 209.433 490.353 209.408L212.801 171.006C212.586 170.98 212.442 170.828 212.478 170.676C212.478 170.599 212.55 170.523 212.621 170.472Z"
      fill="black" />
  </g>
  <g opacity="0.25">
    <path opacity="0.25"
      d="M29.9397 214.36C30.0472 214.31 30.1547 214.259 30.2622 214.233L212.406 169.812C213.123 169.634 213.875 169.914 214.126 170.396C214.377 170.904 213.983 171.438 213.302 171.615L31.1583 216.062C30.4414 216.24 29.6888 215.961 29.4379 215.478C29.2587 215.046 29.4737 214.614 29.9397 214.36Z"
      fill="black" />
  </g>
  <g opacity="0.06">
    <path opacity="0.06"
      d="M27.6105 798.264C27.6821 798.213 27.8255 798.213 27.8972 798.264L162.444 849.086C162.587 849.136 162.623 849.263 162.552 849.365C162.48 849.467 162.301 849.492 162.157 849.441L27.6463 798.594C27.5029 798.543 27.4671 798.416 27.5388 798.315C27.5388 798.289 27.5746 798.264 27.6105 798.264Z"
      fill="black" />
  </g>
  <g opacity="0.2">
    <path opacity="0.2"
      d="M332.402 850L372.616 830.266C373.333 829.91 373.548 829.173 373.01 828.665C372.508 828.132 371.469 828.005 370.752 828.361L326.632 850H332.402Z"
      fill="black" />
  </g>
  <g opacity="0.27">
    <path opacity="0.27"
      d="M377.238 708.024C377.561 707.872 377.955 707.77 378.385 707.796C379.389 707.821 380.213 708.431 380.142 709.142L373.547 829.351C373.511 830.062 372.651 830.647 371.647 830.596C370.644 830.57 369.819 829.961 369.891 829.25L376.486 709.04C376.486 708.634 376.773 708.253 377.238 708.024Z"
      fill="black" />
  </g>
  <g opacity="0.19">
    <path opacity="0.19"
      d="M271.615 618.699C272.081 618.471 272.762 618.521 273.121 618.851L379.174 708.609C379.568 708.939 379.496 709.447 379.031 709.751C378.565 710.056 377.848 709.98 377.418 709.65L271.364 619.867C270.97 619.537 271.042 619.029 271.508 618.724C271.544 618.724 271.579 618.699 271.615 618.699Z"
      fill="black" />
  </g>
  <g opacity="0.07">
    <path opacity="0.07"
      d="M129.865 544.435C130.008 544.359 130.188 544.359 130.295 544.435L272.476 619.131C272.655 619.207 272.691 619.385 272.548 619.512C272.44 619.639 272.189 619.664 272.01 619.563L129.829 544.867C129.65 544.79 129.614 544.613 129.757 544.486C129.793 544.46 129.829 544.435 129.865 544.435Z"
      fill="black" />
  </g>
  <g opacity="0.1">
    <path opacity="0.1"
      d="M1328.92 850H1331L1172.87 705.51C1172.59 705.256 1172.12 705.205 1171.73 705.383C1171.73 705.383 1171.69 705.383 1171.69 705.408C1171.33 705.611 1171.26 705.967 1171.55 706.221L1328.92 850Z"
      fill="black" />
  </g>
  <g opacity="0.07">
    <path opacity="0.07"
      d="M862.238 542.098C862.418 542.022 862.633 542.022 862.812 542.098L1172.55 705.586C1172.76 705.713 1172.8 705.916 1172.66 706.069C1172.48 706.221 1172.19 706.246 1171.98 706.145L862.238 542.657C862.023 542.53 861.988 542.327 862.131 542.174C862.131 542.149 862.167 542.124 862.238 542.098Z"
      fill="black" />
  </g>
  <g opacity="0.04">
    <path opacity="0.04"
      d="M562.25 427.73C562.321 427.679 562.465 427.679 562.537 427.73L862.633 542.225C862.776 542.276 862.812 542.403 862.74 542.505C862.669 542.606 862.489 542.631 862.346 542.581L562.25 428.086C562.106 428.035 562.071 427.908 562.142 427.806C562.214 427.781 562.214 427.756 562.25 427.73Z"
      fill="black" />
  </g>
  <g opacity="0.04">
    <path opacity="0.04"
      d="M285.988 327.763C286.06 327.738 286.167 327.712 286.239 327.738L562.537 427.73C562.68 427.781 562.716 427.883 562.644 427.984C562.573 428.086 562.429 428.111 562.286 428.061L285.988 328.068C285.845 328.017 285.809 327.916 285.881 327.814C285.916 327.789 285.952 327.763 285.988 327.763Z"
      fill="black" />
  </g>
  <g opacity="0.07">
    <path opacity="0.07"
      d="M30.4774 214.919C30.6207 214.843 30.7641 214.843 30.9075 214.919L286.346 327.687C286.525 327.763 286.597 327.941 286.489 328.068C286.382 328.195 286.131 328.246 285.952 328.17L30.5132 215.376C30.334 215.3 30.2623 215.122 30.3699 214.995C30.4057 214.97 30.4415 214.945 30.4774 214.919Z"
      fill="black" />
  </g>
  <g opacity="0.19">
    <path opacity="0.19"
      d="M671.851 125.34C672.21 125.162 672.64 125.111 673.07 125.213L978.399 204.049C979.08 204.227 979.439 204.76 979.188 205.242C978.937 205.725 978.184 205.979 977.503 205.801L672.138 126.991C671.457 126.813 671.099 126.28 671.35 125.797C671.457 125.594 671.636 125.441 671.851 125.34Z"
      fill="black" />
  </g>
  <g opacity="0.07">
    <path opacity="0.07"
      d="M977.647 204.633C977.754 204.582 977.934 204.557 978.077 204.582L1331.11 279.177C1331.36 279.227 1331.54 279.431 1331.43 279.608C1331.36 279.786 1331.07 279.913 1330.82 279.837L977.79 205.243C977.539 205.192 977.396 204.989 977.468 204.811C977.504 204.76 977.575 204.684 977.647 204.633Z"
      fill="black" />
  </g>
  <g opacity="0.27">
    <path opacity="0.27"
      d="M401.073 17.5501C401.682 17.2454 402.47 17.1946 403.151 17.4739L673.571 124.883C674.503 125.264 674.862 126.102 674.324 126.788C673.786 127.448 672.604 127.702 671.636 127.321L401.216 19.9122C400.284 19.5312 399.926 18.6931 400.463 18.0073C400.607 17.8295 400.822 17.6771 401.073 17.5501Z"
      fill="black" />
  </g>
  <path opacity="0.51"
    d="M1885.5 133.239C1886.32 134.407 1885.64 135.804 1884.03 136.388C1882.38 136.972 1880.41 136.49 1879.58 135.347C1878.76 134.178 1879.44 132.782 1881.05 132.197C1882.67 131.613 1884.67 132.096 1885.5 133.239Z"
    fill="black" />
  <path opacity="0.48"
    d="M1884.64 329.49C1885.43 330.608 1884.78 331.979 1883.2 332.538C1881.63 333.097 1879.69 332.64 1878.9 331.522C1878.11 330.405 1878.76 329.033 1880.34 328.474C1881.91 327.916 1883.85 328.373 1884.64 329.49Z"
    fill="black" />
  <path opacity="0.46"
    d="M1892.49 468.291C1893.28 469.383 1892.63 470.704 1891.09 471.263C1889.55 471.821 1887.68 471.364 1886.9 470.272C1886.11 469.18 1886.75 467.859 1888.29 467.301C1889.87 466.767 1891.73 467.199 1892.49 468.291Z"
    fill="black" />
  <path opacity="0.44"
    d="M1535.12 99.0274C1535.87 100.094 1535.26 101.415 1533.75 101.948C1532.25 102.482 1530.39 102.05 1529.63 100.983C1528.88 99.9163 1529.49 98.5956 1531 98.0622C1532.54 97.5035 1534.36 97.9606 1535.12 99.0274Z"
    fill="black" />
  <path opacity="0.37"
    d="M1626.62 245.372C1627.3 246.337 1626.76 247.53 1625.36 248.038C1624 248.521 1622.32 248.14 1621.6 247.149C1620.92 246.184 1621.46 244.991 1622.86 244.483C1624.25 244 1625.9 244.381 1626.62 245.372Z"
    fill="black" />
  <path opacity="0.26"
    d="M976.356 52.4218C976.93 53.2599 976.464 54.2504 975.317 54.6822C974.134 55.0886 972.737 54.7584 972.127 53.9456C971.554 53.1075 972.02 52.117 973.167 51.6852C974.349 51.2534 975.783 51.5836 976.356 52.4218Z"
    fill="black" />
  <path opacity="0.31"
    d="M1047.68 39.4433C1048.33 40.3577 1047.79 41.4498 1046.53 41.907C1045.24 42.3641 1043.7 41.9832 1043.06 41.0942C1042.41 40.1799 1042.95 39.0878 1044.2 38.6306C1045.46 38.1734 1047.03 38.5544 1047.68 39.4433Z"
    fill="black" />
  <path opacity="0.34"
    d="M1137.46 94.6336C1138.14 95.5733 1137.6 96.7162 1136.24 97.1988C1134.88 97.6813 1133.3 97.3004 1132.62 96.3352C1131.94 95.3955 1132.48 94.2526 1133.84 93.77C1135.17 93.3129 1136.78 93.6938 1137.46 94.6336Z"
    fill="black" />
  <path opacity="0.34"
    d="M1220.33 168.44C1221.01 169.38 1220.47 170.523 1219.11 171.006C1217.78 171.488 1216.17 171.107 1215.49 170.142C1214.81 169.202 1215.34 168.06 1216.71 167.577C1218.03 167.094 1219.64 167.475 1220.33 168.44Z"
    fill="black" />
  <path opacity="0.31"
    d="M1357.17 226.501C1357.81 227.415 1357.27 228.507 1356.02 228.964C1354.73 229.422 1353.19 229.041 1352.54 228.152C1351.9 227.237 1352.44 226.145 1353.69 225.688C1354.98 225.205 1356.52 225.586 1357.17 226.501Z"
    fill="black" />
  <path opacity="0.21"
    d="M951.017 472.99C951.554 473.726 951.124 474.641 950.085 475.022C949.045 475.403 947.755 475.098 947.218 474.361C946.68 473.625 947.11 472.71 948.15 472.329C949.189 471.948 950.479 472.253 951.017 472.99Z"
    fill="black" />
  <path opacity="0.24"
    d="M962.02 405.405C962.594 406.193 962.128 407.158 961.017 407.564C959.905 407.97 958.543 407.64 957.97 406.853C957.396 406.066 957.862 405.1 958.974 404.694C960.085 404.288 961.482 404.593 962.02 405.405Z"
    fill="black" />
  <path opacity="0.27"
    d="M999.187 404.008C999.797 404.847 999.295 405.888 998.112 406.294C996.929 406.726 995.46 406.37 994.886 405.532C994.277 404.694 994.779 403.653 995.962 403.246C997.144 402.815 998.614 403.17 999.187 404.008Z"
    fill="black" />
  <path opacity="0.28"
    d="M1055.46 439.286C1056.07 440.15 1055.56 441.191 1054.35 441.623C1053.13 442.055 1051.66 441.699 1051.05 440.836C1050.44 439.972 1050.94 438.931 1052.16 438.499C1053.34 438.093 1054.85 438.448 1055.46 439.286Z"
    fill="black" />
  <path opacity="0.28"
    d="M1125.81 475.911C1126.42 476.774 1125.92 477.815 1124.7 478.247C1123.48 478.679 1122.01 478.323 1121.4 477.46C1120.8 476.596 1121.3 475.555 1122.52 475.123C1123.7 474.691 1125.2 475.047 1125.81 475.911Z"
    fill="black" />
  <path opacity="0.27"
    d="M1202.98 476.317C1203.59 477.155 1203.09 478.196 1201.9 478.603C1200.72 479.035 1199.25 478.679 1198.68 477.841C1198.07 477.003 1198.57 475.961 1199.75 475.555C1200.94 475.123 1202.37 475.479 1202.98 476.317Z"
    fill="black" />
  <path opacity="0.23"
    d="M783.245 680.315C783.783 681.102 783.353 682.042 782.241 682.423C781.13 682.804 779.804 682.499 779.267 681.712C778.729 680.924 779.159 679.985 780.27 679.604C781.345 679.223 782.707 679.527 783.245 680.315Z"
    fill="black" />
  <path opacity="0.25"
    d="M793.674 629.163C794.248 629.976 793.782 630.966 792.635 631.373C791.488 631.779 790.09 631.449 789.517 630.636C788.943 629.823 789.409 628.833 790.556 628.426C791.703 628.02 793.101 628.35 793.674 629.163Z"
    fill="black" />
  <path opacity="0.27"
    d="M811.524 635.919C812.133 636.757 811.632 637.798 810.449 638.205C809.266 638.637 807.797 638.281 807.223 637.443C806.614 636.605 807.116 635.563 808.298 635.157C809.481 634.725 810.915 635.055 811.524 635.919Z"
    fill="black" />
  <path opacity="0.3"
    d="M845.823 689.23C846.433 690.119 845.931 691.185 844.712 691.617C843.458 692.049 841.953 691.693 841.343 690.83C840.734 689.941 841.236 688.874 842.454 688.442C843.673 688.011 845.178 688.366 845.823 689.23Z"
    fill="black" />
  <path opacity="0.31"
    d="M907.972 767.989C908.617 768.904 908.079 769.996 906.825 770.453C905.535 770.91 903.994 770.529 903.348 769.64C902.703 768.751 903.241 767.634 904.495 767.177C905.786 766.72 907.363 767.075 907.972 767.989Z"
    fill="black" />
  <path opacity="0.31"
    d="M1012.13 838.139C1012.77 839.053 1012.23 840.145 1010.98 840.603C1009.72 841.06 1008.15 840.679 1007.5 839.79C1006.86 838.876 1007.39 837.783 1008.65 837.326C1009.9 836.844 1011.48 837.225 1012.13 838.139Z"
    fill="black" />
  <path opacity="0.21"
    d="M592.858 602.723C593.395 603.46 592.965 604.374 591.926 604.755C590.886 605.136 589.596 604.832 589.059 604.095C588.521 603.358 588.951 602.444 589.99 602.063C591.066 601.657 592.356 601.962 592.858 602.723Z"
    fill="black" />
  <path opacity="0.24"
    d="M581.209 595.053C581.783 595.841 581.317 596.806 580.206 597.212C579.095 597.619 577.733 597.288 577.159 596.501C576.586 595.714 577.052 594.749 578.163 594.342C579.274 593.936 580.636 594.241 581.209 595.053Z"
    fill="black" />
  <path opacity="0.26"
    d="M568.737 631.22C569.311 632.058 568.845 633.049 567.698 633.481C566.515 633.887 565.117 633.557 564.508 632.744C563.935 631.906 564.401 630.915 565.547 630.484C566.73 630.077 568.164 630.408 568.737 631.22Z"
    fill="black" />
  <path opacity="0.29"
    d="M556.946 714.399C557.555 715.288 557.053 716.355 555.835 716.787C554.58 717.218 553.075 716.863 552.465 715.999C551.856 715.11 552.358 714.044 553.577 713.612C554.831 713.155 556.336 713.51 556.946 714.399Z"
    fill="black" />
  <path opacity="0.33"
    d="M549.239 842.355C549.884 843.27 549.383 844.412 548.057 844.87C546.766 845.327 545.153 844.971 544.508 844.032C543.863 843.117 544.365 841.974 545.691 841.517C547.017 841.034 548.594 841.416 549.239 842.355Z"
    fill="black" />
  <path opacity="0.59"
    d="M1893.45 556.727C1894.35 557.997 1893.63 559.547 1891.84 560.182C1890.05 560.817 1887.86 560.309 1886.97 559.039C1886.07 557.769 1886.79 556.22 1888.58 555.585C1890.37 554.924 1892.56 555.432 1893.45 556.727Z"
    fill="black" />
  <path opacity="0.57"
    d="M1797.4 624.591C1798.26 625.81 1797.58 627.309 1795.82 627.918C1794.1 628.528 1791.99 628.045 1791.13 626.801C1790.27 625.582 1790.95 624.083 1792.71 623.474C1794.43 622.89 1796.54 623.372 1797.4 624.591Z"
    fill="black" />
  <path opacity="0.5"
    d="M1747.83 631.906C1748.66 633.049 1747.98 634.446 1746.36 635.005C1744.75 635.589 1742.78 635.106 1741.99 633.963C1741.2 632.82 1741.85 631.423 1743.46 630.865C1745.07 630.281 1747.04 630.763 1747.83 631.906Z"
    fill="black" />
  <path opacity="0.41"
    d="M1732.46 578.646C1733.21 579.688 1732.6 580.957 1731.13 581.491C1729.66 582.024 1727.87 581.592 1727.12 580.551C1726.36 579.51 1726.97 578.24 1728.44 577.707C1729.91 577.173 1731.7 577.605 1732.46 578.646Z"
    fill="black" />
  <path opacity="0.58"
    d="M1654.47 76.5246C1655.33 77.7437 1654.65 79.2422 1652.89 79.8518C1651.17 80.4613 1649.06 79.9788 1648.2 78.7342C1647.33 77.5151 1648.02 76.0166 1649.77 75.4071C1651.53 74.8229 1653.61 75.3055 1654.47 76.5246Z"
    fill="black" />
  <path opacity="0.52"
    d="M1578.95 247.175C1579.77 248.343 1579.09 249.791 1577.44 250.375C1575.8 250.959 1573.75 250.502 1572.93 249.308C1572.1 248.14 1572.79 246.692 1574.43 246.108C1576.08 245.549 1578.13 246.007 1578.95 247.175Z"
    fill="black" />
  <path opacity="0.47"
    d="M1519.85 363.803C1520.64 364.921 1519.99 366.267 1518.45 366.825C1516.87 367.384 1514.97 366.927 1514.19 365.835C1513.4 364.743 1514.04 363.371 1515.58 362.813C1517.16 362.254 1519.06 362.711 1519.85 363.803Z"
    fill="black" />
  <path opacity="0.42"
    d="M1491.64 426.486C1492.39 427.527 1491.79 428.797 1490.32 429.33C1488.85 429.864 1487.05 429.432 1486.3 428.391C1485.55 427.349 1486.16 426.079 1487.63 425.546C1489.1 425.013 1490.89 425.444 1491.64 426.486Z"
    fill="black" />
  <path opacity="0.36"
    d="M1490.28 427.705C1490.96 428.67 1490.42 429.864 1489.02 430.372C1487.66 430.854 1485.98 430.473 1485.26 429.483C1484.58 428.518 1485.12 427.324 1486.52 426.816C1487.91 426.333 1489.6 426.74 1490.28 427.705Z"
    fill="black" />
  <path opacity="0.47"
    d="M1228.5 2.36206C1229.29 3.47958 1228.64 4.82568 1227.1 5.38444C1225.52 5.9432 1223.62 5.48603 1222.83 4.39391C1222.05 3.27639 1222.69 1.93029 1224.23 1.37153C1225.81 0.812773 1227.71 1.24454 1228.5 2.36206Z"
    fill="black" />
  <path opacity="0.4"
    d="M1233.37 325.427C1234.09 326.443 1233.51 327.712 1232.08 328.22C1230.65 328.728 1228.86 328.322 1228.14 327.306C1227.42 326.29 1228 325.02 1229.43 324.512C1230.9 323.979 1232.65 324.385 1233.37 325.427Z"
    fill="black" />
  <path opacity="0.37"
    d="M1242.62 436.518C1243.3 437.483 1242.76 438.677 1241.36 439.185C1240 439.667 1238.32 439.286 1237.6 438.296C1236.92 437.331 1237.46 436.137 1238.85 435.629C1240.25 435.147 1241.9 435.527 1242.62 436.518Z"
    fill="black" />
  <path opacity="0.33"
    d="M1274.55 501.283C1275.2 502.198 1274.7 503.341 1273.37 503.798C1272.08 504.255 1270.47 503.899 1269.82 502.96C1269.18 502.02 1269.68 500.902 1271 500.445C1272.33 499.988 1273.91 500.344 1274.55 501.283Z"
    fill="black" />
  <path opacity="0.3"
    d="M941.483 89.2237C942.092 90.1127 941.59 91.1794 940.372 91.6112C939.117 92.0429 937.612 91.6874 937.003 90.8238C936.393 89.9349 936.895 88.8682 938.114 88.4364C939.368 87.9792 940.873 88.3348 941.483 89.2237Z"
    fill="black" />
  <path opacity="0.33"
    d="M975.353 177.025C975.998 177.939 975.496 179.082 974.17 179.539C972.88 179.997 971.267 179.641 970.622 178.701C969.976 177.787 970.478 176.644 971.804 176.187C973.13 175.73 974.672 176.085 975.353 177.025Z"
    fill="black" />
  <path opacity="0.34"
    d="M995.03 300.79C995.711 301.73 995.173 302.873 993.811 303.356C992.485 303.838 990.872 303.457 990.191 302.492C989.51 301.552 990.048 300.409 991.41 299.927C992.736 299.47 994.349 299.851 995.03 300.79Z"
    fill="black" />
  <path opacity="0.35"
    d="M1002.38 437.89C1003.06 438.855 1002.52 440.023 1001.16 440.506C999.796 440.988 998.148 440.607 997.467 439.642C996.786 438.677 997.323 437.509 998.685 437.026C1000.05 436.543 1001.7 436.95 1002.38 437.89Z"
    fill="black" />
  <path opacity="0.35"
    d="M1014.49 576.106C1015.17 577.071 1014.63 578.24 1013.27 578.722C1011.91 579.205 1010.26 578.824 1009.58 577.859C1008.9 576.894 1009.44 575.725 1010.8 575.243C1012.16 574.76 1013.81 575.141 1014.49 576.106Z"
    fill="black" />
  <path opacity="0.34"
    d="M1051.8 705.154C1052.48 706.094 1051.94 707.237 1050.58 707.719C1049.26 708.202 1047.64 707.821 1046.96 706.856C1046.28 705.916 1046.82 704.773 1048.18 704.291C1049.54 703.834 1051.16 704.215 1051.8 705.154Z"
    fill="black" />
  <path opacity="0.23"
    d="M859.478 384.909C860.016 385.696 859.586 386.636 858.475 387.017C857.364 387.398 856.038 387.093 855.5 386.306C854.962 385.519 855.393 384.579 856.504 384.198C857.579 383.817 858.941 384.122 859.478 384.909Z"
    fill="black" />
  <path opacity="0.27"
    d="M831.559 382.318C832.169 383.157 831.667 384.198 830.484 384.604C829.301 385.036 827.832 384.68 827.258 383.842C826.649 383.004 827.151 381.963 828.334 381.556C829.48 381.125 830.95 381.455 831.559 382.318Z"
    fill="black" />
  <path opacity="0.3"
    d="M805.431 439.744C806.076 440.633 805.539 441.725 804.284 442.182C803.03 442.639 801.489 442.258 800.844 441.369C800.198 440.48 800.736 439.388 801.99 438.931C803.281 438.474 804.822 438.829 805.431 439.744Z"
    fill="black" />
  <path opacity="0.33"
    d="M772.242 539.431C772.887 540.346 772.386 541.489 771.06 541.946C769.733 542.403 768.156 542.047 767.511 541.108C766.866 540.193 767.368 539.05 768.694 538.593C770.02 538.136 771.597 538.492 772.242 539.431Z"
    fill="black" />
  <path opacity="0.35"
    d="M734.68 669.724C735.361 670.689 734.824 671.857 733.462 672.34C732.1 672.822 730.451 672.442 729.77 671.476C729.089 670.511 729.627 669.343 730.989 668.86C732.351 668.378 733.999 668.784 734.68 669.724Z"
    fill="black" />
  <path opacity="0.38"
    d="M703.033 827.446C703.75 828.437 703.176 829.656 701.779 830.139C700.381 830.647 698.66 830.24 697.979 829.25C697.263 828.259 697.836 827.04 699.234 826.558C700.632 826.075 702.352 826.456 703.033 827.446Z"
    fill="black" />
  <path opacity="0.22"
    d="M721.169 508.674C721.706 509.436 721.276 510.351 720.201 510.731C719.126 511.112 717.835 510.808 717.298 510.046C716.76 509.284 717.19 508.369 718.266 507.988C719.341 507.608 720.631 507.912 721.169 508.674Z"
    fill="black" />
  <path opacity="0.25"
    d="M665.615 448.379C666.188 449.192 665.722 450.182 664.575 450.589C663.429 450.995 662.031 450.665 661.457 449.852C660.884 449.039 661.35 448.049 662.497 447.642C663.644 447.261 665.041 447.566 665.615 448.379Z"
    fill="black" />
  <path opacity="0.33"
    d="M471.967 586.824C472.612 587.764 472.11 588.881 470.784 589.339C469.494 589.796 467.881 589.44 467.236 588.501C466.591 587.586 467.093 586.443 468.419 585.986C469.745 585.529 471.322 585.885 471.967 586.824Z"
    fill="black" />
  <path opacity="0.34"
    d="M394.694 712.494C395.375 713.434 394.837 714.577 393.475 715.06C392.113 715.542 390.536 715.161 389.855 714.196C389.174 713.256 389.712 712.113 391.074 711.631C392.4 711.174 394.013 711.555 394.694 712.494Z"
    fill="black" />
  <path opacity="0.59"
    d="M1591.17 828.437C1592.1 829.758 1591.35 831.383 1589.49 832.044C1587.62 832.704 1585.33 832.171 1584.4 830.85C1583.47 829.529 1584.22 827.904 1586.08 827.243C1587.98 826.583 1590.24 827.116 1591.17 828.437Z"
    fill="black" />
  <path opacity="0.51"
    d="M1565.12 751.43C1565.94 752.598 1565.26 753.995 1563.65 754.579C1562 755.163 1560.03 754.681 1559.2 753.538C1558.38 752.369 1559.06 750.973 1560.67 750.388C1562.28 749.804 1564.29 750.261 1565.12 751.43Z"
    fill="black" />
  <path opacity="0.38"
    d="M1556.51 643.31C1557.23 644.326 1556.66 645.545 1555.22 646.053C1553.79 646.561 1552.07 646.154 1551.35 645.138C1550.64 644.123 1551.21 642.903 1552.64 642.395C1554.08 641.913 1555.8 642.319 1556.51 643.31Z"
    fill="black" />
  <path opacity="0.59"
    d="M1740.41 472.482C1741.38 473.828 1740.59 475.479 1738.69 476.165C1736.79 476.85 1734.46 476.292 1733.5 474.945C1732.53 473.599 1733.32 471.949 1735.22 471.263C1737.12 470.577 1739.45 471.136 1740.41 472.482Z"
    fill="black" />
  <path opacity="0.46"
    d="M1345.95 635.335C1346.74 636.452 1346.09 637.798 1344.55 638.357C1342.97 638.916 1341.07 638.459 1340.29 637.367C1339.5 636.275 1340.14 634.903 1341.68 634.344C1343.26 633.76 1345.2 634.217 1345.95 635.335Z"
    fill="black" />
  <path opacity="0.38"
    d="M1342.33 655.094C1343.04 656.11 1342.47 657.33 1341.04 657.837C1339.6 658.345 1337.88 657.939 1337.17 656.923C1336.45 655.907 1337.02 654.688 1338.46 654.18C1339.89 653.698 1341.61 654.104 1342.33 655.094Z"
    fill="black" />
  <path opacity="0.59"
    d="M1619.27 1.9302C1620.2 3.2763 1619.45 4.90179 1617.55 5.56214C1615.65 6.22249 1613.36 5.68913 1612.43 4.34303C1611.49 2.99692 1612.25 1.37144 1614.15 0.711091C1616.01 0.0507387 1618.3 0.5841 1619.27 1.9302Z"
    fill="black" />
  <path opacity="0.49"
    d="M1171.15 478.603C1171.98 479.746 1171.3 481.143 1169.68 481.701C1168.07 482.286 1166.1 481.803 1165.31 480.66C1164.49 479.517 1165.17 478.12 1166.78 477.561C1168.36 476.977 1170.33 477.46 1171.15 478.603Z"
    fill="black" />
  <path opacity="0.41"
    d="M1084.09 738.426C1084.85 739.467 1084.24 740.737 1082.77 741.27C1081.3 741.804 1079.51 741.372 1078.75 740.331C1078 739.289 1078.61 738.02 1080.08 737.486C1081.55 736.953 1083.34 737.385 1084.09 738.426Z"
    fill="black" />
  <path opacity="0.49"
    d="M1104.52 88.5634C1105.35 89.7063 1104.67 91.1032 1103.05 91.662C1101.44 92.2461 1099.47 91.7636 1098.68 90.6206C1097.86 89.4777 1098.54 88.0808 1100.15 87.5221C1101.76 86.9379 1103.73 87.4205 1104.52 88.5634Z"
    fill="black" />
  <path opacity="0.43"
    d="M756.759 760.065C757.512 761.132 756.902 762.402 755.397 762.935C753.892 763.468 752.1 763.037 751.347 761.97C750.594 760.903 751.204 759.633 752.709 759.1C754.178 758.592 756.006 759.024 756.759 760.065Z"
    fill="black" />
  <path opacity="0.34"
    d="M882.345 36.4717C883.026 37.4114 882.488 38.5543 881.127 39.0369C879.8 39.5195 878.188 39.1385 877.507 38.1734C876.826 37.2336 877.363 36.0907 878.725 35.6082C880.051 35.151 881.7 35.532 882.345 36.4717Z"
    fill="black" />
  <path opacity="0.37"
    d="M868.761 151.322C869.478 152.313 868.905 153.532 867.507 154.014C866.109 154.522 864.389 154.116 863.708 153.125C862.991 152.135 863.565 150.916 864.962 150.433C866.36 149.925 868.081 150.332 868.761 151.322Z"
    fill="black" />
  <path opacity="0.39"
    d="M815.036 274.91C815.753 275.926 815.179 277.145 813.746 277.653C812.312 278.161 810.592 277.754 809.875 276.738C809.158 275.722 809.732 274.503 811.165 273.995C812.599 273.513 814.319 273.919 815.036 274.91Z"
    fill="black" />
  <path opacity="0.4"
    d="M721.133 397.608C721.85 398.624 721.277 399.894 719.843 400.402C718.409 400.91 716.617 400.503 715.9 399.487C715.184 398.472 715.757 397.202 717.191 396.694C718.66 396.16 720.416 396.592 721.133 397.608Z"
    fill="black" />
  <path opacity="0.41"
    d="M600.17 516.751C600.922 517.792 600.313 519.062 598.844 519.595C597.374 520.129 595.582 519.697 594.829 518.656C594.077 517.614 594.686 516.344 596.155 515.811C597.625 515.303 599.417 515.71 600.17 516.751Z"
    fill="black" />
  <path opacity="0.4"
    d="M469.996 636.681C470.712 637.697 470.139 638.967 468.705 639.475C467.272 639.983 465.48 639.576 464.763 638.56C464.046 637.544 464.619 636.275 466.053 635.767C467.522 635.259 469.279 635.665 469.996 636.681Z"
    fill="black" />
  <path opacity="0.24"
    d="M793.459 263.658C794.033 264.446 793.567 265.411 792.456 265.817C791.345 266.223 789.983 265.893 789.409 265.106C788.836 264.319 789.302 263.353 790.413 262.947C791.524 262.541 792.922 262.845 793.459 263.658Z"
    fill="black" />
  <path opacity="0.29"
    d="M726.653 248.8C727.262 249.689 726.76 250.756 725.542 251.188C724.287 251.619 722.782 251.264 722.172 250.4C721.563 249.511 722.065 248.445 723.284 248.013C724.538 247.556 726.043 247.911 726.653 248.8Z"
    fill="black" />
  <path opacity="0.34"
    d="M645.222 267.087C645.903 268.027 645.365 269.17 644.003 269.652C642.677 270.135 641.064 269.754 640.384 268.789C639.703 267.849 640.24 266.706 641.602 266.223C642.964 265.741 644.577 266.122 645.222 267.087Z"
    fill="black" />
  <path opacity="0.38"
    d="M538.272 305.337C538.989 306.327 538.416 307.546 537.018 308.029C535.62 308.537 533.9 308.13 533.219 307.14C532.502 306.149 533.075 304.93 534.473 304.448C535.871 303.94 537.555 304.346 538.272 305.337Z"
    fill="black" />
  <path opacity="0.39"
    d="M410.679 353.085C411.395 354.101 410.822 355.32 409.388 355.828C407.955 356.336 406.234 355.93 405.518 354.914C404.801 353.898 405.374 352.679 406.808 352.171C408.241 351.663 409.962 352.069 410.679 353.085Z"
    fill="black" />
  <path opacity="0.37"
    d="M287.422 407.945C288.138 408.936 287.565 410.155 286.167 410.637C284.769 411.145 283.049 410.739 282.368 409.748C281.651 408.758 282.225 407.539 283.623 407.056C284.984 406.548 286.705 406.955 287.422 407.945Z"
    fill="black" />
  <path opacity="0.59"
    d="M1495.3 836.666C1496.48 838.342 1495.51 840.4 1493.15 841.263C1490.78 842.101 1487.88 841.416 1486.66 839.739C1485.48 838.063 1486.44 836.006 1488.81 835.142C1491.21 834.304 1494.12 834.99 1495.3 836.666Z"
    fill="black" />
  <path opacity="0.59"
    d="M1282.19 782.288C1283.23 783.787 1282.4 785.59 1280.29 786.327C1278.17 787.063 1275.63 786.479 1274.59 784.981C1273.55 783.482 1274.37 781.679 1276.49 780.942C1278.6 780.206 1281.15 780.815 1282.19 782.288Z"
    fill="black" />
  <path opacity="0.59"
    d="M1158.61 781.095C1159.54 782.415 1158.79 784.041 1156.92 784.701C1155.06 785.362 1152.77 784.828 1151.83 783.508C1150.9 782.187 1151.65 780.561 1153.52 779.901C1155.38 779.241 1157.68 779.774 1158.61 781.095Z"
    fill="black" />
  <path opacity="0.56"
    d="M1096.78 823.51C1097.64 824.729 1096.96 826.177 1095.24 826.786C1093.52 827.396 1091.48 826.913 1090.62 825.694C1089.76 824.475 1090.44 823.027 1092.16 822.418C1093.84 821.808 1095.92 822.291 1096.78 823.51Z"
    fill="black" />
  <path opacity="0.59"
    d="M1844.6 447.49C1845.68 448.989 1844.82 450.817 1842.67 451.579C1840.55 452.341 1837.97 451.732 1836.9 450.208C1835.82 448.709 1836.68 446.88 1838.83 446.119C1840.95 445.357 1843.53 445.966 1844.6 447.49Z"
    fill="black" />
  <path opacity="0.59"
    d="M1505.01 480C1506.05 481.473 1505.23 483.276 1503.15 484.013C1501.07 484.749 1498.52 484.165 1497.48 482.692C1496.44 481.219 1497.27 479.416 1499.35 478.679C1501.43 477.942 1503.97 478.527 1505.01 480Z"
    fill="black" />
  <path opacity="0.59"
    d="M998.506 601.352C999.402 602.647 998.685 604.222 996.857 604.857C995.029 605.492 992.807 604.984 991.911 603.689C991.015 602.393 991.732 600.819 993.56 600.184C995.352 599.549 997.574 600.057 998.506 601.352Z"
    fill="black" />
  <path opacity="0.56"
    d="M841.021 702.462C841.881 703.681 841.2 705.129 839.48 705.738C837.759 706.348 835.716 705.865 834.856 704.646C833.996 703.427 834.677 701.979 836.397 701.37C838.118 700.76 840.196 701.243 841.021 702.462Z"
    fill="black" />
  <path opacity="0.52"
    d="M711.599 830.367C712.424 831.536 711.743 832.983 710.094 833.567C708.445 834.152 706.402 833.669 705.578 832.501C704.754 831.332 705.435 829.885 707.083 829.3C708.768 828.716 710.775 829.199 711.599 830.367Z"
    fill="black" />
  <path opacity="0.59"
    d="M1594.68 49.2216C1595.69 50.6693 1594.9 52.4218 1592.86 53.1329C1590.81 53.8441 1588.34 53.2853 1587.34 51.8376C1586.33 50.3899 1587.12 48.6375 1589.17 47.9263C1591.17 47.1898 1593.65 47.7739 1594.68 49.2216Z"
    fill="black" />
  <path opacity="0.59"
    d="M1320.79 190.486C1321.76 191.858 1320.97 193.534 1319.03 194.22C1317.1 194.905 1314.73 194.347 1313.76 192.975C1312.8 191.604 1313.58 189.927 1315.52 189.242C1317.45 188.556 1319.82 189.115 1320.79 190.486Z"
    fill="black" />
  <path opacity="0.49"
    d="M457.451 635.868C458.276 637.011 457.595 638.408 455.982 638.967C454.369 639.551 452.398 639.068 451.609 637.925C450.785 636.782 451.466 635.385 453.079 634.827C454.692 634.268 456.663 634.725 457.451 635.868Z"
    fill="black" />
  <path opacity="0.59"
    d="M1031.59 12.9276C1032.45 14.1722 1031.77 15.6706 1030.01 16.3056C1028.25 16.9406 1026.14 16.4326 1025.24 15.1881C1024.35 13.9436 1025.06 12.4451 1026.82 11.8101C1028.58 11.1752 1030.73 11.6831 1031.59 12.9276Z"
    fill="black" />
  <path opacity="0.56"
    d="M887.22 164.783C888.08 166.002 887.399 167.45 885.679 168.06C883.959 168.669 881.916 168.187 881.055 166.968C880.195 165.748 880.876 164.301 882.597 163.691C884.281 163.107 886.36 163.59 887.22 164.783Z"
    fill="black" />
  <path opacity="0.55"
    d="M709.592 277.195C710.452 278.415 709.771 279.862 708.051 280.472C706.331 281.081 704.288 280.599 703.427 279.38C702.567 278.161 703.248 276.713 704.969 276.103C706.689 275.519 708.768 276.002 709.592 277.195Z"
    fill="black" />
  <path opacity="0.53"
    d="M507.987 352.755C508.811 353.923 508.13 355.371 506.482 355.955C504.833 356.539 502.79 356.057 501.966 354.888C501.141 353.72 501.822 352.272 503.471 351.688C505.12 351.104 507.163 351.561 507.987 352.755Z"
    fill="black" />
  <path opacity="0.48"
    d="M312.618 397.43C313.406 398.548 312.761 399.919 311.184 400.478C309.607 401.037 307.672 400.58 306.883 399.462C306.095 398.345 306.74 396.973 308.317 396.414C309.894 395.856 311.829 396.313 312.618 397.43Z"
    fill="black" />
  <path opacity="0.46"
    d="M710.524 80.9694C711.312 82.0869 710.667 83.433 709.126 83.9917C707.585 84.5505 705.649 84.0933 704.861 83.0012C704.072 81.9091 704.717 80.5376 706.259 79.9788C707.836 79.4201 709.735 79.8772 710.524 80.9694Z"
    fill="black" />
  <path opacity="0.51"
    d="M578.844 130.547C579.669 131.715 578.988 133.112 577.375 133.696C575.726 134.28 573.755 133.797 572.93 132.655C572.106 131.512 572.787 130.089 574.4 129.505C576.049 128.921 578.02 129.378 578.844 130.547Z"
    fill="black" />
  <path opacity="0.56"
    d="M397.13 150.56C399.03 150.56 400.571 149.469 400.571 148.122C400.571 146.775 399.03 145.684 397.13 145.684C395.23 145.684 393.689 146.775 393.689 148.122C393.689 149.469 395.23 150.56 397.13 150.56Z"
    fill="black" />
  <path opacity="0.59"
    d="M189.468 130.623C190.364 131.867 189.647 133.366 187.891 134.001C186.135 134.636 184.02 134.128 183.124 132.883C182.228 131.639 182.945 130.14 184.701 129.505C186.457 128.87 188.608 129.378 189.468 130.623Z"
    fill="black" />
  <path opacity="0.59"
    d="M921.734 675.896C922.881 677.496 921.949 679.451 919.692 680.264C917.434 681.077 914.674 680.416 913.527 678.816C912.38 677.216 913.312 675.261 915.57 674.448C917.828 673.635 920.587 674.27 921.734 675.896Z"
    fill="black" />
  <path opacity="0.59"
    d="M691.349 658.422C692.352 659.869 691.564 661.622 689.521 662.333C687.478 663.044 685.005 662.485 684.001 661.038C682.998 659.59 683.786 657.838 685.829 657.126C687.872 656.415 690.345 656.999 691.349 658.422Z"
    fill="black" />
  <path opacity="0.59"
    d="M489.779 677.369C490.711 678.689 489.958 680.315 488.095 680.975C486.231 681.636 483.937 681.102 483.005 679.781C482.073 678.461 482.826 676.835 484.69 676.175C486.589 675.489 488.847 676.048 489.779 677.369Z"
    fill="black" />
  <path opacity="0.57"
    d="M302.044 707.364C302.905 708.583 302.224 710.082 300.467 710.691C298.747 711.301 296.632 710.818 295.772 709.574C294.912 708.355 295.593 706.856 297.349 706.246C299.07 705.637 301.148 706.119 302.044 707.364Z"
    fill="black" />
  <path opacity="0.59"
    d="M1858.8 479.746C1859.98 481.422 1859.01 483.479 1856.65 484.343C1854.28 485.181 1851.38 484.495 1850.16 482.819C1848.98 481.143 1849.94 479.085 1852.31 478.222C1854.71 477.384 1857.61 478.069 1858.8 479.746Z"
    fill="black" />
  <path opacity="0.59"
    d="M1442.54 435.604C1443.69 437.255 1442.76 439.236 1440.46 440.048C1438.13 440.861 1435.34 440.201 1434.19 438.575C1433.04 436.924 1433.97 434.943 1436.27 434.131C1438.56 433.318 1441.36 433.978 1442.54 435.604Z"
    fill="black" />
  <path opacity="0.59"
    d="M225.739 427.857C226.636 429.127 225.919 430.651 224.127 431.286C222.335 431.921 220.184 431.413 219.288 430.143C218.392 428.873 219.109 427.349 220.901 426.714C222.693 426.105 224.843 426.613 225.739 427.857Z"
    fill="black" />
  <path opacity="0.59"
    d="M1742.74 14.223C1743.89 15.8231 1742.96 17.7787 1740.7 18.5915C1738.44 19.4042 1735.68 18.7438 1734.54 17.1438C1733.39 15.5437 1734.32 13.588 1736.58 12.7753C1738.87 11.9879 1741.63 12.6229 1742.74 14.223Z"
    fill="black" />
  <path opacity="0.59"
    d="M1382.54 83.7377C1383.65 85.2869 1382.76 87.1918 1380.57 87.9791C1378.38 88.7665 1375.7 88.1315 1374.59 86.5822C1373.47 85.033 1374.37 83.1281 1376.56 82.3407C1378.78 81.5534 1381.47 82.1884 1382.54 83.7377Z"
    fill="black" />
  <path opacity="0.59"
    d="M1066.64 152.897C1067.71 154.395 1066.85 156.224 1064.7 156.986C1062.59 157.748 1060.01 157.138 1058.93 155.614C1057.86 154.116 1058.72 152.287 1060.87 151.525C1062.98 150.789 1065.6 151.398 1066.64 152.897Z"
    fill="black" />
  <path opacity="0.59"
    d="M776.579 199.756C777.618 201.23 776.794 203.033 774.715 203.769C772.637 204.506 770.092 203.922 769.052 202.449C768.013 200.976 768.837 199.172 770.916 198.436C772.995 197.674 775.54 198.283 776.579 199.756Z"
    fill="black" />
  <path opacity="0.59"
    d="M494.116 207.808C495.155 209.255 494.331 211.033 492.252 211.77C490.209 212.506 487.7 211.922 486.661 210.449C485.621 209.001 486.446 207.224 488.525 206.487C490.603 205.776 493.112 206.36 494.116 207.808Z"
    fill="black" />
  <path opacity="0.59"
    d="M216.528 169.406C217.531 170.853 216.743 172.606 214.7 173.317C212.657 174.028 210.184 173.469 209.18 172.022C208.177 170.574 208.965 168.822 211.008 168.11C213.051 167.399 215.524 167.958 216.528 169.406Z"
    fill="black" />
  <path opacity="0.59"
    d="M30.9797 797.273C31.8757 798.543 31.1589 800.067 29.3669 800.702C27.5748 801.337 25.4244 800.829 24.5283 799.559C23.6323 798.289 24.3491 796.765 26.1412 796.13C27.9332 795.521 30.0837 796.029 30.9797 797.273Z"
    fill="black" />
  <path opacity="0.59"
    d="M377.024 827.421C378.493 829.504 377.311 832.044 374.372 833.085C371.433 834.126 367.849 833.288 366.379 831.205C364.91 829.123 366.092 826.583 369.031 825.542C371.97 824.475 375.554 825.338 377.024 827.421Z"
    fill="black" />
  <path opacity="0.59"
    d="M382.866 707.465C384.121 709.243 383.117 711.428 380.572 712.317C378.063 713.205 374.981 712.494 373.727 710.691C372.472 708.913 373.476 706.729 376.02 705.84C378.529 704.951 381.612 705.688 382.866 707.465Z"
    fill="black" />
  <path opacity="0.59"
    d="M0.872962 465.675C1.76899 466.945 1.05217 468.494 -0.73988 469.129C-2.53193 469.764 -4.71823 469.256 -5.61425 467.986C-6.51027 466.716 -5.79346 465.167 -4.00141 464.532C-2.2452 463.897 -0.0589023 464.405 0.872962 465.675Z"
    fill="black" />
  <path opacity="0.59"
    d="M867.364 540.65C868.726 542.555 867.615 544.867 864.927 545.832C862.239 546.797 858.977 546.009 857.615 544.105C856.253 542.2 857.364 539.888 860.052 538.923C862.776 537.984 866.038 538.746 867.364 540.65Z"
    fill="black" />
  <path opacity="0.59"
    d="M290.361 326.417C291.543 328.068 290.576 330.074 288.246 330.913C285.916 331.751 283.085 331.065 281.902 329.414C280.719 327.763 281.687 325.757 284.017 324.919C286.346 324.08 289.214 324.741 290.361 326.417Z"
    fill="black" />
  <path opacity="0.59"
    d="M34.8499 213.675C35.9968 215.3 35.0649 217.281 32.7711 218.094C30.4773 218.907 27.6817 218.246 26.5348 216.621C25.3879 214.995 26.3197 213.014 28.6135 212.202C30.9432 211.389 33.703 212.049 34.8499 213.675Z"
    fill="black" />
  <path opacity="0.59"
    d="M1731.09 377.137C1732.42 379.017 1731.35 381.277 1728.73 382.217C1726.08 383.157 1722.89 382.395 1721.56 380.54C1720.23 378.661 1721.31 376.401 1723.93 375.461C1726.58 374.521 1729.8 375.258 1731.09 377.137Z"
    fill="black" />
  <path opacity="0.59"
    d="M982.665 203.236C983.991 205.09 982.916 207.35 980.299 208.265C977.683 209.205 974.493 208.443 973.203 206.588C971.877 204.734 972.952 202.474 975.568 201.56C978.185 200.645 981.374 201.382 982.665 203.236Z"
    fill="black" />
  <path opacity="0.59"
    d="M677.479 124.375C678.841 126.28 677.73 128.591 675.042 129.556C672.354 130.521 669.092 129.734 667.73 127.829C666.368 125.924 667.479 123.613 670.167 122.648C672.855 121.708 676.117 122.47 677.479 124.375Z"
    fill="black" />
  <path opacity="0.59"
    d="M407.524 16.8136C408.993 18.8962 407.811 21.436 404.872 22.4774C401.933 23.5187 398.349 22.6806 396.879 20.5979C395.41 18.5153 396.592 15.9754 399.531 14.9341C402.47 13.8674 406.054 14.7309 407.524 16.8136Z"
    fill="black" />
</svg>