<svg width="100" height="100" viewBox="0 0 100 100" fill="none" xmlns="http://www.w3.org/2000/svg">
  <g clip-path="url(#clip0_1_26)">
    <path
      d="M50 100C77.6142 100 100 77.6142 100 50C100 22.3858 77.6142 0 50 0C22.3858 0 0 22.3858 0 50C0 77.6142 22.3858 100 50 100Z"
      fill="#988430" />
    <path
      d="M50 98.3984C76.7297 98.3984 98.3984 76.7297 98.3984 50C98.3984 23.2703 76.7297 1.60159 50 1.60159C23.2703 1.60159 1.6016 23.2703 1.6016 50C1.6016 76.7297 23.2703 98.3984 50 98.3984Z"
      fill="#7A6A2A" />
    <path
      d="M50 97.3787C76.1665 97.3787 97.3787 76.1665 97.3787 50C97.3787 23.8335 76.1665 2.62134 50 2.62134C23.8335 2.62134 2.62133 23.8335 2.62133 50C2.62133 76.1665 23.8335 97.3787 50 97.3787Z"
      fill="#BA9F33" />
    <path fill-rule="evenodd" clip-rule="evenodd"
      d="M21.8608 44.6603C21.5776 44.4016 21.2784 44.1424 21.0032 43.8837C20.728 43.6251 20.4453 43.3659 20.1621 43.1072L19.3205 42.3072C19.1829 42.1696 19.0373 42.0485 18.8997 41.9104C18.7621 41.7893 18.6005 41.6517 18.4629 41.5301C17.3461 40.4704 16.2229 39.4107 15.1216 38.3504C16.2624 39.3941 17.3792 40.4304 18.52 41.4896L18.9163 41.8864C19.0539 42.0235 19.1995 42.1451 19.3371 42.2827L20.1781 43.0592C20.4613 43.3179 20.7365 43.5771 21.0197 43.8592C21.3029 44.1413 21.5781 44.4011 21.8613 44.6592L21.8608 44.6603ZM7.03893 44.5003C7.03893 44.5003 11.1003 44.9205 13.0827 45.2037C14.9189 45.4629 20.6635 46.3445 20.6635 46.3445L7.03893 44.5003ZM7.03893 44.5003C8.17973 44.5973 9.32053 44.7184 10.4613 44.84C11.0437 44.8965 11.6021 44.9611 12.1605 45.0176L13.0176 45.1152C13.3008 45.1552 13.576 45.1957 13.8592 45.2363L17.2576 45.7781L18.9563 46.0613C19.5147 46.1584 20.0731 46.264 20.6555 46.3611C20.0971 46.3045 19.5147 46.2235 18.9563 46.1424L17.2576 45.8997L13.8592 45.3984C13.576 45.3579 13.3008 45.3008 13.0176 45.2608L12.16 45.1621C11.6016 45.1056 11.0192 45.0245 10.4608 44.9595C9.32 44.8224 8.1792 44.6763 7.0384 44.4987L7.03893 44.5003ZM20.2592 47.4027C20.2592 47.4027 15.9227 48.5035 14.4581 48.9243C13.0181 49.3205 8.65707 50.6475 8.65707 50.6475L20.2587 47.4032L20.2592 47.4027Z"
      fill="#CFB66C" />
    <path fill-rule="evenodd" clip-rule="evenodd"
      d="M20.2587 47.4027C19.296 47.6859 18.3387 47.9611 17.3621 48.2203L14.4656 48.9968C13.5029 49.28 12.5456 49.5552 11.5856 49.8384L10.1456 50.2347C9.66826 50.3723 9.18293 50.4933 8.6896 50.6315C9.1664 50.4715 9.65226 50.3077 10.1296 50.1701L11.5696 49.7093C12.5323 49.4096 13.4896 49.1264 14.4496 48.8272C15.4283 48.5845 16.3915 48.3253 17.3701 48.0907C18.3003 47.856 19.2795 47.6219 20.2587 47.4032V47.4027ZM9.264 53.3173C9.7408 53.1392 15.2427 50.5749 16.5211 49.976C17.1611 49.6763 19.0213 49.016 19.0213 49.016L9.264 53.3173Z"
      fill="#CFB66C" />
    <path fill-rule="evenodd" clip-rule="evenodd"
      d="M9.264 53.3173C9.68427 53.1573 10.0811 52.9616 10.4853 52.7755L11.6827 52.2171L14.0859 51.0603C14.8859 50.68 15.6635 50.2603 16.4885 49.9029C16.9093 49.7253 17.3301 49.5797 17.7504 49.4421L18.3904 49.24C18.6085 49.1835 18.8112 49.1184 19.0304 49.0619C18.2304 49.4421 17.3883 49.7659 16.5872 50.1376C15.7872 50.5344 14.9691 50.8581 14.1435 51.2139L11.7003 52.2896C10.88 52.6219 10.08 52.9776 9.26347 53.3173H9.264ZM9.79733 55.5573C9.79733 55.5573 14.7808 52.6368 16.496 51.6981C17.3941 51.1968 20.2987 49.7563 20.2987 49.7563L9.79733 55.5573Z"
      fill="#CFB66C" />
    <path fill-rule="evenodd" clip-rule="evenodd"
      d="M9.79787 55.5584C10.6389 55.0405 11.4965 54.5147 12.3541 53.9808L13.6341 53.2037C14.0709 52.9451 14.4917 52.7024 14.9371 52.4437C15.3739 52.1845 15.7947 51.9259 16.2395 51.6832C16.4512 51.5525 16.6731 51.4388 16.9029 51.3435L17.5824 51.0037C18.4805 50.5669 19.3787 50.1216 20.3253 49.7413C19.4677 50.2837 18.5856 50.7451 17.704 51.2219C17.2672 51.4645 16.8219 51.6832 16.3851 51.9259C15.9483 52.1685 15.5275 52.4277 15.0821 52.6624C14.6453 52.9211 14.2245 53.1637 13.7797 53.3984L12.4608 54.1184L9.79893 55.5584H9.79787ZM20.2587 50.3963C20.2587 50.3963 17.16 52.7749 16.1568 53.5355C15.1536 54.296 12.2005 56.432 12.2005 56.432L20.2587 50.3963Z"
      fill="#CFB66C" />
    <path fill-rule="evenodd" clip-rule="evenodd"
      d="M38.0421 69.5792L36.4565 66.5776L37.3787 62.8235L43.9563 60.2832L41.1568 54.5392L42.5403 48.7381L45.1376 43.5435L53.1637 42.2816L59.0613 36.6587L71.7963 37.6213L74.296 51.2379L69.4821 68.3819L66.7397 77.2576L55.6229 77.6784L50.4613 74.1024L44.4176 71.5776L38.0421 69.5792Z"
      fill="#E2CC85" />
    <path fill-rule="evenodd" clip-rule="evenodd"
      d="M57.5408 69.4821C57.5408 69.4821 56.0032 70.1861 53.3808 70.024C52.6219 69.0048 47.3067 68.5275 47.3067 68.5275C47.3067 68.5275 46.6432 68.3253 45.4699 68.8107C44.2891 69.2907 43.1723 69.2315 42.1285 69.4901C41.0848 69.7488 40.0485 68.3899 39.2485 68.1067C38.4485 67.8075 37.3877 67.0875 37.3877 67.0875L35.1477 66.8688L30.6496 64.9675L23.5035 57.848L21.5616 60.888L20.9627 64.6501L23.1232 69.1083L28.9403 74.4075L40.2832 77.2875L47.0064 75.3067L55.4288 71.7467L57.5408 69.4816V69.4821Z"
      fill="#F1D789" />
    <path fill-rule="evenodd" clip-rule="evenodd"
      d="M17.2411 44.3205L18.6811 39.96L20.3968 37.144L25.9221 36.6827L24.2635 41.5211L19.6443 49.7413L21.5616 57.0795L18.1637 58.7781L17.1195 57.1765L16.2784 53.5035L16.2219 49.3771L17.2411 44.3205Z"
      fill="#F4ECB4" />
    <path fill-rule="evenodd" clip-rule="evenodd"
      d="M23.4384 69.1829L22.3787 67.7024C22.3787 67.7024 22.0955 66.9984 22.2576 66.3835C22.4176 65.7605 22.3947 65.72 22.3141 65.4853C22.2336 65.2507 21.5536 64.4416 21.5941 63.7456C21.6341 63.0416 21.5376 62.8069 22.0549 62.2491C22.5968 61.7072 22.4352 60.7685 22.4352 60.7685L23.1392 61.2053L23.2992 60.9627C23.2992 60.9627 23.5579 61.1648 23.5579 61.4805C23.6144 61.0437 23.3797 59.0208 23.9136 58.56C24.4475 58.0992 25.3941 60.72 25.3941 60.72L24.8117 56.9173L23.3147 53.0181L20.6528 49.4581L20.4928 45.5339V45.1941C20.4928 45.1941 19.2709 47.0715 18.9312 48.5541C18.6885 49.5733 19.2709 50.8112 19.1499 52.2757C19.0523 53.7323 18.9312 53.6187 19.2869 54.1957C19.6427 54.7728 20.5088 55.9595 20.1691 56.8171C19.8699 57.5536 18.8501 57.0357 18.8501 57.0357C18.8501 57.0357 18.648 57.6341 18.3728 57.8528C18.2757 57.4971 18.1707 57.2704 17.9765 57.0528C17.96 57.1904 17.92 57.3765 17.92 57.3765C17.92 57.3765 17.7419 56.8181 17.5637 56.1141C17.3216 55.176 17.0624 53.9381 16.8277 53.2747C16.7307 53.6549 16.488 54.8117 16.488 54.8117L16.6256 56.592L17.2891 59.0352L17.9291 60.6352L18.552 62.5931L19.0933 63.9083L19.5301 64.9115L19.9104 67.1691L21.7467 69.1104L22.7259 69.5477L23.4373 69.1835L23.4384 69.1829Z"
      fill="#F3E19D" />
    <path fill-rule="evenodd" clip-rule="evenodd"
      d="M18.2037 40.7605C18.2037 40.7605 16.8848 43.0005 16.5051 45.2587C16.1253 47.5168 15.7851 49.9029 16.0251 52.9771C16.2677 56.0763 16.7291 57.9771 17.1013 59.3365C17.7413 61.5941 19.3989 64.7333 19.3989 64.7333L19.4555 64.6117C19.1768 64.0836 18.9545 63.5277 18.792 62.9531C18.5733 62.0955 18.4923 61.0763 18.2901 60.6149C18.112 60.1541 17.8128 59.7573 17.6672 59.1909C17.5296 58.6491 17.5072 57.7915 17.0848 57.1525C16.9067 56.8933 16.688 56.2139 16.6235 55.5344C16.5424 54.5147 16.664 53.3739 16.5669 52.4357C16.3888 50.8741 16.2677 49.8144 16.4293 48.9968C16.5909 48.1792 17.4331 45.8581 17.9509 44.0133C18.2907 42.832 18.088 41.8368 18.7109 40.8091C19.3339 39.7899 19.7147 38.8917 19.8517 38.2688C20.0117 37.7024 18.2016 40.7605 18.2016 40.7605H18.2037Z"
      fill="#F2E8B0" />
    <path fill-rule="evenodd" clip-rule="evenodd"
      d="M24.4581 39.8624C24.4581 39.8624 23.7787 40.0651 23.4549 40.4208C23.1312 40.7605 22.9936 41.0437 22.5568 41.6181C22.12 42.1925 22.0955 42.6619 21.7392 43.3819C21.3835 44.0859 20.5984 45.1456 20.5013 45.5259C20.4043 45.9061 20.2427 47.6859 20.0405 48.5275C19.8624 49.3691 20.2427 50.4048 20.2427 50.4048L20.7035 50.3072C20.7035 50.3072 20.7035 50.9061 21.1648 51.3109C21.6256 51.7072 21.7067 49.9675 21.7067 49.9675L23.4299 44.1504L26.0267 42.3867L26.3099 40.9627L24.4571 39.8624H24.4581Z"
      fill="#F5EEC0" />
    <path fill-rule="evenodd" clip-rule="evenodd"
      d="M25.72 42.5003C25.72 42.5003 24.4981 42.5808 23.8997 43.0181C23.6571 43.1957 23.56 43.3413 23.3013 43.56C22.824 43.9563 22.3381 44.3205 22.104 44.84C21.8448 45.3573 21.5616 46.1424 21.3675 47.6229C21.2864 48.2459 21.2864 48.8203 21.2299 49.3221C21.1488 50.0016 21.0277 50.5435 21.0923 50.9221C21.1733 51.6987 21.9744 52.1035 22.0523 52.9851L23.7109 52.144L25.2725 45.9867L28.5899 43.9067L26.7125 41.8032L25.7179 42.4965L25.72 42.5003Z"
      fill="#E6DB9D" />
    <path fill-rule="evenodd" clip-rule="evenodd"
      d="M16.9696 83.9621C16.9765 83.9013 16.9835 83.8405 16.9904 83.7781C17.2325 81.6981 17.2736 80.1216 17.4512 79.1344C17.7099 77.7349 17.888 77.2144 17.8475 76.6907C17.7909 75.8496 17.7264 75.2347 17.8075 74.5872C17.9285 73.7296 18.7701 72.7104 18.7461 72.0064C18.7296 71.448 18.4464 71.0843 18.2037 70.7445C17.9611 70.4048 17.7669 70.1216 17.7669 70.1216C17.7669 70.1216 19.4256 68.9808 19.4096 64.3851C19.4435 64.3946 19.4761 64.4082 19.5067 64.4256L20.3237 66.7472L20.8821 67.4267L23.0261 71.4235L25.7851 74.1019L29.8624 76.8443L32.4192 79.6267L32.6779 87.0459L29.3365 91.3824L28.7893 92.3733C24.442 90.1909 20.4555 87.3539 16.9691 83.9616L16.9696 83.9621Z"
      fill="#E5CB7A" />
    <path fill-rule="evenodd" clip-rule="evenodd"
      d="M27.1765 91.0597C27.1765 91.0597 27.2331 90.1376 27.9936 89.5387C28.1152 89.7408 28.1957 89.9355 28.1717 90.0805C28.3093 89.8384 29.272 88.2848 31.4485 87.88C33.6251 87.4837 34.1509 85.8981 34.1509 85.8981L38.7701 81.6992L44.0533 76.8368L50.4773 74.5792L53.4795 73.8427C53.4795 73.8427 53.536 74.0613 53.4229 74.5467C53.9808 74.5067 55.2187 74.2235 56.5051 73.7701C57.0229 73.568 57.5088 73.4869 57.7675 73.7541C58.1477 74.1099 58.2043 74.9515 58.2283 75.4528C58.8512 75.3152 59.5712 74.7168 60.1483 74.7733C61.0709 74.8704 61.888 75.9547 62.8267 75.9547C64.0645 75.9547 64.6224 75.1941 65.4885 74.5952C66.0064 74.2395 66.7504 73.7952 67.1712 73.4949C68.1744 72.7584 78.7893 69.5141 78.7893 69.5141L82.5109 69.7568L83.1099 73.7536L82.7899 84.2016C82.7504 84.2395 82.7109 84.2789 82.6709 84.3168L65.7493 93.1547L42.2933 96.7504C37.0391 95.8919 31.9687 94.1479 27.2981 91.5925L27.1781 91.0592L27.1765 91.0597Z"
      fill="#D8C173" />
    <path fill-rule="evenodd" clip-rule="evenodd"
      d="M18.392 85.2912C18.7253 84.5941 19.0251 84.0112 19.0779 83.8027C19.1195 84.2229 19.1957 85.1451 19.3493 86.1253C19.0268 85.8512 18.7077 85.573 18.392 85.2907V85.2912Z"
      fill="#F1D789" />
    <path fill-rule="evenodd" clip-rule="evenodd"
      d="M35.5264 95.1237L38.56 94.28L38.8187 94.3611C38.8187 94.3611 38.9563 94.4421 38.9563 94.7168C39.3365 94.4987 39.6603 94.5387 39.8949 94.3936C40.016 94.6523 40.1371 95.5099 40.6715 95.6149C41.2293 95.7365 41.8283 95.3723 42.4352 94.9115C43.0336 94.4341 43.7152 93.8352 44.2309 93.5925C44.4202 93.9405 44.5878 94.2997 44.7328 94.6683C45.4123 94.1264 46.5936 91.9259 48.2763 91.9659C48.7626 90.8165 49.5751 89.8349 50.6133 89.1424C52.1749 88.0827 53.1536 88.0016 54.3755 88.0987C54.8608 87.4683 55.4588 86.9333 56.1392 86.5211C56.3413 86.6021 56.8997 86.9419 57.5957 86.6181C58.2997 86.2949 59.0923 85.0405 60.136 84.8789C60.6984 84.8015 61.2703 84.9216 61.7541 85.2187C61.7541 85.2187 64.7941 82.2005 66.8917 81.1973C66.8107 80.9547 66.6491 80.0405 69.1083 78.0176C69.2459 78.1392 69.1488 78.4789 69.2459 78.4976C69.2859 78.4976 69.8859 78.2389 70.6453 77.656C71.584 76.9525 72.7083 76.216 73.3877 76.0139C74.6677 75.6336 76.0256 76.4101 76.0256 76.4101C76.1411 76.3291 76.2697 76.2689 76.4059 76.232C76.7291 76.1755 76.9637 76.1349 77.1419 76.072C77.1259 76.4928 77.3605 77.2128 77.1419 77.8357C77.3952 77.9782 77.6635 78.0921 77.9419 78.1755C77.8048 78.4747 77.5051 79.2352 77.0037 79.5995C77.424 79.8016 77.4805 80.0363 78.0795 80.2395C77.8368 80.5792 77.4395 81.1621 77.2624 81.5195C77.0843 81.8997 76.4448 83.4773 76.1616 84.0757C75.8624 84.6747 75.4581 85.7749 75.2635 85.9957C75.0688 86.2165 74.3653 87.1525 73.8235 87.6133C74.3035 87.4352 76.2672 86.8368 77.1003 86.6101C76.8523 86.9739 75.5952 88.8389 74.3867 90.6325C68.6003 94.1008 62.1411 96.2959 55.4397 97.0717C48.7383 97.8475 41.9484 97.1862 35.5227 95.1317L35.5264 95.1237Z"
      fill="#E0CD81" />
    <path fill-rule="evenodd" clip-rule="evenodd"
      d="M25.92 42.2816C25.92 42.2816 25.2165 42.2816 25.0789 42.3787C24.9413 42.4757 25.7829 42.6784 26.0416 42.7755C26.3003 42.8725 26.8587 43.3173 27.0043 43.6736C27.1419 44.0133 32.0608 45.9952 32.0608 45.9952L35.5397 45.8171L36.7392 44.16L34.4576 42.1616L36.0576 37.4448L33.9381 37.7845L28.8411 40.8245L26.2843 41.8037L25.92 42.2816Z"
      fill="#DFC57C" />
    <path fill-rule="evenodd" clip-rule="evenodd"
      d="M33.56 43.8432C33.6103 43.9246 33.6811 43.9914 33.7654 44.0368C33.8496 44.0822 33.9443 44.1046 34.04 44.1019C34.76 44.1019 35.4229 44.28 35.6981 44.6437C36.1595 45.2267 37.4379 47.0875 37.4379 47.0875L40.496 48.1877L40.6933 44.5867L37.352 42.2651L33.5493 43.6645V43.8427H33.5579L33.56 43.8432Z"
      fill="#E5CC7C" />
    <path fill-rule="evenodd" clip-rule="evenodd"
      d="M32.96 45.1781C32.96 45.1781 33.5179 45.2187 34.2219 44.9595C34.9259 44.7003 36.0827 44.1424 36.5845 44.3611C37.288 44.6603 37.1424 45.5989 37.9035 46.4411C38.3643 46.9589 39.2059 46.9429 39.6832 47.5013C40.1605 48.0597 41.8027 47.8005 41.8027 47.8005L42.4256 51.1605L39.9259 54.3648L39.1083 58.3451H35.728L32.64 57.12L31.1189 53.44L31.8795 49.7184L32.96 45.1781Z"
      fill="#D2C281" />
    <path fill-rule="evenodd" clip-rule="evenodd"
      d="M39.4987 45.3397C39.5825 45.3656 39.6696 45.3792 39.7573 45.3803C39.6603 45.4613 39.4576 45.6389 39.5387 46.1003C39.6197 46.5616 39.8784 47.144 39.6603 47.4997C39.8344 47.6901 39.9643 47.9167 40.0405 48.1632C40.1781 48.56 40.2187 48.9237 41.1163 48.9808C40.9867 49.0605 40.8673 49.1556 40.7605 49.264C40.7605 49.264 41.3835 49.8059 41.6992 50.3072C42.0224 50.2933 42.88 50.0267 42.88 50.0267L43.0581 50.1483L43.4384 49.9883C43.4384 49.9883 43.0827 49.8507 43.3413 48.9851C43.584 48.2245 43.8027 48.2651 43.8213 48.2085C43.84 48.152 43.9995 47.3509 43.9995 47.0272C44.1205 46.6069 44.2176 45.3285 44.2176 45.3285L43.9589 42.5051L42.5029 41.6229L41.3189 40.48L40.2021 42.5835L39.4667 43.3168L39.4101 45.1371L39.4987 45.3397Z"
      fill="#E2C270" />
    <path fill-rule="evenodd" clip-rule="evenodd"
      d="M43.0016 42.9776C43.0016 42.9776 43.2603 43.7136 43.3579 44.28C43.3923 44.1699 43.4113 44.0556 43.4144 43.9403C43.4144 43.9403 43.6165 45.0571 43.6565 45.5184C43.7376 45.5019 43.8165 45.4779 43.8347 45.5584C43.8528 45.6389 44.0373 46.5376 43.9947 47.0389C44.3316 46.4831 44.7978 46.0169 45.3536 45.68C45.6773 45.4773 46.0576 45.2592 46.4544 45.2427C47.0773 45.2267 47.5301 45.6395 48.2747 45.6395C50.0704 45.6395 51.6971 44.3205 52.8944 43.9163C53.776 43.6165 54.5365 43.3984 55.0704 42.9125C55.3296 42.6944 55.7909 42.2091 56.2112 41.4885C56.7696 40.5285 57.352 39.6928 57.9349 39.5877C57.6712 39.6362 57.4029 39.6552 57.1349 39.6443C57.1349 39.6443 57.3131 39.4661 57.6149 39.2235C57.9168 38.9808 58.2784 38.6816 58.7957 38.6816C59.7184 38.6816 60.1792 38.8187 60.6971 38.8187C61.2149 38.8027 61.5141 38.6816 61.5141 38.6816C61.5141 38.6816 62.0565 39.0619 63.2779 39.0619C64.4997 39.0779 65.3168 39.1829 65.9563 39.24C66.5957 39.2971 68.7392 39.0619 69.3541 39.08C69.7551 39.0955 70.1487 39.1918 70.5115 39.3632L68.5291 33.6032L61.408 27.3792L57.1685 30.3808L50.6469 36.9019L44.3365 39.24L43.0176 40.7205V42.9776H43.0016Z"
      fill="#CCB360" />
    <path fill-rule="evenodd" clip-rule="evenodd"
      d="M57.1605 39.6763C57.1605 39.6763 57.3387 39.4987 57.6373 39.256C57.936 39.0133 58.3013 38.7136 58.8187 38.7136C59.7408 38.7136 60.2021 38.8512 60.72 38.8512C61.2379 38.8352 61.5371 38.7136 61.5371 38.7136C61.5371 38.7136 62.08 39.0933 63.3008 39.0933C64.5227 39.1093 65.3397 39.2144 65.9792 39.2709C66.6187 39.3275 68.7621 39.0933 69.3771 39.1109C69.7779 39.126 70.1714 39.2224 70.5339 39.3941L69.6357 36.7968L68.5925 34.8149L65.6149 31.5541C65.6149 31.5541 62.0416 29.4507 62.0144 29.4347C61.9984 29.4187 60.7765 29.0949 60.7765 29.0949L57.5403 31.0528L54.6037 38.6501L54.5472 40.2501L56.448 41.1483C56.9253 40.3483 57.4517 39.7083 57.9451 39.6272C57.4997 39.6757 57.16 39.6757 57.16 39.6757L57.1605 39.6763Z"
      fill="#D5B457" />
    <path fill-rule="evenodd" clip-rule="evenodd"
      d="M57.12 40.2187C56.8368 40.2347 56.6027 40.1781 56.5376 39.976C56.2949 39.2965 56.1008 39.1995 55.8976 39.1995C55.6944 39.1995 55.4203 39.6363 55.2576 39.6763C55.0949 39.7163 54.9019 39.1749 54.9019 39.1749L54.7237 39.0939C54.7237 39.0939 53.68 39.7733 52.944 40.5744C52.208 41.3755 51.0021 42.7349 50.4603 42.9771C49.9184 43.2192 48.0571 43.3008 47.4203 43.4384C46.7835 43.576 46.0773 44.0373 45.9803 44.1424C45.8832 44.2475 46.264 44.3605 46.3205 44.4656C46.3771 44.5627 45.6971 44.5221 45.6405 44.6256C45.6005 44.7067 45.8005 45.1675 45.8997 45.4021C46.0733 45.3158 46.2638 45.2689 46.4576 45.2645C47.0805 45.2485 47.5339 45.6613 48.2779 45.6613C50.0741 45.6613 51.7003 44.3424 52.8976 43.9376C53.7797 43.6384 54.5403 43.4197 55.0741 42.9344C55.3328 42.7163 55.7941 42.2304 56.2149 41.5104C56.5221 41.0171 56.8219 40.5557 57.1216 40.216L57.12 40.2187Z"
      fill="#D2B257" />
    <path fill-rule="evenodd" clip-rule="evenodd"
      d="M31.36 80.2592C31.36 80.2592 31.2 79.6603 29.7173 78.1152C29.2965 77.6784 29.0379 77.3152 28.7547 77.0555C28.0507 76.3915 27.6379 76.2139 27.1365 75.8336C26.0363 75.0165 24.8389 75.0165 23.9168 74.0133C22.9947 73.0101 21.92 71.0933 21.1733 69.1344C20.4373 67.1765 20.2347 66.5536 20.2347 66.4971C20.2347 66.4405 20.4373 66.0603 20.696 66.1168C20.9547 66.1733 20.9547 66.6747 21.0197 66.7963C21.1486 66.9947 21.2948 67.1814 21.4565 67.3541C21.8368 67.7915 22.3787 68.3141 22.6539 69.0939C22.5973 68.4304 22.3707 67.6944 22.3707 67.6944C22.3707 67.6944 23.7947 68.5925 25.008 69.5307C26.2299 70.4693 26.7312 70.7931 27.088 71.3915C27.4448 71.9899 28.2853 73.568 28.688 74.0293C29.0907 74.4907 34.608 76.2299 34.608 76.2299L37.2325 78.1867L38.5355 81.0427L37.5157 82.6427L35.5579 83.0635L32.3781 81.6395L31.36 80.2587V80.2592Z"
      fill="#D2B159" />
    <path fill-rule="evenodd" clip-rule="evenodd"
      d="M24.296 70.4208C24.296 70.4208 24.9595 71.4805 26.5776 72.4837C28.0341 73.3659 30.3397 74.1669 32.3952 74.6443C33.576 74.9275 34.7573 75.1456 35.8171 75.1621C38.6731 75.2021 40.6389 74.3856 43.0747 74.1184C44.3936 73.9808 46.0117 73.8757 47.6944 73.4784C49.8544 72.9605 51.1328 72.3776 52.8725 71.5584C54.1344 70.976 55.2917 70.5392 56.2299 69.9808C57.5488 69.2043 58.5115 68.3387 59.6283 68.08C59.4907 68.4603 59.3451 69.1397 58.2448 69.8437C58.8272 69.8272 59.6283 69.7872 59.6283 69.7872C59.6283 69.7872 58.8517 70.248 57.4843 71.2837C56.6427 71.9237 55.5264 73.0069 54.3856 73.7269C53.6491 74.1883 52.848 74.5269 52.3221 74.8032C51.0421 75.5072 50.5259 75.8629 49.6848 76.7232C49.984 76.7072 50.0085 76.7232 50.0085 76.7232C50.0085 76.7232 48.9483 76.8608 48.1883 77.2651C48.0283 77.2651 47.7509 77.2085 47.2656 77.3461C46.8853 77.4672 46.3835 77.7429 45.8661 77.888C45.1296 78.1067 44.8875 78.0096 44.8875 78.0096L45.0085 78.2523C45.0085 78.2523 44.0485 78.2357 43.7285 78.2683C43.7851 78.2843 43.7691 78.3088 43.7691 78.3088C43.7129 78.3182 43.6587 78.3373 43.6091 78.3653C43.4551 78.4651 43.2857 78.5388 43.1077 78.5835C43.0107 78.5995 42.9296 78.5995 42.808 78.624C42.8485 78.7211 43.1643 79.264 43.3099 79.584C43.1888 79.6651 41.368 81.0405 41.368 81.0405C41.4245 81.1294 41.4706 81.2244 41.5056 81.3237C41.5621 81.5013 41.5867 81.7605 41.6432 81.8816C41.7803 82.1243 41.8613 82.1648 41.8613 82.1648C41.8613 82.1648 41.6432 82.2053 41.2624 82.3024C40.9392 82.3835 40.5424 82.5205 39.9824 82.6016C39.8106 82.6239 39.6377 82.6375 39.4645 82.6421C39.5456 82.8203 39.9013 83.4997 39.2459 84.2843C38.5904 85.0688 38.3883 85.1829 38.1861 85.6843C38.0844 85.6073 37.9761 85.5395 37.8624 85.4816C37.6443 85.3845 37.3445 85.2395 37.2395 85.0448C37.1782 85.3042 37.0971 85.5584 36.9968 85.8053C36.7947 86.3472 36.4955 86.8816 36.4389 87.2859C36.2203 87.0432 35.816 86.5659 35.2576 86.6629C34.6992 86.76 34.2544 87.5205 34.1573 87.7392C34.1573 87.6016 34.0603 87.4965 34.0363 87.6581C34.0197 87.8363 33.7125 89.6965 31.9973 91.2016C31.9813 90.8213 31.9813 89.9797 31.9408 89.7051C31.7808 89.8651 31.5851 90.1013 30.4197 90.6032C29.2789 91.1045 29.4597 91.6064 29.4597 91.6064C29.4597 91.6064 29.3627 90.8064 29.9776 89.9637C30.6005 89.1227 30.9808 88.7259 30.9808 88.6613C30.9707 88.5956 30.9427 88.534 30.8997 88.4832C30.8187 88.4021 30.6571 88.3051 30.6571 88.2405C30.7541 88.2005 31.7168 87.7392 31.6603 86.784C31.6037 85.9269 31.24 85.4816 30.9808 85.1664C30.9408 85.1259 31.3616 84.8267 31.3045 84.7296C31.264 84.6731 30.7467 84.2923 30.6816 84.0896C30.6969 83.9687 30.724 83.8495 30.7627 83.7339C30.8192 83.5557 30.8597 83.4341 30.8437 83.3131C30.8032 83.1109 30.5845 82.5525 30.52 82.496C30.5765 82.512 30.9808 82.496 30.9808 82.496C30.9808 82.496 30.6576 81.9781 30.6005 81.7355C30.5435 81.4928 30.4224 80.8533 30.3579 80.7323C30.4955 80.7483 30.8352 80.7723 30.8352 80.7323C30.8517 80.6107 30.536 80.4085 30.6752 80.2523C30.7723 80.2683 30.9584 80.3493 31.136 80.576C31.0389 80.3168 30.8773 79.8155 30.5371 79.6133C30.6971 79.5568 31.2411 79.4107 31.7184 79.6939C32.1957 79.9771 32.3584 80.3733 32.3584 80.3733C32.3584 80.3733 32.6416 80.592 33.0789 80.9157C33.5803 81.312 34.2192 81.8757 35.2389 82.2747C35.4576 82.3963 36.0155 82.3963 36.4203 82.3152C36.5965 82.2732 36.7655 82.2051 36.9216 82.1131C36.978 82.0799 37.0377 82.0527 37.0997 82.032C37.0128 81.8574 36.9127 81.6897 36.8005 81.5301C36.9381 81.5301 37.0997 81.5467 37.0997 81.5467C37.0997 81.5467 37.1968 81.328 36.76 80.9067C36.8571 80.8096 36.9787 80.7467 36.9787 80.5829C36.8411 80.5669 36.5984 80.3648 36.5419 80.2837C36.6224 80.2272 36.744 80.0411 36.8816 79.9845C36.76 79.8875 36.4608 79.4827 36.3232 79.4427C36.4546 79.3939 36.5818 79.3343 36.7035 79.2645C36.7035 79.2645 36.024 79.0864 35.8053 78.9408C35.5867 78.7808 35.2635 78.504 35.0693 78.4229C34.8667 78.3419 34.5109 78.3019 34.3653 78.1397C34.5024 78.1803 34.7211 78.1397 34.8832 78.1397C35.0043 78.1397 35.0613 78.1557 35.1013 78.1557C35.0853 78.0992 35.0853 77.9776 35.4011 77.9376C35.5529 77.9147 35.7003 77.8683 35.8379 77.8C35.8379 77.8 35.5381 77.784 35.1979 77.4603C34.8576 77.1365 34.5749 76.8779 34.3808 76.8373C34.1787 76.7968 33.7984 76.9749 33.5637 76.9584C33.24 76.9184 33.1024 76.7563 33.1024 76.7563C33.1024 76.7563 32.0267 76.8533 29.64 75.3973C27.5765 74.1349 26.6784 73.0187 26.6784 73.0187C26.4853 72.9486 26.2986 72.8619 26.1205 72.7595C25.344 72.3552 24.2677 71.5136 24.3003 70.4128L24.296 70.4208Z"
      fill="#C2A44D" />
    <path fill-rule="evenodd" clip-rule="evenodd"
      d="M54.0613 21.8608C54.2485 21.9216 54.4148 22.0338 54.5413 22.1845C54.9216 22.6213 55.1643 23.4464 54.2987 24.3285C54.6384 24.4496 54.7787 24.4885 55.0752 24.4496C54.776 24.8059 54.0965 25.5664 54.056 26.2299C54.0155 26.7717 54.3552 26.9339 54.3552 26.9339C54.3552 26.9339 53.8373 27.5323 53.8133 28.5339C54.0579 28.2581 54.3255 28.0036 54.6133 27.7733C55.2123 27.296 56.0373 26.7541 56.5957 26.4144C56.5881 26.5568 56.6073 26.6993 56.6523 26.8347C56.6523 26.8347 57.6955 25.9771 58.5723 26.3579C58.9685 26.536 58.7904 27.0939 58.7904 27.0939C58.7904 27.0939 59.3328 26.8917 59.7131 27.272C60.0933 27.6523 60.6309 28.6331 60.9067 29.0133C61.0277 29.1915 61.3435 29.5312 61.6667 30.0571C62.1082 30.7933 62.4769 31.5708 62.7675 32.3787C62.7835 31.9579 62.8885 31.3029 64.0864 31.7152C65.2837 32.136 66.6427 33.0181 67.7835 34.7552C68.9243 36.4923 69.2069 38.4533 69.7813 39.2C70.3637 39.92 70.9627 41.1173 71.0032 41.6192C71.0437 42.1211 70.8251 43.7387 72.0224 48.1157C72.3621 46.7568 72.88 43.7387 72.88 43.7387L73.1632 41.0768L73.4869 32.8405L64.8864 25.6955L58.1632 20.8165L53.7861 21.2373L54.0608 21.8603L54.0613 21.8608Z"
      fill="#CAA13E" />
    <path fill-rule="evenodd" clip-rule="evenodd"
      d="M70.0405 34.1179C70.0405 34.1179 69.9189 33.3179 67.8965 31.9579C65.8736 30.6149 64.296 30.6149 62.84 29.4741C61.7232 28.576 60.5584 26.5125 59.8 25.8331C59.0635 25.1616 58.9424 23.2197 58.9424 23.2197L61.4261 21.1397L65.12 15.8005L68.2427 12.3621L69.7392 14.4421L71.8192 16.8853L72.976 21.7883L73.3968 28.9648L70.0368 34.1184L70.0405 34.1179Z"
      fill="#B59544" />
    <path fill-rule="evenodd" clip-rule="evenodd"
      d="M72.5408 42.72C72.602 41.6317 72.4676 40.5412 72.144 39.5003C71.6107 37.8416 70.4453 34.8965 69.904 33.7936C69.6853 32.5717 69.8475 32.4747 70.0821 32.3371C70.3168 32.1995 71.1989 31.6971 71.6821 29.9344C72.1653 28.1717 73.6645 28.1141 73.6645 28.1141L74.5867 27.4347L75.9867 30.9376L77.208 34.1013L77.5883 36.5205L77.8715 38.5835L77.208 42.9445L73.9317 45.9056L72.5403 42.72H72.5408Z"
      fill="#C89D3A" />
    <path fill-rule="evenodd" clip-rule="evenodd"
      d="M26.8208 91.3275V91.2379C26.8889 91.1953 26.949 91.1412 26.9984 91.0779C27.0549 90.9968 27.096 90.8997 27.136 90.8757C27.2171 90.8352 27.5973 90.7157 27.7995 90.7541C28.0016 90.7925 28.536 91.0128 28.8192 90.9968C29.4016 90.9808 30.0811 90.5355 31.1573 90.7381C32.7755 91.0373 33.1557 92.1376 34.0944 92.7605C34.7344 93.1979 35.3968 93.0032 35.4939 93.0032H35.712C35.7525 93.0032 36.0517 92.6635 36.2139 92.68C36.5376 92.696 36.5696 92.9632 36.7717 92.9792C37.2491 93.0357 38.1717 92.7365 38.6331 92.8581C38.7699 92.901 38.8943 92.9763 38.9957 93.0776C39.0971 93.1789 39.1725 93.3032 39.2155 93.44C39.3125 93.7392 39.2315 94.1195 38.9968 94.3381C38.4955 94.7989 38.0181 95.2363 37.9211 95.6181C38.0445 95.7123 38.1631 95.8127 38.2763 95.9189C34.2732 94.899 30.4216 93.3569 26.8208 91.3323V91.3275Z"
      fill="#CEB052" />
    <path fill-rule="evenodd" clip-rule="evenodd"
      d="M69.9029 75.1621C69.9029 75.1621 71.1648 73.4795 71.6021 72.6459C72.0389 71.7867 70.2187 60.9067 70.2187 60.9067L73.8757 48.9248L73.7781 45.0251C73.7781 45.0251 73.9563 41.4245 74.3771 39.8629C74.8789 40.7611 76.4405 41.8453 76.7803 42.4197C76.9403 41.3189 77.4837 38.9973 77.4032 36.5216C77.7024 36.9824 78.4224 41.6187 78.4224 41.6187L79.1424 44.7413L80.0811 48.0587L81.1248 51.5621L81.7477 53.9813L82.1035 54.5637L82.4032 55.5829L82.6864 56.6837L83.5035 59.2645L83.9835 61.384L84.3637 65.2272C84.4464 65.5215 84.506 65.8218 84.5419 66.1253C84.5579 66.5461 84.4853 66.7888 84.4853 66.8619C84.4853 66.9349 84.6229 67.784 84.5664 68.4235C84.4853 69.0635 84.4853 69.5643 83.9835 70.0235C83.4816 70.4827 83.1664 73.2272 83.1664 73.2272L82.2683 72.6288C82.2683 72.6288 82.4464 71.8112 82.0256 71.0672C81.6048 70.3232 80.7877 70.1691 80.3264 70.2907C79.8656 70.3877 78.9435 70.5328 78.6437 70.792C78.3605 71.0507 77.6651 71.8517 77.0256 72.216C76.2256 72.696 74.9221 72.7339 74.2267 72.8955C73.5227 73.0555 72.7461 73.5355 71.9285 74.0928C71.2875 74.5078 70.6107 74.8648 69.9061 75.1595L69.9029 75.1621Z"
      fill="#CCA847" />
    <path fill-rule="evenodd" clip-rule="evenodd"
      d="M69.9029 92.84C69.9029 92.84 69.9563 92.8747 70.0592 92.9312C75.8072 90.2382 80.9575 86.4208 85.2059 81.7045C85.1595 80.0672 85.0992 78.3888 85.0331 77.7669C84.896 76.448 84.9931 75.1051 84.9525 74.3285C84.912 73.552 84.4752 70.3883 84.2731 69.5712C84.0544 68.7541 83.6331 68.3493 83.5691 68.3493C83.5125 68.3659 83.1723 69.8869 83.1723 70.2693C83.1723 70.6517 83.0912 71.5723 83.0912 71.8069C83.0347 71.7904 83.0107 71.6469 83.0107 71.5883C82.9296 71.7904 82.8325 72.1467 82.792 72.1872C82.7515 72.2277 82.8485 71.8475 82.792 71.7664C82.7355 71.6853 82.632 71.7259 82.6544 71.5237C82.664 71.4039 82.6829 71.2849 82.7109 71.168C82.7109 71.168 82.4683 71.5237 82.2907 72.4299C82.1125 73.328 82.1125 73.3525 82.048 73.4331C81.9915 73.5307 81.6677 73.8539 81.6512 73.9755C81.6352 74.1936 81.9509 74.4123 81.9749 74.5333C81.9909 74.736 81.6917 75.6741 81.5947 76.1333C81.4976 76.5925 81.5381 77.4923 81.4347 77.9536C81.3536 78.3744 81.2747 78.6171 80.9979 78.7947C81.2 78.8352 81.3941 78.8917 81.3941 78.8917C81.3941 78.8917 81.6773 80.0891 80.9573 81.1088C80.6987 81.4645 80.6341 81.6267 80.3589 81.9504C79.8165 82.5488 79.3957 83.2304 79.3552 83.6736C79.3272 83.5428 79.3083 83.4102 79.2987 83.2768C79.2987 83.2768 78.4576 84.256 78.1013 84.8144C77.6405 85.5344 77.0011 85.4939 76.8213 85.672C76.6416 85.8501 76.6027 86.1733 76.6613 86.4325C76.5013 86.4725 76.2005 86.5296 75.9979 87.1525C75.9008 87.4757 75.6581 87.7925 75.2779 88.0101C74.8976 88.2277 74.4363 88.2933 74.2016 88.3499C74.4037 88.4064 74.4848 88.4064 74.5819 88.4709C74.4608 88.6731 73.9024 88.9888 73.2795 89.3936C72.6565 89.7739 72.3568 90.3317 72.2032 90.696C72.0432 91.0357 71.8069 91.2544 71.4267 91.2949C71.5867 91.392 71.8235 91.6181 71.9445 91.6912C71.7664 91.7317 71.4645 91.7317 70.9253 92.1931C70.3589 92.6624 70.1648 92.8 69.9056 92.8405L69.9029 92.84Z"
      fill="#C39D3C" />
    <path fill-rule="evenodd" clip-rule="evenodd"
      d="M58.6453 96.5893C58.9551 96.3722 59.2907 96.1943 59.6443 96.0597C60.9061 95.5584 62.2411 95.4613 62.7669 95.2997C63.2688 95.1397 63.6651 94.9189 64.288 94.7979C64.2715 94.9397 64.2576 95.0731 64.2427 95.1989C62.4061 95.7763 60.536 96.2406 58.6427 96.5893H58.6453Z"
      fill="#D2BA6B" />
    <path fill-rule="evenodd" clip-rule="evenodd"
      d="M81.92 63.3984C81.92 63.3984 81.6613 64.7979 81.2 65.68C80.7387 66.5621 80.24 67.7835 80.24 67.7835C80.243 67.5082 80.2756 67.2341 80.3371 66.9659C79.7547 67.3056 78.3387 68.1232 77.9371 68.4869C77.5568 68.8267 76.9173 69.4256 76.7557 69.7088C77.136 68.5925 77.5323 67.5893 77.5973 67.128C77.0149 67.5488 74.296 69.7899 72.8805 71.2704L68.4709 74.8384C67.9621 75.1129 67.438 75.3583 66.9013 75.5733C66.1413 75.8965 65.2432 76.1717 64.5797 76.4309C64.7579 75.9536 65.0405 75.5323 65.4373 75.128C65.8581 74.7317 67.12 73.3643 67.3141 72.728C67.4923 72.0645 67.5328 71.6683 67.2981 71.1099C67.0795 71.1664 66.5781 71.1909 66.2384 71.288C65.8987 71.3851 65.5344 71.7488 65.5344 71.7488C65.5344 71.7488 65.7931 70.2683 66.3515 68.8688C65.9307 68.8848 65.2107 69.0059 65.2107 69.0059C65.2107 69.0059 66.2139 67.3232 67.9307 66.1504C67.4049 66.2623 66.8904 66.4219 66.3936 66.6272C65.3904 67.048 64.2901 67.6709 63.4731 68.0107C63.9339 67.3707 67.1701 62.752 69.096 58.4475C71.016 54.1515 71.7333 53.0512 72.1541 50.7456C72.3723 49.6048 72.3141 47.9189 72.3723 46.4091C72.4288 44.912 72.6149 43.5691 72.4939 42.6709C72.9952 43.2939 74.8725 45.0496 74.9371 48.9739C74.9936 52.8976 73.1413 58.1973 71.1749 61.0528C71.6549 61.1904 72.8987 61.3525 74.1765 59.1328C75.4544 56.9131 75.4389 56.2933 75.9003 55.3707C75.9568 55.832 75.9403 55.9936 75.9403 55.9936C75.9403 55.9936 77.8016 53.7365 78.6832 50.8965C78.8613 52.1184 79.3872 53.1947 78.5616 55.4357C77.8256 57.4581 76.8629 57.952 76.8629 57.952C76.8629 57.952 77.3403 57.8709 78.0437 57.4501C78.1653 57.7493 78.1413 58.0901 78.3435 58.2107C78.5456 58.3312 78.8208 58.5344 78.8613 58.7285C79.0795 58.4048 79.4192 57.992 79.5248 57.6848C79.4437 58.3248 79.3872 61.1232 79.6848 62.5472C80.3083 62.4907 80.9472 62.4501 81.384 61.3253C81.0848 62.4261 81.0848 63.0891 81.2869 64.0277C81.6187 63.8016 81.9179 63.3968 81.9179 63.3968L81.92 63.3984Z"
      fill="#C0993A" />
    <path fill-rule="evenodd" clip-rule="evenodd"
      d="M60.8981 18.8027C60.8981 18.8027 60.2752 19.0613 59.2155 19.0613C58.2933 19.0613 58.552 18.7056 57.112 18.7056C54.8955 18.7056 47.1525 19.9856 45.7931 19.9675C44.9109 19.9515 48.7701 20.3477 48.7701 20.3477L58.6331 20.4853L60.6149 20.3253L61.3515 18.8267L60.8981 18.8027Z"
      fill="#A88F33" />
    <path fill-rule="evenodd" clip-rule="evenodd"
      d="M35.3237 38.0827C35.3237 38.0827 34.0613 39.0453 33.5275 39.7819C32.9936 40.5184 32.7104 41.0032 32.1035 41.6021C32.2459 41.6076 32.3883 41.5884 32.5243 41.5456C32.5243 41.5456 32.5243 41.7056 32.4272 41.7477C32.5111 41.7383 32.596 41.7478 32.6757 41.7755C32.7555 41.8032 32.828 41.8484 32.888 41.9077C32.7099 42.0048 32.2245 42.4907 32.6048 43.0651C32.888 43.5019 33.4869 43.5419 33.4869 43.5419C33.4869 43.5419 33.3493 43.9387 33.9237 43.8981C35.1616 43.8416 36.5451 43.2992 37.184 43.4368C37.824 43.5968 38.1877 43.6555 38.6405 44.4405C39.1205 45.2171 39.5387 45.3387 39.5387 45.3387C39.5387 45.3387 39.8219 44.6181 39.7573 43.5424C39.9895 42.9625 40.1182 42.3464 40.1376 41.7221L39.7168 38.6235L37.8805 36.3013L35.5019 37.6203L35.3237 38.0811V38.0827Z"
      fill="#E3C571" />
    <path fill-rule="evenodd" clip-rule="evenodd"
      d="M37.5808 37.6213C37.5808 37.6213 37.7589 38.0421 38.5035 38.0821C38.4224 38.2603 38.4224 38.2848 38.4469 38.4219C38.4629 38.5595 38.4869 38.7616 38.4869 38.7616C38.5689 38.7219 38.643 38.6677 38.7056 38.6016C38.7461 38.7797 38.6651 39.0624 38.7056 39.2651C38.7306 39.3883 38.7713 39.5079 38.8267 39.6208C38.8385 39.5931 38.852 39.5662 38.8672 39.5403C38.8832 39.4997 39.0272 39.9771 39.4256 40.3403C39.4252 40.2844 39.439 40.2294 39.4656 40.1803C39.4717 40.2817 39.5053 40.3796 39.5627 40.4635C39.5328 40.4493 39.5056 40.4301 39.4821 40.4069C39.4821 40.4069 39.5221 41.6869 39.7408 42.3488C39.7773 42.306 39.8098 42.26 39.8379 42.2112C39.8379 42.1712 39.8219 42.5675 39.7813 42.8512C39.7248 43.1344 39.7653 43.5307 39.7653 43.5307C39.9112 43.4158 40.0715 43.3206 40.2421 43.2475C40.4848 43.1499 40.8821 42.8507 41.1243 42.1872C41.2647 41.8115 41.373 41.4245 41.448 41.0304C41.5262 41.181 41.5802 41.343 41.608 41.5104C41.6245 41.7125 42.0048 41.6075 42.0048 41.6075L42.0859 40.7253L42.5659 38.7269L43.0027 37.4891L45.1061 34.2128L48.9067 31.2859L52.224 32.0464L55.0229 28.2437L50.2011 25.3472L45.6379 25.8245L41.4965 31.5605L38.1797 36.7632L37.5808 37.6208V37.6213Z"
      fill="#D8B65B" />
    <path fill-rule="evenodd" clip-rule="evenodd"
      d="M61.4805 29.3205C61.4805 29.3205 61.1973 29.3771 60.3803 29.8005C59.5632 30.224 58.9968 30.3584 58.6811 30.9813C58.3653 31.6043 58.3413 32.0981 58.3413 32.0981C58.3413 32.0981 58.8997 31.8555 59.2235 31.7744C59.5632 31.6939 59.9435 31.7179 59.9029 31.8555C59.864 31.9498 59.81 32.0372 59.7429 32.1141C59.7429 32.1141 60.3829 32.0981 60.3659 32.4139C60.3488 32.7296 60.2448 33.0773 60.1237 33.2309C60.0021 33.3909 59.5008 33.6277 59.4443 33.8139C59.3067 34.1941 59.5008 34.2101 59.4277 34.5173C59.3712 34.8171 59.1045 35.3995 58.2304 36.4187C57.3323 37.4384 56.9504 38.1584 56.9504 38.1584C56.9504 38.1584 56.5136 37.3413 56.2869 36.6373C56.1269 36.7179 55.2677 37.1952 55.2677 37.1952L53.2773 30.2619L53.3173 29.8005C53.3173 29.8005 53.4955 29.5824 53.536 29.1776C53.2368 29.0805 53.1963 28.9995 52.7995 28.6197C52.4027 28.24 52.0795 27.7781 51.4165 27.4624C51.3195 27.2843 51.1979 27.0421 50.7125 26.9445C50.2272 26.8469 49.936 26.7669 49.936 26.7669C49.936 26.7669 50.1947 26.6693 50.3163 26.4672C50.0165 26.5077 49.7744 26.6048 49.1189 26.5888C48.4555 26.5723 48.3824 26.5483 48.0187 26.6048C47.6549 26.6613 47.2187 26.8235 47.056 26.2651C46.8779 26.1275 46.4976 26.2491 46.1739 26.7259C45.8501 27.2027 45.7371 27.5835 45.1141 27.7696C45.0703 28.0442 44.9742 28.3078 44.8309 28.5461C44.6528 28.8459 44.3696 29.1451 43.9893 29.5899C43.3904 30.2939 43.4875 31.4507 42.5328 32.3328C41.5701 33.2144 42.6928 29.8891 42.6928 29.8891L44.2299 26.2091L48.6069 21.9291L55.4032 21.4683L56.0667 24.9883L59.384 26.1291L61.4795 29.3248L61.4805 29.3205Z"
      fill="#D3AE4D" />
    <path fill-rule="evenodd" clip-rule="evenodd"
      d="M62.5568 30.0971L59.7008 25.9792L57.7024 24.4416C57.7024 24.4416 56.2784 21.8208 56.1813 21.7397C56.1003 21.6832 54.7573 21.5376 53.8997 21.4811L54.0597 21.8773C54.2469 21.9381 54.4132 22.0503 54.5397 22.2011C54.92 22.6379 55.1627 23.4629 54.2971 24.3451C54.6368 24.4661 54.7771 24.5051 55.0736 24.4661C54.7744 24.8224 54.0949 25.5829 54.0544 26.2464C54.0139 26.7883 54.3536 26.9499 54.3536 26.9499C54.3536 26.9499 53.8357 27.5488 53.8117 28.5499C54.0563 28.2741 54.3239 28.0197 54.6117 27.7893C55.2107 27.3093 56.0357 26.7696 56.5941 26.4299C56.5865 26.5724 56.6057 26.7152 56.6507 26.8507C56.6507 26.8507 57.6939 25.9931 58.5707 26.3733C58.9669 26.5515 58.7888 27.1099 58.7888 27.1099C58.7888 27.1099 59.3312 26.9077 59.7115 27.288C60.0917 27.6683 60.6336 28.6469 60.9088 29.0277C61.0299 29.2059 61.3456 29.5456 61.6688 30.0709C62.1104 30.8073 62.4791 31.585 62.7696 32.3931C62.7856 32.0693 62.8507 31.6165 63.4096 31.6165L62.56 30.0955L62.5568 30.0971Z"
      fill="#CAA13E" />
    <path fill-rule="evenodd" clip-rule="evenodd"
      d="M19.7413 41.7963C19.7413 41.7963 19.5392 41.2944 19.7413 40.3157C19.9435 39.3371 20.2592 38.8757 20.3643 37.4357C20.4693 35.9957 21.408 34.1995 21.408 34.1995L24.0048 33.0187L25.8416 33.52L26.3835 35.9797L24.0613 37.2597C24.0613 37.2597 23.9403 37.8016 23.2848 38.2384C22.6293 38.6752 21.7232 39.0149 21.5051 39.4603C21.3747 39.733 21.2795 40.0212 21.2219 40.3179C21.2219 40.3179 20.5584 40.1803 20.1621 40.6171C19.7413 41.0624 19.7573 41.4587 19.7413 41.7984V41.7963Z"
      fill="#F4EFC8" />
    <path fill-rule="evenodd" clip-rule="evenodd"
      d="M24.984 41.1408C24.984 41.1408 24.7653 41.2784 24.6037 41.6208C24.4437 41.3621 24.0613 39.8245 24.0453 38.4411C24.0293 37.0576 23.9467 36.7147 24.2667 36.2379C24.5867 35.7611 25.8416 35.2587 25.6635 34.4C25.4853 33.5829 24.7408 33.2432 23.8267 33.4779C23.1867 33.6379 22.7104 34.9989 22.0469 35.6784C21.5451 36.1963 20.9467 36.1152 20.7851 36.3984C20.5664 36.7787 20.7685 37.1589 20.704 37.4016C20.6875 37.4827 20.4853 37.9195 20.1211 38.4453C19.3851 39.5051 18.1392 41.0021 17.9771 42.3451C18.0336 41.5845 17.9936 41.5685 18.1957 40.7269L18.0741 40.5248L18.8741 37.9035L19.392 35.7435L20.5493 32.1264L22.5877 28.4293L24.5701 26.2123L26.6331 26.3499L26.8757 29.4485L28.0571 35.2661L30.5408 38.3243L26.56 41.0032L24.9824 41.1408H24.984Z"
      fill="#EBCC73" />
    <path fill-rule="evenodd" clip-rule="evenodd"
      d="M26.2219 42.24C26.2219 42.24 25.8821 42.3211 25.7605 42.2565C25.6389 42.192 25.5184 42.1189 25.5584 42.0379C25.5984 41.9568 25.8171 41.8197 25.8171 41.7547C25.8216 41.6959 25.803 41.6376 25.7652 41.5923C25.7275 41.547 25.6736 41.5182 25.6149 41.512C25.4288 41.488 25.3723 41.6091 25.3723 41.6091C25.3723 41.6091 25.1941 41.472 25.0491 41.4491C25.1349 41.4386 25.2213 41.433 25.3077 41.4325C25.0842 41.3313 24.847 41.2632 24.6037 41.2304C24.8059 41.1093 25.2027 40.7531 25.4613 40.7531C25.72 40.7531 25.8821 40.7131 25.8416 40.5755C25.8011 40.4379 25.5989 40.2357 25.3808 40.1547C25.4613 40.0576 25.5184 39.912 25.3243 39.5147C25.1216 39.1184 25.2027 38.8512 25.2677 38.7547C25.3243 38.6331 25.5264 38.4149 25.6235 38.2773C25.7205 38.1397 25.8016 37.9536 25.9632 37.8565C26.0443 37.8 26.3029 37.6965 26.5621 37.5979C26.8453 37.5008 27.08 37.3792 27.2416 37.5008C27.4197 37.6219 27.3387 37.784 27.3387 37.784C27.3387 37.784 27.8971 37.5813 28.3984 37.8405C28.9003 38.0827 30.1221 38.2368 30.1221 38.2368L30.56 39.1189L27.6635 41.6027L26.4661 42.2016L26.2235 42.2416L26.2219 42.24Z"
      fill="#E5C66B" />
    <path fill-rule="evenodd" clip-rule="evenodd"
      d="M30.2427 38.1797C30.2427 38.1797 29.3445 38.7787 29.1424 38.9968C29.2635 39.0133 29.4656 39.0944 29.3845 39.2155C29.2875 39.3365 28.7051 39.7573 28.3813 40.1541C28.0416 40.5504 27.7179 41.0523 27.6048 41.2949C27.4837 41.5131 26.5611 42.1525 26.2459 42.2331C26.9093 42.2331 28.2443 41.416 28.7456 41.416C28.7296 41.6587 28.8832 41.9339 29.1664 41.9579C29.4496 41.9819 30.2667 42.136 31.3669 41.4565C32.4672 40.7931 32.1035 40.2992 32.5643 39.976C33.4464 39.3931 33.8021 38.8752 34.2875 38.552C34.7728 38.2288 35.024 38.1552 35.024 38.1552C35.024 38.1552 35.04 37.9125 35.184 37.9371C35.2234 37.9416 35.2608 37.9568 35.2922 37.9811C35.3236 38.0053 35.3478 38.0377 35.3621 38.0747C35.3621 38.0747 36.2037 37.4757 37.2821 37.3141C37.257 37.3029 37.2368 37.2828 37.2256 37.2576C37.2256 37.2576 37.3061 37.2171 37.3227 37.1765C37.3227 37.1765 37.3792 37.0955 37.4197 37.136C37.4603 37.1765 37.5168 37.4757 37.5979 37.5973C37.776 37.5163 38.1157 36.7557 38.1157 36.7557L38.9333 34.4176V32.2816L38.2933 32.4032L33.4933 34.4416L30.5803 37.4597L30.2405 38.1797H30.2427Z"
      fill="#E6BD62" />
    <path fill-rule="evenodd" clip-rule="evenodd"
      d="M44.0613 27.7024C44.321 27.6394 44.5699 27.5384 44.8 27.4027C44.7029 27.6619 44.7029 27.9451 44.2821 28.56C43.8613 29.1749 43.8453 29.264 43.5056 29.9029C43.1659 30.5664 43.1253 31.5211 42.8016 31.9413C42.9467 31.8708 43.1024 31.8245 43.2624 31.8043C43.2624 31.8043 42.9392 32.0875 42.8016 32.3867C42.664 32.6859 42.4213 33.3088 41.8229 33.6896C41.2245 34.0704 40.4635 34.3125 39.6464 35.2107C38.8288 36.0923 37.9877 37.2091 37.5664 37.6107C37.7851 37.2304 38.0843 36.4699 38.1653 35.9685C38.2464 35.4672 38.1488 34.8677 38.2864 34.2048C38.424 33.5419 38.424 33.064 39.0864 31.9067C39.7488 30.7493 40.8827 26.7285 40.8827 26.7285L43.3259 25.952L44.0624 27.6997L44.0613 27.7024Z"
      fill="#B6933F" />
    <path fill-rule="evenodd" clip-rule="evenodd"
      d="M42.2976 26.2219C42.2976 26.2219 41.5616 27.2816 41.3595 28.2203C41.1573 29.1589 41.3429 29.0779 41.2219 29.5392C41.1495 29.8205 41.1495 30.1155 41.2219 30.3968C41.4768 29.9862 41.8258 29.6421 42.24 29.3931C42.936 28.9728 43.5024 28.6731 43.84 28.3173C44.1797 27.9371 44.4629 27.3141 45.1989 26.8368C44.8997 26.7963 44.4789 26.6587 44.3989 26.6768C44.6987 26.3371 45.5963 25.8192 46.5024 25.1963C47.4005 24.5563 47.344 24.2981 48.8005 23.6592C48.3232 23.7403 48.0965 23.6187 47.6997 23.6592C47.8597 23.3195 48.4197 23.1573 48.9797 22.5995C49.5397 22.0416 48.624 21.216 48.624 21.216L44.3573 23.7968L42.2944 26.224L42.2976 26.2219Z"
      fill="#C49937" />
    <path fill-rule="evenodd" clip-rule="evenodd"
      d="M30.72 24.296L30.8171 23.5195L32.0389 21.5616L33.3173 18.1232V13.4224L33.2203 10.704L33.4224 8.92372L33.576 8.35786L33.7381 8.13919L34.7813 8.68106L36.2219 10.6389L36.3595 14.4176L34.9595 20.3803L30.9627 24.7413L30.72 24.296Z"
      fill="#DFC068" />
    <path fill-rule="evenodd" clip-rule="evenodd"
      d="M33.8997 7.92053C33.8997 7.92053 33.2597 7.93707 33.1232 10.5989C32.9867 13.2608 32.9205 14.6603 32.8235 15.9792C32.7264 17.2981 32.5003 18.0987 32.3867 18.8757C32.2731 19.6528 32.2085 20.712 31.8448 21.3595C31.6848 21.6587 31.3429 22.5973 30.5419 23.3013C29.6437 24.0779 28.3019 24.6203 28.0987 24.6608C27.7424 24.7413 25.9381 24.9195 25.2021 25.3243C24.9435 25.4619 24.4981 25.6235 24.0048 26.0848C23.0256 26.9664 21.7232 28.544 20.7845 30.4453C19.3445 33.2853 17.9045 41.3029 17.9045 41.3029L18.2283 40.7611C18.2283 40.7611 18.2688 40.0411 18.9888 38.7787C19.6928 37.5168 19.4907 36.1008 20.4693 33.6816C20.8496 32.7595 21.3269 31.5621 21.9093 30.5424C22.832 28.8837 23.9483 27.4597 25.0731 26.6832C26.9093 25.4213 28.9323 25.1461 28.9323 25.1461L31.1088 23.7061C31.1088 23.7061 31.4891 22.9701 31.9909 22.1285C32.6944 20.9477 33.5909 19.6288 33.7867 17.7115C34.0864 14.8715 33.3659 13.0107 33.4064 11.328C33.4469 9.64533 33.4629 8.40747 33.8032 8.10774C34.1435 7.808 33.9003 7.9216 33.9003 7.9216L33.8997 7.92053Z"
      fill="#A88F33" />
    <path fill-rule="evenodd" clip-rule="evenodd"
      d="M33.8997 20.6229C33.8997 20.6229 34.8597 18.2603 35.2992 16.1648C35.3803 15.744 35.5419 15.3237 35.5824 14.984C35.7845 13.0016 35.8411 12.1845 35.5824 11.1003C35.3803 10.3003 34.6037 9.57919 34.1989 9.02026C33.8027 8.43732 33.6165 8.22026 33.6976 8.09759C33.7787 7.97492 34.0939 7.77439 34.4011 7.79839C34.7276 7.80789 35.0488 7.88372 35.3452 8.02124C35.6415 8.15877 35.9067 8.35513 36.1248 8.59839C36.7477 9.31839 37.2411 11.7621 37.2411 11.7621L37.76 14.9867L39.0789 19.048L33.9008 20.6261L33.8997 20.6229Z"
      fill="#C99E3D" />
    <path fill-rule="evenodd" clip-rule="evenodd"
      d="M42.9205 18.1637C42.9205 18.1637 42.7424 18.2443 42.4192 18.1637C42.433 18.2958 42.4101 18.4291 42.3529 18.549C42.2958 18.6689 42.2067 18.7707 42.0955 18.8432C41.7557 18.7056 38.5755 18.9808 38.5755 18.9808C38.5755 18.9808 37.0949 18.7216 36.6336 16.7637C36.3104 15.4608 36.8763 13.6651 36.6901 12.4837C36.4069 10.744 36.0107 10.4037 35.9701 9.86241C35.9296 9.32107 35.8891 9.18294 35.8891 8.84321C35.7109 8.80267 35.6059 8.74614 35.4283 8.74614C35.3877 8.58614 35.4683 8.44641 35.2907 8.16321C35.3877 8.20374 36.0512 8.28481 36.8277 9.02081C37.4677 9.61974 37.4677 9.83788 37.5643 9.95948C37.6853 10.0805 38.6645 10.9195 39.0853 11.7557C39.5061 12.592 40.3232 15.2587 40.5093 15.6955C40.5659 15.8736 40.6875 16.0517 40.9893 16.456C41.4587 17.0389 42.1461 18.0027 42.9227 18.1627L42.9205 18.1637Z"
      fill="#B58634" />
    <path fill-rule="evenodd" clip-rule="evenodd"
      d="M37.6784 10C38.1685 10.7917 38.6088 11.6132 38.9968 12.4597C39.4741 13.5355 39.7573 14.4176 40.3563 15.1376C40.0325 14.1995 39.4581 12.3547 39.1184 11.6992C38.7381 11.0059 37.9616 10.2592 37.6784 10.0005V10Z"
      fill="#A88F33" />
    <path fill-rule="evenodd" clip-rule="evenodd"
      d="M32.1765 23.3013C32.1765 23.3013 31.3595 23.5035 29.8384 24.3045C29.3365 24.5632 28.8597 24.7813 28.3984 24.984C27.2 25.5259 25.9147 26.0267 24.8949 26.3029C24.976 26.4 25.016 26.44 25.016 26.44C25.016 26.44 25.016 26.8368 25.2347 27.0629C25.1136 27.1845 23.4949 28.2848 23.9728 31.9659C24.296 31.8448 24.6763 31.6827 24.7328 31.6827C24.8304 31.6992 24.8544 31.9659 24.9755 31.9659C25.0965 31.9659 25.4933 31.8059 25.9141 31.2619C25.8981 31.4805 25.6555 33.6811 26.9579 35.1616C27.2005 34.8784 27.8155 33.9397 27.8155 33.9397L27.8315 33.6405C27.8315 33.6405 27.888 32.5968 28.2283 31.6421C28.5685 30.6875 29.2315 29.9835 29.2315 29.9835L32.6933 25.04L32.1755 23.3008L32.1765 23.3013Z"
      fill="#E6C367" />
    <path fill-rule="evenodd" clip-rule="evenodd"
      d="M28.9403 30.56C28.7818 30.672 28.6071 30.7592 28.4224 30.8187C28.3659 30.6165 28.2848 29.9205 28.7621 29.2411C29.3205 28.4235 30.5419 27.3637 30.8816 26.5211C31.1003 25.9787 31.0032 24.6197 32.9451 22.88C34.8869 21.1403 35.6469 20.5419 35.6469 20.5419L38.7861 18.9643L42.6453 20.4853L40.728 28L39.2395 31.52L33.3195 30.4037L28.9397 30.56H28.9403Z"
      fill="#DCBA5A" />
    <path fill-rule="evenodd" clip-rule="evenodd"
      d="M31.2 28.5195L31.9365 27.5973V26.9419C31.9365 26.9419 32.7536 26.7232 33.6352 25.8251C34.5168 24.9269 35.7387 23.2037 36.8149 23.3088C37.8912 23.4304 37.9963 25.6469 38.0368 26.2704C38.0773 26.8939 38.2149 28.3088 38.4331 29.0699C38.6757 29.8304 35.8117 32.7104 35.8117 32.7104L33.8667 34.1909L31.2 28.5195Z"
      fill="#E9CE77" />
    <path fill-rule="evenodd" clip-rule="evenodd"
      d="M33.4789 36.1973C33.4789 36.1973 34.0779 35.2587 33.6389 35.0565C33.8976 34.4741 34.3749 33.8592 34.3749 33.8592C34.3749 33.8592 34.7147 33.0181 35.8149 31.9824C36.9152 30.9467 37.5952 30.2587 37.7733 29.5632C37.8831 29.11 37.9429 28.646 37.9515 28.1797C38.0704 28.2769 38.1977 28.3635 38.3317 28.4384C38.5099 28.5195 39.3509 29.215 39.2299 30.615C39.1088 32.015 38.5899 32.5973 38.5899 32.5973C38.5899 32.5973 38.0885 33.0987 37.7328 33.3579C37.352 33.6165 37.2149 33.9157 36.5755 33.9403C36.6412 33.888 36.7151 33.8469 36.7941 33.8187C36.7941 33.8187 36.1307 33.7382 35.7744 34.0614C35.4181 34.3846 34.6608 35.3803 34.2805 35.68C33.9003 35.9227 33.4805 36.1979 33.4805 36.1979L33.4789 36.1973Z"
      fill="#CDAE50" />
    <path fill-rule="evenodd" clip-rule="evenodd"
      d="M60.3803 20.4608C59.4244 20.1124 58.4199 19.9159 57.4032 19.8784C55.704 19.8219 53.2203 19.9189 50.7851 19.9349C48.1637 19.9509 45.7851 19.0368 42.4843 18.8752C41.9424 18.5515 40.5643 17.1355 36.2624 20.1371C36.5211 20.1211 39.3856 19.4736 40.3803 20.72C41.3835 21.9579 41.1003 24.0613 40.9632 24.5627C40.704 25.6795 39.8624 27.3056 39.5232 28.4464C39.184 29.5872 39.264 30.1867 39.0213 30.9867C38.7787 31.7867 38.2448 32.184 38.56 33.1061C38.9808 32.8475 39.2 32.8475 39.9029 31.2699C40.6059 29.6923 40.4613 28.5675 41.6267 27.2325C42.7675 25.8896 44.6667 24.0528 45.3888 23.5915C46.1109 23.1301 51.8448 20.1531 57.8485 22.9931C59.2965 22.8395 60.3808 20.4603 60.3808 20.4603L60.3803 20.4608Z"
      fill="#D2A83E" />
    <path fill-rule="evenodd" clip-rule="evenodd"
      d="M38.6811 19.36C38.6751 19.2992 38.6617 19.2394 38.6411 19.1819C38.5849 19.0635 38.5112 18.9544 38.4224 18.8581C38.4224 18.8581 36.9984 18.5995 36.2784 18.68C35.016 18.8176 33.8752 20.3792 33.3413 21.1803C32.8075 21.9813 32.144 23.2187 31.424 23.8581C31.4319 23.7958 31.4175 23.7328 31.3835 23.68C31.3835 23.68 31.424 23.7365 31.3435 23.8176C31.2629 23.8987 31.2624 23.9387 31.3029 23.9776L31.4245 24.0987C31.4645 24.0987 32.5813 23.5968 34.1024 22.1787C35.7205 20.6981 36.9584 19.9387 37.6059 19.6784C37.9512 19.5317 38.3121 19.4248 38.6816 19.36H38.6811Z"
      fill="#C29637" />
    <path fill-rule="evenodd" clip-rule="evenodd"
      d="M66.3029 13.2768C66.3029 13.2768 66.0437 13.6 65.72 13.9563C65 14.7168 64.0613 15.5739 63.2603 16.456C62.5003 17.2976 61.6427 17.9531 60.6795 19.0533C59.7163 20.1536 58.5995 21.3749 58.3168 21.7312C58.0581 22.0875 57.856 22.6699 57.856 22.9691C57.7184 22.872 57.5568 22.7669 57.5568 22.7669C57.6248 22.8939 57.7062 23.0134 57.7995 23.1232C58.0016 23.4064 58.3168 23.7632 58.4789 23.9808C58.6778 24.2578 58.8206 24.5711 58.8992 24.9029C58.9963 24.9189 59.6192 25.0405 60.3963 23.7621C61.1733 22.4837 62.192 21.0843 62.192 21.0843L63.8101 18.6811L64.8299 16.6427L66.1099 14.3611L66.3045 13.2768H66.3029Z"
      fill="#AC8132" />
    <path fill-rule="evenodd" clip-rule="evenodd"
      d="M67.9616 11.6427C67.9616 11.6427 66.9824 12.4427 66.6021 12.9227C66.2219 13.4027 65.3221 14.6624 65.3221 14.6624L65.6459 14.6219L67.2885 13.1659L67.9285 12.0251L67.9611 11.6448L67.9616 11.6427Z"
      fill="#A88F33" />
    <path fill-rule="evenodd" clip-rule="evenodd"
      d="M67.6619 75.9387C67.6619 75.9387 67.6459 75.2752 68.0181 74.8789C68.3984 74.4821 69.3611 73.8997 70.2997 71.7152C71.2384 69.5307 71.3429 69.0373 71.3429 69.0373C71.3429 69.0373 69.6603 70.4773 68.6229 70.8171C68.8656 70.3152 69.0032 69.9595 69.1248 69.7003C68.9872 69.5792 68.4048 69.4416 68.3483 69.3771C68.6715 69.0533 68.8496 68.2603 69.5051 67.7344C70.3467 67.0944 71.8837 65.9947 73.0784 65.0144C74.2731 64.0341 76.6219 61.7541 76.9216 61.0907C77.0997 61.3493 77.1397 61.5109 77.1397 61.5109C77.1397 61.5109 75.9589 63.0485 75.344 64.0272C74.8016 64.8688 74.8421 65.3461 74.8421 65.3461L75.9589 64.8661C75.9589 64.8661 76.2821 66.0635 74.8181 67.8843C75.4581 67.6416 75.7163 67.7872 76.08 67.5845C75.4811 67.9653 74.656 68.4832 73.8795 69.9067C73.1189 71.3307 72.0832 72.9893 70.336 74.0245C68.6368 75.1168 67.6576 75.9339 67.6576 75.9339L67.6619 75.9387Z"
      fill="#A67A2E" />
    <path fill-rule="evenodd" clip-rule="evenodd"
      d="M63.2768 21.3029C63.2768 21.3029 62.6133 22.6859 62.5163 23.7621C62.5003 24.0213 62.4352 24.2235 62.4352 24.5227C62.4192 25.4853 62.4917 26.5616 62.2752 27.0629C62.1941 26.8608 62.1536 26.7232 62.0725 26.6427C61.9515 26.9824 61.7328 28.0421 61.5547 28.4384C61.4741 28.1797 61.296 27.2816 61.3125 26.2219C61.3291 25.1621 61.3525 24.9595 61.3525 24.7413C61.3125 25.0645 61.0939 25.5019 61.0128 25.7605C60.8917 25.5424 60.7541 25.2592 60.592 25.0245C60.4949 25.1845 60.3739 25.4208 60.2688 25.5424C60.2523 25.4453 60.2123 25.1861 60.1877 24.8224C60.1717 24.4016 60.1472 23.8597 60.1717 23.7461C60.2117 23.528 60.552 22.6704 61.272 21.8853C62.1296 20.9467 63.0117 19.1429 63.2704 18.5845C63.5291 18.0261 64.6293 15.7045 64.6293 15.7045H65.4709L64.2491 18.4875C64.2491 18.4875 63.5131 20.0085 63.1328 20.5675C62.7525 21.1264 61.9515 22.728 61.5952 23.3509C61.8539 23.0112 62.0725 22.8331 62.3317 22.5093C62.5824 22.2827 63.2779 21.304 63.2779 21.304L63.2768 21.3029Z"
      fill="#8C6228" />
    <path fill-rule="evenodd" clip-rule="evenodd"
      d="M67.9776 11.5371C67.8401 11.9602 67.6229 12.353 67.3376 12.6944C66.8357 13.2933 65.7595 14.0939 65.2341 14.7328C64.7541 15.3557 63.7941 17.0549 64.2304 19.0693C64.3904 18.6325 64.6917 17.7669 65.4928 16.7877C66.2939 15.8085 67.1515 14.6843 67.5728 13.8107C67.9931 12.9285 68.0496 12.2331 68.0496 12.2331L68.2096 12.0309L68.1125 11.5696L67.9749 11.5371H67.9776Z"
      fill="#CBA94C" />
    <path fill-rule="evenodd" clip-rule="evenodd"
      d="M84.3611 65.2021C84.3611 65.2021 84.0373 64.3205 83.9403 63.5195C83.8432 62.7184 84.1003 62.5595 83.8027 61.6427C83.6245 61.0843 83.3013 61.1627 83.2203 61.0843C83.1392 61.0059 83.0827 60.1621 83.0987 59.7008C83.1147 59.2395 83.0827 58.6411 83.0016 58.3819C82.8805 58.2848 82.7995 58.2037 82.6213 57.6053C82.4192 57.0064 82.3221 56.7072 82.2251 56.5296C82.128 56.352 81.8443 56.1899 81.8443 56.0117C81.8443 55.6555 82.168 55.4699 82.168 55.3717C82.152 55.1696 81.9093 55.3317 81.8443 55.2747C81.7637 55.1776 82.0469 54.5952 81.9419 54.5141C81.9013 54.4741 81.6181 54.8139 81.5451 54.7168C81.464 54.6192 81.3669 53.6565 81.2213 53.0176C81.0843 52.3947 80.9381 51.9419 80.9221 51.7557C80.9061 51.5776 79.8053 48.4384 79.5387 47.6779C79.3238 47.0352 79.1429 46.3817 78.9968 45.72C78.9157 45.3397 78.8592 44.5627 78.8187 44.6437C78.7781 44.7248 78.8027 45.121 78.7376 45.1051C78.6811 45.0885 78.4789 43.7056 78.4144 43.4869C78.3579 43.2683 78.0176 42.5269 77.9344 41.9904C77.8533 41.448 77.6757 40.032 77.5541 39.0693C77.4325 38.1067 77.376 37.7104 77.376 37.4693C77.3959 36.8797 77.3634 36.2895 77.2789 35.7056C77.1189 34.6859 76.7989 33.448 76.5184 32.7285C75.9765 31.3691 74.536 27.8901 74.2784 27.0245C74.2784 26.8059 74.5616 26.9275 74.5616 26.9275C74.5616 26.9275 75.2651 28.6912 75.7829 30.0501C76.2848 31.4096 76.7621 32.6069 76.8837 32.7285C76.9808 32.8496 77.7413 34.1845 78.0811 36.3691C78.4208 38.5536 78.5419 40.568 78.7445 41.9109C78.8416 42.5509 78.9227 43.2299 79.1248 43.9093C79.3429 44.6459 79.6827 45.4064 80.128 46.5712C80.5083 47.5504 80.7915 48.3675 80.9451 49.0715C81.1232 49.9696 81.1232 50.6491 81.2283 51.0944C81.3259 51.4747 81.4709 52.2347 81.8112 53.3344C82.1515 54.4341 82.6523 55.8507 82.992 56.7323C83.656 58.496 83.952 59.9685 84.0523 60.7536C84.1408 61.5627 84.4405 64.3621 84.3595 65.2032L84.3611 65.2021Z"
      fill="#A88F33" />
    <path fill-rule="evenodd" clip-rule="evenodd"
      d="M68.0181 11.44L67.9776 11.5371C67.9776 11.5371 68.0987 11.5776 68.0747 11.7397C68.0764 11.9615 68.0628 12.1832 68.0341 12.4032C67.9941 12.6864 67.9131 12.9045 67.8971 13.0827C67.8971 13.4629 67.9536 13.8997 67.4171 14.984C67.2571 15.2832 67.1584 15.5419 67.0773 15.72C66.8752 16.1568 66.8347 16.2219 66.6565 16.424C66.9397 16.264 67.9595 15.624 68.4768 15.72C68.1211 15.9221 67.5787 16.3189 67.2389 16.8368C67.32 16.8528 67.6597 16.9179 68.1989 16.8368C69.0971 16.6992 70.1003 16.3755 70.9819 16.44C71.9451 16.4965 71.5648 15.2832 71.5648 15.2832L70.4533 12.84L68.3499 11.36L68.0181 11.4405V11.44Z"
      fill="#BE9C44" />
    <path fill-rule="evenodd" clip-rule="evenodd"
      d="M73.5035 29.7413C73.5035 29.7413 72.5648 28.8027 72.1845 25.5813C71.8043 22.3451 71.8853 17.5813 71.8853 17.5813L71.1248 15.7205C71.1248 15.7205 70.9648 14.4827 70.5664 14.0219C70.168 13.5611 69.3856 12.784 69.0293 12.4037C68.6731 12.0235 68.2688 11.5056 68.0261 11.4245C68.1472 11.2224 68.6896 10.0816 70.7685 10.0656C72.8475 10.0496 73.4885 11.2064 73.7056 11.6272C73.9227 12.048 74.9029 13.8672 75.2667 17.3339C75.6064 20.7963 75.6229 21.0555 75.5664 22.2528C75.5259 22.9163 75.3072 24.4533 74.9264 26.0955C74.5787 27.4875 74.1984 29.0411 73.5024 29.7445L73.5035 29.7413Z"
      fill="#A17C34" />
    <path fill-rule="evenodd" clip-rule="evenodd"
      d="M70.56 32.5003C70.8728 32.5228 71.1853 32.4523 71.4581 32.2976C71.7573 32.2816 72.8416 32.4192 73.6747 31.3595C73.7312 31.6016 73.8773 32.2576 73.4965 32.84C73.6992 32.6373 73.9984 32.5568 74.0389 32.5003C74.0549 32.7995 74.3381 33.7216 73.1408 35.9627C73.464 35.6069 73.8443 35.6229 74.184 35.5824C74.2005 36.0032 74.4267 37.4187 73.8283 38.1797C73.432 38.6976 72.7845 38.5355 72.7845 38.5355C72.794 38.4224 72.794 38.3088 72.7845 38.1957C72.7685 37.9771 72.6875 37.7589 72.7445 37.6133C72.4317 37.4704 72.1467 37.273 71.9029 37.0304C71.1989 36.3669 70.2848 35.2347 70.2203 34.3931C70.1392 33.4544 70.9808 33.2523 70.9808 33.2523C70.9103 33.1892 70.8502 33.1154 70.8027 33.0336C70.7621 32.8965 70.7216 32.6779 70.56 32.5003Z"
      fill="#8C6228" />
    <path fill-rule="evenodd" clip-rule="evenodd"
      d="M64.32 22.3221C64.32 22.3221 64.2795 22.2656 64.0613 22.5243C64.1019 22.2656 64.1424 22.0224 64.1584 21.7877C64.2616 21.5705 64.3953 21.369 64.5552 21.1893C64.4336 21.4315 64.3525 21.6501 64.3525 21.6501C64.3525 21.6501 64.6523 21.0917 65.0891 20.752C65.3883 20.5093 65.7685 20.3963 65.9301 20.1696C66.1083 19.9269 66.0677 19.8864 66.1083 19.8459C66.1083 19.8459 66.5051 19.5872 67.112 18.8261C67.1925 18.7291 67.3141 18.624 67.3952 18.5269C67.5323 18.4704 67.856 18.3248 68.2363 18.1301C68.6331 17.912 69.0779 17.6128 69.3531 17.4901C69.8949 17.2475 70.4699 17.272 70.7365 16.8912C70.9387 16.8347 71.1568 16.2277 71.1168 15.7104C71.416 15.8315 72.9531 16.7861 73.4795 18.8736C73.8597 20.3541 73.1797 22.6357 72.8965 23.7365C72.6133 24.8373 72.5733 25.6539 72.1765 26.1552C71.6747 26.8192 70.0571 27.7552 69.6603 28.2187C69.3205 28.5989 68.3013 29.5616 68.3413 30.2571C68.3819 30.7749 69.0208 31.0571 69.1589 31.1552C69.2971 31.2533 69.296 31.3739 69.5552 31.3152C69.8144 31.2565 69.9109 31.1371 70.0165 31.1371C70.1376 31.1531 70.1376 31.1776 70.1941 31.1776C70.2351 31.1764 70.2759 31.1708 70.3157 31.1611C70.3157 31.1611 70.2752 31.8976 68.552 32.1211C68.4304 32.1376 68.3093 32.1776 68.1552 32.2021C68.3579 32.1051 68.4789 32.1051 68.6976 31.8059C68.4549 31.7653 67.7589 31.7248 67.5808 31.6683C67.6373 31.5712 67.8235 31.312 67.9771 31.1909C68.1147 31.0699 67.9611 31.0309 67.84 31.0939C67.6316 31.2357 67.4316 31.3895 67.2411 31.5547C67.0389 31.7328 66.8608 31.9755 66.5371 32.1947C66.44 31.8709 66.456 31.256 66.8368 30.8112C66.7392 30.8272 66.5531 31.1104 66.3755 31.0539C66.3434 30.7587 66.3625 30.4603 66.432 30.1717C66.5291 29.8075 67.0549 29.1685 67.0549 29.1685L69.5952 24.6293L70.1371 21.1909L64.32 22.3211V22.3221Z"
      fill="#92723A" />
    <path fill-rule="evenodd" clip-rule="evenodd"
      d="M64.1829 22.5163C64.1829 22.5163 64.0453 22.6133 64.3205 22.7995C64.28 22.856 64.1829 23.0581 64.0613 23.1957C63.9243 23.3557 63.7781 23.4549 63.7216 23.5925C63.6005 23.8757 63.5035 24.0699 63.5035 24.1915C63.5035 24.3131 63.4629 25.0896 63.1232 25.5909C63.0016 25.7691 62.864 26.0683 62.7669 26.2704C62.5648 26.6261 62.3867 26.9104 62.3461 27.0704C62.2656 27.3536 62.2091 28.1301 62.2091 28.1301C62.2091 28.1301 62.3872 27.9115 62.4517 27.8309C62.3541 28.0331 62.2491 28.2512 62.0955 28.4133C62.1925 28.3323 62.4757 28.1301 62.9531 27.7093C63.6165 27.1515 64.6523 26.2128 65.9147 25.4693C65.5339 25.6069 65.2107 25.6069 64.952 25.6475C65.1541 25.4453 66.9744 23.3093 67.9291 23.1072C67.987 23.0337 68.0159 22.9414 68.0101 22.848L67.1925 22.7675L65.5339 23.1232L65.2917 21.8432L64.1829 22.5147V22.5163Z"
      fill="#B18E3E" />
    <path fill-rule="evenodd" clip-rule="evenodd"
      d="M66.8208 29.7979C66.8208 29.7979 66.6021 30.016 66.4 30.5584C66.2444 30.3959 66.111 30.2135 66.0032 30.016C65.704 29.5147 65.2432 28.8752 64.1669 29.2395C64.1509 28.8997 64.1264 28.7216 64.1669 28.4789C64.3451 28.4389 64.8869 28.0021 65.4288 27.3627C65.8096 26.9259 66.1653 26.424 66.408 25.7851C66.568 25.6635 66.8448 25.4613 67.208 25.2267C67.7259 24.8709 68.3488 24.3851 68.4459 23.8432C68.2032 23.9403 67.6853 24.1829 66.9083 24.1429C67.208 24.0053 67.6688 23.8597 67.6123 23.2608C67.7339 23.1797 67.8309 23.1232 67.8309 23.1232C67.7397 23.0928 67.6438 23.0791 67.5477 23.0827C67.5312 23.0261 67.5072 22.9456 67.3696 22.9856C67.232 23.0256 67.2096 23.0261 67.1915 23.0827C67.1349 23.0992 66.9488 23.0827 66.8112 23.1803C66.6736 23.2779 66.2933 23.6005 66.1477 23.6571C66.2043 23.56 66.2848 23.4149 66.2848 23.4149C66.2848 23.4149 65.8885 23.4549 65.6053 23.5749C65.0875 23.7531 64.4891 24.0768 63.8821 24.392C63.9387 24.2949 63.9632 24.232 64.0032 24.2139C64.0432 24.1957 64.1408 24.1739 64.1408 24.1573C64.1408 24.1408 64.1008 23.9973 64.1248 23.9392C64.3062 23.5548 64.5204 23.1867 64.7648 22.8389C65.048 22.4581 65.1045 21.9163 65.1045 21.9163L66.3424 21.2933L69.8213 20.4933L72.0789 20.6309L71.7957 22.1925L70.4624 24.9189L69.3216 27.4027L68.0187 28.9243L66.8213 29.7979H66.8208Z"
      fill="#543E26" />
    <path fill-rule="evenodd" clip-rule="evenodd"
      d="M72.4597 23.04C72.4597 23.04 71.1003 24.7227 70.72 24.9819C70.9627 24.464 72.4597 21.3813 73.0016 20.5237C72.8805 20.4267 72.7184 20.4267 73.0987 18.9237C72.7755 19.6837 72.6619 20.0805 72.3952 20.2827C72.1285 20.4848 72.0955 20.4203 71.9152 20.4203C71.9492 20.3587 71.9632 20.288 71.9552 20.2181C71.9552 20.2181 70.8144 20.0805 70.0352 20.0805C69.256 20.0805 67.7136 20.5013 66.8555 20.8411C66.176 21.1243 65.7957 21.1243 65.5531 21.3019C65.3104 21.504 65.1728 21.7227 65.0512 21.7792C64.9541 21.8357 64.4933 21.9813 64.3877 22.1349C64.2907 22.2949 64.1291 22.4747 64.1291 22.5152C64.1291 22.5557 64.0885 22.6128 64.2101 22.5717C64.2501 22.5557 64.5499 22.3936 64.8896 22.1915C65.3504 21.9328 65.9088 21.6336 66.3136 21.4555C67.4704 20.9941 67.8347 21.0752 68.352 20.9781C68.8939 20.8811 69.6709 20.6544 70.1883 20.6544C70.7061 20.6384 71.6853 20.6544 71.912 20.6949C71.8149 20.776 71.7339 20.8731 71.7744 21.2128C71.7744 21.3099 71.6933 21.4149 71.6144 21.6496C71.3723 22.3131 70.9109 23.4133 70.6544 23.9717C70.2987 24.7317 69.8944 25.3712 69.6944 25.7675C69.4944 26.1637 69.0544 27.2075 68.6187 27.7659C68.1829 28.3243 67.9552 28.664 67.8187 28.7856C67.6821 28.9072 66.7019 29.6267 66.7749 29.8859C66.9531 29.8293 68.0779 29.4059 68.8944 28.4864C69.7109 27.5669 69.8736 27.0059 70.5125 26.504C71.1515 26.0021 71.6533 25.1611 71.9525 24.4656C72.2032 23.8181 72.1467 23.616 72.4619 23.0416L72.4597 23.04Z"
      fill="#806031" />
    <path fill-rule="evenodd" clip-rule="evenodd"
      d="M43.1637 35.5989C43.1637 35.5989 42.9856 36.3349 42.5808 36.6992C42.1845 37.0555 41.4805 37.3627 41.4 37.9616C41.3029 38.56 42.104 38.8597 42.104 38.8597C42.104 38.8597 41.6667 39.5797 41.6667 40.1216C41.6667 40.68 41.6507 40.7851 41.7072 41.3189C41.643 41.3602 41.5885 41.4148 41.5472 41.4789C41.5472 41.4789 41.5872 41.9968 41.984 42.32C42.3808 42.6432 42.72 42.8379 42.9221 42.7568C42.953 42.8227 42.9801 42.8904 43.0032 42.9595C43.0032 42.9595 43.3029 42.1989 43.5051 41.5355C43.7072 40.856 43.8853 40.9525 43.9659 40.0384C44.0464 39.1243 44.9259 37.5547 44.9259 37.5547L45.5259 36.2133L44.5472 35.4528L43.1637 35.5984V35.5989Z"
      fill="#B6903C" />
    <path fill-rule="evenodd" clip-rule="evenodd"
      d="M44.984 36.9173C44.7822 37.1245 44.5959 37.3463 44.4267 37.5808C44.168 37.9371 43.9659 38.2603 43.5856 38.3984C43.2053 38.5365 42.9627 38.5355 42.9867 38.9163C43.0107 39.2971 43.3669 39.4581 43.5691 39.6523C43.7877 39.8544 43.9659 40.1941 43.8688 40.5749C43.9899 40.5184 44.2085 40.4533 44.4107 40.0165C44.6128 39.5797 46.0267 36.9179 46.0267 36.9179H44.984V36.9173Z"
      fill="#685026" />
    <path fill-rule="evenodd" clip-rule="evenodd"
      d="M50.56 30.7765C50.56 30.7765 50.6811 30.4533 50.56 30.2187C50.4384 29.976 49.7024 29.8949 49.3381 29.6197C48.9579 29.3365 48.4965 29.1397 48.1163 29.264C48.1728 29.1264 48.3995 28.8267 48.2133 28.7621C48.0352 28.7056 47.3723 29.0048 47.1941 29.1424C47.016 29.28 46.6112 29.4416 46.5307 29.5392C46.4501 29.6368 46.312 29.8224 46.2309 29.7413C46.1499 29.6848 46.1099 29.5392 45.9723 29.6197C45.8347 29.7003 45.1723 30.2427 45.0501 30.5584C44.928 30.8741 44.6533 31.5781 43.8283 32.3787C43.0032 33.1792 42.6469 33.6976 42.8896 33.9968C43.1323 34.296 43.2459 34.0779 43.2864 34.3365C43.3176 34.5904 43.3039 34.8479 43.2459 35.0971C43.1488 35.5179 42.9872 35.9141 43.2053 35.9952C43.7637 36.1733 44.3061 35.8352 44.4272 35.9387C44.6699 36.1568 44.2896 36.9419 44.864 37.0955C45.4469 37.2555 46.0213 36.9579 46.0213 36.9579L48.1408 35.8171L50.1797 34.7413L51.2229 32.6779L50.6635 30.9547L50.5568 30.7765H50.56Z"
      fill="#D4B968" />
    <path fill-rule="evenodd" clip-rule="evenodd"
      d="M48.56 35.704C48.56 35.704 48.2037 35.1621 48.6411 34.6843C49.0784 34.2064 49.7008 34.0048 49.9435 33.7056C49.8973 33.6486 49.8353 33.6065 49.7653 33.5845C49.9264 33.2963 50.1722 33.0645 50.4693 32.9205C50.3483 32.7995 50.1861 32.7024 50.0085 32.7024C49.6117 32.7024 49.3685 32.9451 49.0048 32.9451C48.6491 32.9451 48.6085 32.7669 48.6085 32.7669C48.6085 32.7669 49.2075 32.7104 49.1504 32.4432C49.0939 32.16 48.9904 32.16 48.9904 32.16C48.9904 32.16 50.1472 31.68 50.3493 31.424C50.5515 31.168 50.5275 30.8656 50.568 30.7445C50.7051 30.7445 51.5061 30.3237 51.8299 30.5019C52.1536 30.68 51.9269 31.1653 51.9269 31.1653C51.9269 31.1653 52.9067 30.4288 53.4059 29.7067C53.8427 29.7472 54.0459 29.4075 54.3659 29.4075C54.7627 29.4075 55.3856 29.9493 55.5067 31.1061C55.5877 31.7696 55.7088 32.1499 55.5877 33.3232C55.5312 33.9867 55.5472 35.4032 55.7477 36.1061C55.8848 36.6645 56.2085 36.608 56.2085 36.608C56.1589 36.7782 56.0604 36.93 55.9253 37.0448C55.7067 37.2469 55.6827 37.7813 55.7067 37.9835C55.7389 38.1313 55.7795 38.2771 55.8283 38.4203C55.8283 38.4203 55.5696 38.7195 55.5045 38.9221C55.448 39.1243 55.1813 39.2619 54.9867 39.2619C54.792 39.2619 54.8896 39.2453 54.6309 39.2619C54.3723 39.2784 54.2912 39.3184 54.1291 39.2619C53.9669 39.2053 53.8459 39.1403 53.9109 38.6219C53.9675 38.104 51.9125 36.8987 51.9125 36.8987L48.5525 35.7013L48.56 35.704Z"
      fill="#CCA849" />
    <path fill-rule="evenodd" clip-rule="evenodd"
      d="M44.7008 40.8171C44.7008 40.8171 45.4368 41.7963 48.4629 41.7963C49.9029 41.7963 50.4048 41.6587 50.7029 41.5776C51.0267 41.4965 52.24 41.0197 53.4619 39.5792C54.5621 38.2768 54.3195 37.7429 54.3195 37.7429L53.6795 37.6459L51.5995 37.9291L45.4448 40.5504L44.6981 40.8171H44.7008Z"
      fill="#585136" />
    <path fill-rule="evenodd" clip-rule="evenodd"
      d="M46.9579 41.0597C46.9579 41.0597 44.3365 41.6427 44.3365 39.984C44.3365 38.3659 45.9547 36.6667 46.3595 36.3675C46.7803 36.0677 47.7835 35.7275 47.7835 35.7275H50.2027L50.6635 36.9493L50.4613 39.5867L46.9579 41.0592V41.0597Z"
      fill="#252211" />
    <path fill-rule="evenodd" clip-rule="evenodd"
      d="M49.3771 36.2219C49.3771 36.2219 48.8757 35.7605 47.7349 36.3819C46.5941 37.0032 45.6715 38.3019 45.6149 39.4811C45.5584 40.5243 46.4725 41.3013 47.8965 41.3419C48.9563 41.3819 49.5957 41.2608 49.9195 41.1819C49.8384 41.0848 49.4176 40.5589 49.4176 40.5589L49.3776 36.2224L49.3771 36.2219Z"
      fill="#C3B378" />
    <path fill-rule="evenodd" clip-rule="evenodd"
      d="M48.8837 36.48C48.8837 36.48 48.7627 36.3829 48.4037 36.5771C48.1045 36.7371 47.6677 37.16 47.328 37.4592C47.1093 37.6373 46.9717 37.7179 46.848 37.8555C46.3461 38.4544 45.9253 39.4336 46.1685 39.9189C46.4117 40.4043 47.2123 40.9627 49.2512 40.5824L48.8779 36.4805L48.8837 36.48Z"
      fill="#E6D89C" />
    <path fill-rule="evenodd" clip-rule="evenodd"
      d="M48.2203 37.4837C48.2203 37.4837 47.8965 37.9856 47.8965 38.7867C47.8965 39.6037 48.3579 40.9061 50.0571 41.0032C51.3595 41.0843 52.2331 39.1264 53.1797 38.3659C53.8997 37.7835 54.3365 37.7669 54.3365 37.7669C54.3365 37.7669 53.6005 36.9669 51.6347 35.9307C49.6928 34.8869 47.5163 34.7493 46.3349 36.3515C46.8933 36.3109 48.6976 35.8496 48.6976 35.8496L49.5797 36.1328L48.2203 37.4843V37.4837Z"
      fill="#252211" />
    <path fill-rule="evenodd" clip-rule="evenodd"
      d="M50.7605 38.5435C50.704 38.4224 50.6635 38.2603 50.8981 38.2203C51.1328 38.1803 51.2379 38.2037 51.3189 38.3803C51.4 38.5568 51.4789 38.704 51.3589 38.7771C51.2379 38.8416 50.9221 38.7771 50.76 38.5424L50.7605 38.5435ZM50.3803 37.4027C50.3803 37.4027 50.2992 37.4592 50.3397 37.3461C50.3557 37.2091 50.4613 36.9659 50.72 37.0229C50.9787 37.08 50.9227 37.3627 50.88 37.4437C50.8373 37.5248 50.6213 37.6619 50.4592 37.6037C50.4386 37.5985 50.4196 37.5884 50.4037 37.5745C50.3877 37.5605 50.3753 37.5429 50.3674 37.5232C50.3595 37.5035 50.3563 37.4823 50.3582 37.4611C50.3601 37.44 50.3669 37.4196 50.3781 37.4016L50.3803 37.4027Z"
      fill="#6F674D" />
    <path fill-rule="evenodd" clip-rule="evenodd"
      d="M28.48 37.92C28.48 37.92 29.12 38.4 29.8635 38.3813C30.5995 38.3648 31.5461 37.6048 31.9829 37.1189C32.2416 36.8357 32.4629 36.5365 32.7029 36.3019C32.9056 36.0997 33.0427 36.0027 33.1397 35.8651C33.2773 35.7051 33.4229 35.4043 33.496 35.3067C33.3179 35.4443 33.0592 35.6875 32.792 35.8491C32.5333 36.0091 31.9749 36.3099 31.7483 36.3909C31.5301 36.472 29.2645 37.6709 29.2645 37.6709L28.48 37.92Z"
      fill="#AC924C" />
    <path fill-rule="evenodd" clip-rule="evenodd"
      d="M29.4581 31.9419C29.4581 31.9419 29.8139 31.6992 30.5019 31.5451C31.1653 31.3851 32.5003 31.2619 32.5003 31.2619L33.6005 31.7419L34.0373 33.4005L33.2373 35.1243L32.2181 35.7643L31.0608 33.9035L29.4608 31.9451L29.4581 31.9419Z"
      fill="#9F8E57" />
    <path fill-rule="evenodd" clip-rule="evenodd"
      d="M28.0181 33.4224L27.6373 33.7067C27.6373 33.7067 27.7349 33.5285 27.8155 32.9867C27.896 32.4448 28.3173 31.1259 28.9323 30.3653C29.5472 29.6048 29.5312 29.6453 29.5312 29.6453C29.4746 29.635 29.4165 29.6368 29.3607 29.6507C29.3048 29.6646 29.2526 29.6902 29.2075 29.7259C29.2885 29.5467 29.8064 28.9067 30.3243 28.5867C30.8421 28.2667 31.0443 28.1659 31.5861 28.4267C32.128 28.6875 32.2656 28.8229 32.6624 28.8069C33.0592 28.7909 33.3984 28.3701 33.3984 28.3701C33.3984 28.3701 33.4795 28.6288 33.1803 29.2277C32.8811 29.8267 31.6997 31.048 31.6997 31.048L29.24 32.7307L28.0181 33.424V33.4224Z"
      fill="#EAC970" />
    <path fill-rule="evenodd" clip-rule="evenodd"
      d="M29.8379 31.7397C29.8379 31.7397 31.6181 31.9824 32.16 31.4811C32.176 31.5376 32.2411 31.5376 32.2411 31.5781C32.2367 31.6087 32.2225 31.637 32.2005 31.6587C32.2595 31.6493 32.319 31.6439 32.3787 31.6427C32.4499 31.6639 32.5232 31.6775 32.5973 31.6832C32.657 31.6819 32.7166 31.6764 32.7755 31.6667C32.7698 31.7069 32.7562 31.7455 32.7353 31.7804C32.7144 31.8152 32.6867 31.8454 32.6539 31.8693C32.7349 31.8693 32.8139 31.8853 32.8139 31.9499C32.8139 32.0144 32.8299 32.2091 32.7328 32.2496C32.6524 32.2718 32.5668 32.266 32.4901 32.2331C32.4965 32.3862 32.5382 32.5359 32.6117 32.6704C32.7717 32.9696 33.1131 33.3104 33.5717 33.2123C33.5717 33.2123 33.8139 33.7947 32.7947 35.0891C32.6576 35.2672 32.5115 35.5099 32.3339 35.712C32.2637 35.865 32.2101 36.025 32.1739 36.1893C32.1739 36.1893 33.8976 35.5259 34.3909 34.0128C34.8928 32.4917 34.9899 30.9952 34.8928 29.5957C34.8763 29.1989 34.8117 28.9163 34.7147 28.7136C34.472 28.2117 33.792 28.2928 33.5173 28.576C33.1205 28.9728 32.4571 29.9595 31.5349 30.6389C30.5963 31.3184 30.5563 31.4389 29.8357 31.7397H29.8379Z"
      fill="#D7BC6B" />
    <path fill-rule="evenodd" clip-rule="evenodd"
      d="M27.7024 33.9243C27.7024 33.9243 27.3627 34.1264 27.1845 34.8843C27.0064 35.6608 27.3445 36.6075 27.5403 36.9067C27.736 37.2059 28.1803 38.0235 29.1019 38.064C29.33 38.0628 29.5556 38.016 29.7653 37.9264C30.0871 37.7789 30.3888 37.5913 30.6635 37.368C31.0603 37.0688 31.3835 36.8101 31.3429 36.7856C31.2459 36.7451 28.8997 34.8032 28.8997 34.8032L28.0176 33.8187L27.7019 33.9253L27.7024 33.9243Z"
      fill="#585136" />
    <path fill-rule="evenodd" clip-rule="evenodd"
      d="M29.92 37.144C29.92 37.144 30.3973 37.104 30.6805 36.9259C30.9637 36.7477 29.0219 34.8224 29.0219 34.8224L29.1595 36.9024L29.92 37.144Z"
      fill="#453A25" />
    <path fill-rule="evenodd" clip-rule="evenodd"
      d="M27.856 33.7781C27.856 33.7781 27.6133 34.2395 27.6133 34.3611C27.5728 34.7573 27.6944 36.0032 27.7915 36.3995C27.8885 36.8203 28.4144 37.4592 29.0944 37.4592C29.5147 37.4592 30.0976 37.2005 30.0976 37.136C30.0976 37.0549 29.4987 36.976 29.3371 36.6747C29.24 36.5147 29.1995 36.1168 29.1771 35.7147C29.1611 35.456 29.1611 35.1728 29.2581 35.0747C29.4768 34.832 29.5168 34.136 29.5168 34.136L30.2933 32.6933H29.272L28.0501 33.4539L27.856 33.7781Z"
      fill="#84754B" />
    <path fill-rule="evenodd" clip-rule="evenodd"
      d="M27.5568 34.2235C27.5568 34.2235 28.3568 33.1637 29.0779 32.9205C29.7989 32.6773 30.1216 32.8235 30.1216 32.8235L29.7008 33.8997L29.1019 34.5632L29.1424 34.9029C29.1424 34.9029 29.0448 35.8011 29.6437 36.424C30.2427 37.0469 30.6875 37.0229 30.9467 37.0229C31.2059 37.0229 31.9499 36.8043 32.3301 35.9061C32.6699 35.0651 32.9531 33.9862 32.2736 32.9045C31.6096 31.8283 30.4368 31.7867 30.2101 31.7867C29.9835 31.7867 28.2037 31.8757 27.5568 34.2219V34.2235Z"
      fill="#252211" />
    <path fill-rule="evenodd" clip-rule="evenodd"
      d="M48.0987 37.8235C47.7995 37.6859 48.0827 36.8448 48.3819 36.5856C48.6811 36.3264 49.0613 36.0278 49.7253 35.9867C49.9675 35.9707 50.2021 36.1243 50.1621 36.2864C50.1056 36.5856 49.6848 37.0064 49.3045 37.3056C48.7787 37.7184 48.4384 37.9771 48.0987 37.8235Z"
      fill="#F7F7E7" />
    <path fill-rule="evenodd" clip-rule="evenodd"
      d="M31.9173 33.2363C32.136 33.2203 32.4192 33.3963 32.4757 33.6331C32.5323 33.8917 32.3381 34.4096 31.9173 34.4096C31.5776 34.4096 31.3995 33.9888 31.3995 33.8677C31.4033 33.7682 31.4311 33.671 31.4805 33.5845C31.4965 33.56 31.5371 33.2768 31.9173 33.2363Z"
      fill="#F8F6DE" />
    <path fill-rule="evenodd" clip-rule="evenodd"
      d="M28.7621 33.4224C28.7621 33.4224 28.2037 33.6811 27.9451 34.2224C27.7602 34.6221 27.7043 35.0695 27.7851 35.5024C27.8256 35.7045 28.0277 36.2059 28.1653 36.384C28.3029 36.5621 28.4891 36.6837 28.6267 36.6672C28.7643 36.6507 29.0469 36.2869 29.0469 36.0688C29.0469 35.8507 29.0635 34.928 29.3301 34.4261C29.5648 33.9248 28.7637 33.4229 28.7637 33.4229L28.7621 33.4224Z"
      fill="#D4C38B" />
    <path fill-rule="evenodd" clip-rule="evenodd"
      d="M28.8432 33.3819C28.7461 33.4384 28.5845 33.5195 28.6245 33.6245C28.6651 33.7216 29.0048 33.7845 29.1264 34.0213C29.264 34.264 29.264 34.5227 29.2235 34.6443C29.3291 34.5941 29.425 34.5254 29.5067 34.4416C29.6848 34.2395 29.9029 33.9648 30.0891 33.9648C30.2107 33.9648 30.3317 34.0213 30.4453 34.0213C30.6235 34.0213 30.8011 33.9648 30.8256 33.7787C30.8656 33.536 30.4859 33.3173 30.2672 33.3579C30.3077 33.1979 30.3643 32.9616 30.1861 32.7995C30.008 32.6373 29.4501 32.9211 29.3285 33.0021C29.2069 33.0832 28.8432 33.3824 28.8432 33.3824V33.3819Z"
      fill="#E2D59D" />
    <path fill-rule="evenodd" clip-rule="evenodd"
      d="M41.6992 50.3803L42.8965 50.0267L43.2363 50.2693C43.2363 50.2693 43.4784 50.7872 43.8592 50.8517C43.7376 51.1104 43.4219 51.3317 43.4384 51.5152C43.4549 51.6987 43.6165 51.8389 43.6165 51.8389C43.6165 51.8389 42.5403 53.6187 44.6603 55.4123C44.1584 55.6144 43.5195 55.8923 43.1797 56.0523C43.4219 56.1088 43.9397 56.2123 44.1584 56.4085C44.3771 56.6048 44.3771 56.6672 44.5792 56.7888C44.7813 56.9104 44.9024 57.072 44.8624 57.1445C44.7248 57.0635 44.2635 56.8213 44.1829 57.0475C44.1024 57.2736 42.1845 57.1851 42.1845 57.1851L38.9483 57.808C38.9483 57.808 39.0693 57.4843 38.7296 57.1851C38.3333 56.8293 37.848 57.2011 37.3301 56.8048C36.6507 56.2869 36.6261 55.688 36.408 55.4619C36.6261 55.3243 37.0715 55.1221 38.1312 54.9819C38.0907 54.9008 37.9531 54.6581 38.0341 54.44C38.1312 54.1568 38.5355 53.9787 38.4144 53.64C38.5925 53.5995 38.6731 53.5995 39.1184 53.0411C39.5392 52.4827 39.7979 52.3616 40.1216 52.3211C40.4453 52.2805 40.6395 52.3211 41.2384 51.7627C41.6587 51.3664 41.5216 51.0267 41.5216 51.0267C41.5216 51.0267 41.7963 50.9376 41.6997 50.3792L41.6992 50.3803Z"
      fill="#CBAC5A" />
    <path fill-rule="evenodd" clip-rule="evenodd"
      d="M38.1637 50.56C38.1797 50.4789 38.2448 50.4384 38.6816 50.4789C39.1184 50.5195 41.8853 50.2203 42.6379 50.1797C43.3984 50.1232 46.0763 50.1632 47.3792 50.4384C48.6821 50.7136 50.0005 51.0373 50.6395 51.1989C51.2795 51.3771 51.4811 51.4411 51.4565 51.5221C51.4405 51.6032 51.2965 51.6821 51.2139 51.6597C51.1333 51.6437 49.0133 50.9963 48.3584 50.8597C47.7035 50.7232 45.4373 50.3579 44.1984 50.3797C43.0416 50.3963 42.5803 50.3637 41.6016 50.4768C40.6224 50.5984 39.0043 50.76 38.5189 50.6955C38.0389 50.6389 38.1381 50.6389 38.1627 50.5579L38.1637 50.56Z"
      fill="#D6BC6F" />
    <path fill-rule="evenodd" clip-rule="evenodd"
      d="M44.6763 56.9013C44.6763 56.9013 46.3349 57.7995 46.9339 58.8997C47.3707 59.7168 46.6752 60.1216 46.6752 60.1216C46.6752 60.1216 47.6139 60.1216 47.4923 60.6395C47.4357 60.9627 45.8741 61.8363 44.8304 62.2976C43.7707 62.7589 43.8112 62.7349 43.2933 62.8155C42.7915 62.8965 41.416 62.6555 41.1328 63.0581C40.8496 63.4608 40.9728 63.8757 41.0517 63.9403C41.1328 63.9968 41.7883 64.0779 41.7883 64.0779C41.7883 64.0779 41.6507 64.4581 40.2917 64.4987C38.9328 64.5392 38.5925 64.6357 38.5115 64.7819C38.4304 64.9189 38.7701 64.8384 39.3936 64.9419C40.0165 65.0389 40.8901 65.1019 40.8901 65.1019C40.8901 65.1019 40.6069 65.3445 39.8709 65.5387C39.0293 65.7568 37.7104 65.9595 37.3141 66.2021C37.5163 66.3397 37.816 66.5419 37.9541 66.5579C37.6144 66.6389 37.1365 66.8171 37.056 66.8816C37.1771 66.9627 37.3392 67.0597 37.3392 67.0597C37.3392 67.0597 36.6592 67.8768 36.2629 68.0795C35.8667 68.2821 33.5851 69.3413 32.8 69.1392C30.8421 68.6213 30.5995 66.4773 30.1221 66.3157C29.4021 66.0731 29.0624 66.5579 28.4229 66.2181C28.7061 66.016 28.8603 65.8949 29.1595 65.7573C28.8357 65.5973 27.1611 64.5355 27.1611 64.5355C26.9859 64.1538 26.7916 63.7812 26.5787 63.4192C26.2549 62.8608 25.7787 62.1163 25.4213 61.4608C24.6448 60.0208 24.6043 59.3573 23.9003 58.5403C24.0219 58.3803 24.4421 58.4027 24.4421 58.4027L30.3408 60.3445L40.8 60.6475L43.52 56.7643L44.6768 56.9019L44.6763 56.9013Z"
      fill="#DFC677" />
    <path fill-rule="evenodd" clip-rule="evenodd"
      d="M29.1829 62.8235C29.246 62.8937 29.3196 62.9538 29.4011 63.0016C29.6037 63.1392 29.9029 63.3013 30.1051 63.5435C30.1861 63.4224 30.3883 63.2037 30.7451 63.5435C31.1019 63.8832 31.5451 63.6411 31.8208 63.7216C32.104 63.8192 32.12 63.8592 32.12 63.8592C32.12 63.8592 32.28 63.7216 32.6379 63.576C32.8565 63.4949 33.1152 63.4384 33.3984 63.3579C33.6571 63.3013 33.9403 63.2203 34.1349 63.2203C34.3131 63.3413 34.952 64.0203 37.5168 63.0181C39.936 62.0795 40.4939 61.9744 40.8987 62.1195C40.9392 62.0224 40.9797 61.8363 41.6027 61.8608C41.6027 61.6021 41.0848 60.72 41.0848 60.72L38.2288 59.7413H36.6667L31.9824 60.5989L29.3867 62.08L29.1845 62.8267L29.1829 62.8235Z"
      fill="#C4A859" />
    <path fill-rule="evenodd" clip-rule="evenodd"
      d="M27.6213 61.1813C27.6213 61.1813 27.6779 61.6181 28.3253 62.0795C28.9653 62.5403 29.1664 62.8155 29.1664 62.8155C29.1664 62.8155 29.288 62.6555 29.3851 62.4923C29.4821 62.3141 29.5632 62.112 29.7248 62.0555C30.0485 61.9179 30.7845 62.1765 30.9467 62.136C31.0843 62.096 31.0437 61.8128 31.1893 61.8128C31.5291 61.7963 31.7472 62.0309 31.8688 62.0309C31.9904 62.0309 32.2891 62.0149 32.3296 61.9504C32.3701 61.8859 32.3861 61.2139 32.8475 60.8901C33.3493 60.5344 33.9643 60.688 34.1275 60.7691C34.1275 60.8901 34.1435 61.1899 34.4672 61.2059C34.7909 61.2219 34.8229 61.1653 35.1072 61.2624C35.3915 61.3595 35.7301 61.2464 35.8837 61.7232C36.0213 61.6832 36.3451 61.6427 36.264 61.1813C36.424 61.0603 36.5637 60.9792 36.904 60.5019C36.9851 60.3808 37.1221 60.2432 37.2277 60.0651C37.5109 60.0651 37.8507 60.0085 38.3035 60.4048C38.1659 60.5019 38.0848 60.5648 38.0448 60.6635C38.1632 60.7807 38.2714 60.908 38.368 61.0437C38.4896 61.2037 38.5707 61.4 38.7243 61.4405C39.064 61.5376 39.6224 61.4 40.2453 61.4405C40.8443 61.4811 41.3456 61.6992 41.5643 61.8368C41.6453 61.7968 41.6453 61.7803 41.8475 61.8208C42.0496 61.8613 42.2032 61.8773 41.9851 61.6187C42.1061 61.6752 42.2437 61.7968 42.3653 61.6752C42.4869 61.5536 42.5835 61.376 42.9232 61.3355C43.2629 61.2949 43.3845 61.3515 43.5221 60.9957C43.7003 60.5589 43.0853 60.5589 43.0853 60.5589C43.0853 60.5589 43.3685 60.2997 43.6843 59.96C44.0645 59.6043 44.5013 59.1429 44.6064 58.5765C44.7845 57.5328 43.7653 57.3957 43.7653 57.3957L38.8219 58.9168L32.7781 58.6171L27.6245 61.1819L27.6213 61.1813Z"
      fill="#927D49" />
    <path fill-rule="evenodd" clip-rule="evenodd"
      d="M23.1797 46.9013C23.1797 46.9013 23.0197 47.1035 22.9211 47.5808C22.8224 48.0581 22.8645 48.0016 22.7835 48.3413C22.7024 48.6811 21.7067 52.0629 22.08 53.2037C22.4533 54.3445 23.0997 54.7653 23.504 55.6875C23.5851 55.8896 23.664 56.0112 23.7061 56.1893C23.8437 56.7877 23.7227 57.2491 23.8843 57.848C23.9408 58.0501 24.0869 58.2848 24.3051 58.5275C24.7851 59.0288 25.5675 59.5061 25.9051 59.8459C26.3819 60.3477 27.0619 61.3675 27.9275 61.464C28.3888 61.5205 29.0443 61.3264 29.5861 61.0032C30.0661 60.7035 30.3627 60.2832 30.8661 60.0432C31.2219 59.8651 31.6021 59.8005 31.9419 59.7195C32.6459 59.5819 33.2853 59.5595 33.6656 59.6384C34.248 59.76 35.6235 60.1808 36.3856 60.1808C36.9811 60.1712 37.5733 60.0897 38.1493 59.9381C39.3061 59.5984 40.7056 59.0155 41.6283 58.7568C42.1701 58.5968 42.6069 58.5547 43.0523 58.4576C43.8128 58.2795 44.4517 58.0368 44.816 57.5755C44.5733 57.2923 44.2741 56.8555 42.6555 56.8715C40.8192 56.912 38.6992 57.9312 37.6555 58.0933C36.6117 58.2555 36.1589 58.3925 34.9936 57.9717C33.8512 57.5467 33.8133 57.2656 33.8133 57.2656C33.8133 57.2656 32.6139 56.4267 32.112 54.288C31.6101 52.1493 32.112 50.5909 33.4149 49.1099C33.7547 48.7296 33.6736 48.3899 33.6736 48.3899C33.6736 48.3899 34.5312 47.2331 34.2965 46.1499C34.0379 45.0736 32.3792 45.2923 32.3792 45.2923L23.1803 46.9013H23.1797Z"
      fill="#6E6342" />
    <path fill-rule="evenodd" clip-rule="evenodd"
      d="M24.5632 50.5019C24.4919 50.636 24.4583 50.787 24.4661 50.9387C24.4821 51.1568 24.5472 51.44 25.2021 52.0795C25.7605 52.6373 25.6389 53.2603 25.6389 53.2603C25.6389 53.2603 25.92 53.3168 26.6827 52.96C27.2816 52.6768 27.4827 53.1787 27.4827 53.1787C27.657 53.0872 27.846 53.027 28.0411 53.0005C28.2178 52.9842 28.3889 52.9296 28.5424 52.8405C28.5424 52.8405 29.2464 53.5605 29.8613 53.9003C30.4197 54.2 30.7435 54.4021 31.0187 54.2C31.2773 54.0219 31.2773 53.6576 31.2608 53.496C31.1966 53.3468 31.1154 53.2056 31.0187 53.0752C30.8405 52.8165 30.5573 52.5168 30.5387 52.2752C30.4981 51.7173 30.9595 51.0533 30.8619 50.8917C30.7643 50.7301 30.4011 50.6896 29.5029 51.0133C28.5728 51.3205 24.5595 50.5035 24.5595 50.5035L24.5632 50.5019Z"
      fill="#39331F" />
    <path fill-rule="evenodd" clip-rule="evenodd"
      d="M26.6827 54.1184C26.6827 54.1184 26.2219 53.6816 26.3835 51.5616C26.5791 51.5588 26.7744 51.5777 26.9659 51.6181C26.9659 51.6181 27.2171 53.2608 26.6827 54.1184Z"
      fill="#292311" />
    <path fill-rule="evenodd" clip-rule="evenodd"
      d="M23.3984 45.2832C23.4627 45.2356 23.5223 45.182 23.5765 45.1232C23.4165 45.4224 22.6779 46.6197 23.2768 48.5051C23.8757 50.3819 25.3803 51.7813 27.2331 51.8464C29.0859 51.9115 30.0597 51.0048 31.1733 49.6459C31.6101 49.104 32.112 48.424 32.5568 47.9632C33.2203 47.2427 33.7381 47.0405 33.7381 46.3451C33.7381 44.9211 32.2816 44.2816 30.1376 43.6427C27.9936 43.0037 26.0597 43.0827 25.0565 43.52C24.0779 43.9968 23.6571 44.4987 23.3979 45.2837L23.3984 45.2832Z"
      fill="#252211" />
    <path fill-rule="evenodd" clip-rule="evenodd"
      d="M30.2832 54.7573L30.4432 54.6763C30.4432 54.6763 30.4832 54.0363 30.7424 54.0533C31.0011 54.0939 31.1227 54.4341 31.0981 54.5552C31.0821 54.6763 31.0176 54.8789 30.7584 54.8544C30.4187 54.8624 30.2816 54.7573 30.2816 54.7573H30.2832Z"
      fill="#3F3824" />
    <path fill-rule="evenodd" clip-rule="evenodd"
      d="M29.5632 52.0389C29.5632 52.0389 29.7232 51.9824 29.9189 52.1765C30.0789 52.1765 30.7765 52.0955 30.9952 52.2331C31.2139 52.3707 31.2784 52.4917 31.2784 52.4917C31.2784 52.4917 30.4613 52.6699 30.016 52.4917C29.5632 52.3381 29.5632 52.0389 29.5632 52.0389Z"
      fill="#2D2815" />
    <path fill-rule="evenodd" clip-rule="evenodd"
      d="M33.1637 52.16C33.1637 52.1195 32.7269 51.8203 32.2656 51.7227C32.1845 51.7067 32.168 51.7632 32.1056 51.7632C32.0651 51.7472 32.0491 51.6256 32.0491 51.6256L31.7867 51.7637C31.7867 51.7637 31.7461 51.8203 31.8837 51.9237C32.0048 52.0208 32.2075 52.1019 32.264 52.2635C32.3205 52.4251 32.3205 52.4816 32.3451 52.5061C32.3611 52.5221 32.6443 52.5061 32.7819 52.4251C32.9195 52.344 33.1787 52.2117 33.1621 52.1584L33.1637 52.16Z"
      fill="#82764F" />
    <path fill-rule="evenodd" clip-rule="evenodd"
      d="M29.0779 53.8027C29.0779 53.8027 29.1584 53.2448 29.7008 53.2203C30.2587 53.1797 30.3643 53.7216 30.3643 53.7216L30.0405 54.0453C30.0405 54.0373 29.7979 53.6976 29.0805 53.8027H29.0779Z"
      fill="#2D2816" />
    <path fill-rule="evenodd" clip-rule="evenodd"
      d="M32.5973 51.3995C32.5973 51.3995 32.2976 51.7232 31.6347 51.8203C31.5781 51.7392 31.4565 51.5776 31.6347 51.3189C31.8128 51.0603 32.0149 50.9792 32.2171 51.0597C32.3063 51.0742 32.3894 51.1139 32.4568 51.1741C32.5242 51.2343 32.573 51.3125 32.5973 51.3995Z"
      fill="#574F35" />
    <path fill-rule="evenodd" clip-rule="evenodd"
      d="M33.8187 51.7963C33.8352 51.7152 33.7787 51.6992 33.8187 51.6587C33.8587 51.6181 34.0779 51.5376 34.1184 51.5776C34.1344 51.5941 34.1184 51.6587 34.1184 51.7376C34.1184 51.8165 34.1184 51.8976 34.0779 51.9557C34.0213 52.0368 33.8597 52.0773 33.7787 52.0533C33.6976 52.0293 33.6816 51.9157 33.6816 51.8933C33.7216 51.8773 33.8187 51.8368 33.8187 51.7963ZM35.2 50.9227C35.2 50.8821 35.3376 50.8011 35.4187 50.8011C35.5397 50.8011 35.5397 50.8981 35.5563 50.9227C35.5963 50.9387 35.5963 50.9061 35.6368 50.9792C35.6773 51.0523 35.7344 51.1813 35.6933 51.2624C35.6523 51.3435 35.4912 51.3995 35.4512 51.3835C35.3947 51.3429 35.2165 50.9792 35.2 50.9227Z"
      fill="#82764F" />
    <path fill-rule="evenodd" clip-rule="evenodd"
      d="M32.4192 51.9824C32.4192 51.9824 32.5973 52.0224 32.84 52.2251C32.7589 52.2816 32.6373 52.3461 32.6373 52.3461C32.6373 52.3461 32.6213 52.16 32.4192 51.9819V51.9824Z"
      fill="#6E6342" />
    <path fill-rule="evenodd" clip-rule="evenodd"
      d="M32.0229 50.2021C31.9824 50.1621 32.144 50.0651 32.2411 50.0811C32.3381 50.0971 32.3787 50.1621 32.4837 50.1781C32.5888 50.1941 32.6053 50.1376 32.6437 50.0971C32.6821 50.0565 32.8219 50.0811 32.8459 50.0971C32.8608 50.1148 32.8744 50.1337 32.8864 50.1536C32.8881 50.1228 32.8961 50.0927 32.91 50.0652C32.9238 50.0377 32.9432 50.0133 32.9669 49.9936C32.998 49.9708 33.0338 49.9553 33.0716 49.9483C33.1095 49.9413 33.1485 49.9429 33.1856 49.9531C33.2016 50.0096 33.2827 50.2117 33.2667 50.2523C33.2507 50.2928 33.008 50.3499 32.9669 50.3088C33.0075 50.4064 33.1856 50.6085 33.2096 50.6485C33.2336 50.6885 33.0315 50.7861 32.9509 50.7701C32.8379 50.7621 32.1419 50.3573 32.0208 50.2037L32.0229 50.2021ZM33.0827 48.8592C33.0677 48.8184 33.039 48.7841 33.0016 48.7621C32.9451 48.7461 32.7589 48.7621 32.7589 48.8592C32.7589 48.9563 32.9189 49.4992 33.0987 49.7819C33.3013 50.0651 33.4384 50.2992 33.576 50.3643C33.6192 50.3839 33.6683 50.3865 33.7133 50.3715C33.7583 50.3564 33.796 50.3249 33.8187 50.2832C33.8347 50.2427 33.8752 49.9435 33.8592 49.2395C33.8432 48.5355 33.8187 47.856 33.7781 47.8155C33.7376 47.7749 33.576 47.7755 33.5195 47.856C33.4629 47.9365 33.0987 48.7381 33.0821 48.8592H33.0827Z"
      fill="#585136" />
    <path fill-rule="evenodd" clip-rule="evenodd"
      d="M32.3627 53.0016C32.3627 53.0016 32.0795 52.8235 31.8043 52.9451C31.5456 53.0667 31.5616 53.544 31.5616 53.544C31.6198 53.5668 31.6827 53.575 31.7448 53.5679C31.8069 53.5609 31.8663 53.5387 31.9179 53.5035C32.096 53.3824 32.3221 53.1803 32.3627 53.0021V53.0016Z"
      fill="#574F35" />
    <path fill-rule="evenodd" clip-rule="evenodd"
      d="M32.8965 53.6411C32.8805 53.4811 32.7365 53.4811 32.7365 53.3984C32.7464 53.3589 32.7693 53.3238 32.8015 53.2989C32.8338 53.2739 32.8734 53.2605 32.9141 53.2608C32.9952 53.2608 33.0741 53.3579 33.1733 53.4208C33.2704 53.4773 33.416 53.5808 33.432 53.704C33.448 53.8272 33.272 54.1648 33.0763 54.1648C32.8805 54.1648 32.9387 53.8005 32.8981 53.6389L32.8965 53.6411ZM34.4581 53.4224C34.4581 53.4224 34.1344 53.5195 34.1584 53.4224C34.1824 53.3253 34.256 53.3013 34.3611 53.3013C34.4145 53.2455 34.4862 53.2108 34.5632 53.2037C34.6072 53.2016 34.6504 53.216 34.6843 53.2443C34.6843 53.2443 34.9029 53.1472 34.9675 53.2037C35.032 53.2603 34.984 53.2603 35.024 53.3253C35.0749 53.3975 35.1084 53.4806 35.1216 53.568C35.1216 53.6325 34.8789 53.7701 34.6843 53.7461C34.4581 53.6976 34.4981 53.4629 34.4581 53.4224ZM36.3429 53.0581C36.3429 53.0581 36.44 53.1147 36.3595 53.1797C36.3029 53.2363 36.0197 53.3397 35.7765 53.3579C35.5339 53.3579 35.3157 53.3979 35.3157 53.3173C35.3157 53.2368 35.5179 53.0747 35.6389 53.0341C35.6632 53.0037 35.6941 52.9792 35.7292 52.9624C35.7642 52.9456 35.8027 52.9369 35.8416 52.9371C35.9387 52.9371 36.3184 52.8965 36.424 52.8805C36.5211 52.864 36.6021 52.9205 36.5451 53.0016C36.5211 53.0581 36.3429 53.0581 36.3429 53.0581ZM36.9013 50.56C36.9013 50.56 36.7797 50.8187 36.6427 50.8187C36.5051 50.8027 36.5051 50.7621 36.5051 50.7216C36.5051 50.6651 36.6427 50.5195 36.6261 50.4789C36.5861 50.4789 36.4885 50.4789 36.5051 50.3819C36.5051 50.3008 36.6427 50.2037 36.7637 50.2219C36.8552 50.1467 36.9691 50.1041 37.0875 50.1008C37.2251 50.1008 37.3461 50.1408 37.3461 50.2219C37.3461 50.3029 37.1861 50.4805 37.1275 50.5216C37.0629 50.5861 36.9819 50.6283 36.9013 50.5616V50.56ZM35.0565 55.3413C35.0565 55.3413 34.8965 55.3579 34.8965 55.4384C34.8965 55.4789 34.9365 55.4789 34.9936 55.4549C35.0265 55.4531 35.059 55.4475 35.0907 55.4384C35.1067 55.4549 35.1067 55.5355 35.2283 55.5355C35.3281 55.522 35.4243 55.489 35.5115 55.4384C35.6085 55.3984 35.6896 55.3573 35.6896 55.2784C35.6491 55.1408 35.568 55.0757 35.4469 55.0757C35.3849 55.0718 35.323 55.0859 35.2688 55.1163C35.2688 55.1163 35.2283 55.0352 35.0907 55.1163C34.9531 55.1973 34.9691 55.1973 35.0096 55.2379C35.0821 55.3024 35.0581 55.3445 35.0581 55.3445L35.0565 55.3413ZM34.1424 56.1829C34.1424 56.1424 34.3445 56.0613 34.4011 56.0859C34.4576 56.1019 34.6192 56.4091 34.6192 56.4416C34.6192 56.4821 34.4171 56.5792 34.336 56.5792C34.2549 56.5792 34.1179 56.4416 34.1179 56.4192C34.1179 56.4032 34.2149 56.3792 34.2149 56.3627C34.2389 56.3227 34.1424 56.2251 34.1424 56.1845V56.1829ZM33.5024 55.0016C33.5429 54.9856 33.5429 54.9451 33.5995 54.9045C33.6172 54.8928 33.6373 54.8852 33.6584 54.8824C33.6795 54.8796 33.7009 54.8817 33.7211 54.8885C33.7353 54.8631 33.7551 54.8411 33.7789 54.8242C33.8027 54.8074 33.8299 54.796 33.8587 54.7909C33.9557 54.7749 34.0368 54.7909 34.0187 54.8315C34.0187 54.9531 34.0997 55.0336 34.0997 55.1307C34.0997 55.2277 34.0432 55.3493 33.8411 55.4304C33.6389 55.4869 33.3637 55.4869 33.3232 55.4709C33.2827 55.4549 33.2421 55.2928 33.2827 55.2117C33.3232 55.1307 33.4363 55.0421 33.5013 55.0016H33.5024Z"
      fill="#82764F" />
    <path fill-rule="evenodd" clip-rule="evenodd"
      d="M33.76 55.0565C33.76 55.0565 33.6224 55.1376 33.6224 55.1781C33.6102 55.2173 33.6048 55.2582 33.6064 55.2992C33.6064 55.3232 33.7845 55.2832 33.8085 55.2587C33.8165 55.2427 33.76 55.0987 33.76 55.0565Z"
      fill="#6E6342" />
    <path fill-rule="evenodd" clip-rule="evenodd"
      d="M32.5568 54.6763C32.6373 54.6928 32.7749 54.6763 32.88 54.7168C32.9611 54.7573 33.0176 54.8384 32.9365 54.9355C32.8555 55.0325 32.7765 55.1781 32.5968 55.1536C32.3947 55.1376 32.2005 55.0325 32.2005 54.9515C32.1971 54.9002 32.204 54.8487 32.2206 54.8001C32.2373 54.7515 32.2635 54.7067 32.2976 54.6683C32.3787 54.6037 32.4187 54.6443 32.5563 54.6763H32.5568Z"
      fill="#585136" />
    <path fill-rule="evenodd" clip-rule="evenodd"
      d="M32.4597 54.7573C32.4597 54.7573 32.2011 54.9595 32.136 55.0571C32.0549 55.1541 31.6587 55.6555 31.5376 55.7605C31.5778 55.6896 31.6236 55.622 31.6747 55.5584C31.5147 55.6607 31.3947 55.8149 31.3349 55.9952C31.2379 56.2949 31.8773 56.4565 32.2976 56.5781C32.7179 56.6997 32.8805 56.7381 32.8805 56.7381C32.7258 56.5056 32.593 56.2592 32.4837 56.0021C32.3237 55.6219 32.2411 55.5813 32.3461 55.4032C32.4272 55.2251 32.5488 55.104 32.5488 54.9664C32.5003 54.8384 32.4597 54.7573 32.4597 54.7573Z"
      fill="#574F35" />
    <path fill-rule="evenodd" clip-rule="evenodd"
      d="M23.2363 55.3968C23.2952 55.4076 23.3555 55.4076 23.4144 55.3968C23.5355 55.3803 24.7979 54.9168 26.1168 55C27.1042 55.0597 28.0828 55.2205 29.0373 55.48C30.696 55.9168 32.7589 56.7824 34.0939 57.2763C34.4496 57.4133 34.7979 57.6565 35.0539 57.7531C36.0736 58.1499 36.1136 58.1499 36.7125 58.2549C37.4165 58.352 38.1365 58.1173 38.8891 57.9557C39.8112 57.7531 41.3888 57.656 42.7723 57.4539C43.2196 57.3919 43.6609 57.2918 44.0912 57.1547C44.0912 57.1547 42.9909 58.2549 40.3531 58.6512C39.2868 58.8131 38.2033 58.8268 37.1333 58.6917C36.2917 58.6107 35.7339 58.4891 35.3131 58.368C34.8357 58.2304 33.8565 57.8661 32.6512 57.568C31.8096 57.3493 30.8709 57.1877 29.7952 56.9856C27.1413 56.4997 24.2613 55.9419 23.2352 55.4L23.2363 55.3968Z"
      fill="#252211" />
    <path fill-rule="evenodd" clip-rule="evenodd"
      d="M20.2587 50.3968C19.6187 50.9387 18.9397 51.4565 18.2768 51.9579L16.2784 53.4933C15.5989 53.9947 14.9355 54.5125 14.2555 55.0144C13.5755 55.5163 12.8965 55.9931 12.1755 56.4544C12.8155 55.9125 13.4944 55.4107 14.1739 54.9173C14.8533 54.424 15.5579 53.9403 16.2133 53.44L18.2117 51.9024C18.8992 51.4011 19.5627 50.8832 20.2587 50.3979V50.3968ZM16.7232 56.0603C16.7232 56.0603 17.4432 55.4613 18.3413 54.6203C19.4576 53.5771 20.8251 52.2416 21.2619 51.9995L16.7227 56.0608L16.7232 56.0603Z"
      fill="#CFB66C" />
    <path fill-rule="evenodd" clip-rule="evenodd"
      d="M16.7232 56.0597C17.0795 55.704 17.4597 55.3563 17.84 55.016L18.4224 54.5147C18.6005 54.3547 18.8032 54.1749 18.9808 53.9968C19.3365 53.6411 19.6848 53.2603 20.0405 52.8965C20.2168 52.7136 20.4033 52.5407 20.5989 52.3787C20.6967 52.2921 20.8054 52.2186 20.9221 52.16C21.0197 52.1035 21.1248 52 21.2619 51.9819C21.1813 52.1035 21.0843 52.16 21.0032 52.2651C20.9061 52.3461 20.8251 52.4432 20.7445 52.5237C20.5664 52.7019 20.3643 52.8635 20.1861 53.0256C19.8059 53.3493 19.4096 53.6656 19.0293 54.0043C18.6491 54.3429 18.2933 54.7083 17.9125 55.048C17.5003 55.3963 17.12 55.736 16.7232 56.0613V56.0597ZM21.5616 52.8235C21.5616 52.8235 18.9243 55.4048 18.3819 55.8251L21.5616 52.8235Z"
      fill="#CFB66C" />
    <path fill-rule="evenodd" clip-rule="evenodd"
      d="M21.5616 52.8235C21.3243 53.0981 21.07 53.3575 20.8 53.6L20 54.3605C19.7413 54.6192 19.4981 54.8784 19.2235 55.1371C18.9403 55.3797 18.6816 55.6171 18.3819 55.8411L19.1584 55.0805C19.4176 54.8219 19.7008 54.6037 19.976 54.3445L20.7525 53.584C21.0192 53.3173 21.2784 53.0581 21.5616 52.8235ZM21.6827 54.2229C21.4396 54.9014 21.1531 55.5636 20.8251 56.2053C20.1456 57.5648 19.1264 59.2635 18.6811 60.1296L21.6827 54.2229Z"
      fill="#CFB66C" />
    <path fill-rule="evenodd" clip-rule="evenodd"
      d="M21.6827 54.2235C21.6827 54.5227 21.6016 54.7819 21.5045 55.0405C21.4099 55.2994 21.302 55.5533 21.1813 55.8011C21.0597 56.0437 20.9221 56.3029 20.7845 56.5376C20.6469 56.7723 20.4853 57.0144 20.3637 57.2576L19.5467 58.6976C19.2635 59.1776 18.9883 59.6603 18.6891 60.1216C18.8912 59.6037 19.1664 59.1184 19.4256 58.6411C19.7088 58.1611 19.9675 57.6811 20.2256 57.1845C20.3516 56.9371 20.465 56.6834 20.5653 56.4245C20.6864 56.1653 20.8075 55.9227 20.9051 55.688C21.0261 55.4293 21.1232 55.1861 21.2448 54.952C21.3819 54.7008 21.4955 54.4581 21.6816 54.2235H21.6827Z"
      fill="#CFB66C" />
    <path fill-rule="evenodd" clip-rule="evenodd"
      d="M24.5632 60.8576C24.5632 60.8576 23.7632 61.9173 23.8432 63.2603C24.0613 62.5568 24.3365 61.4805 24.5632 60.8576ZM25.3237 61.92C25.3237 61.92 25.0405 64.8 24.8059 66.216C25.1376 64.5792 25.2021 64.7168 25.3237 61.92ZM30.6229 66.3861C30.6229 66.3861 29.4256 69.9061 29.4011 70.8843C29.6603 69.8784 30.1616 67.8235 30.6229 66.3835V66.3861Z"
      fill="#DEC270" />
    <path fill-rule="evenodd" clip-rule="evenodd"
      d="M33.4224 60.64C33.4224 60.64 35.3643 63.8437 36.8208 66.5781C36.4267 65.2021 35.52 62.6784 33.4224 60.64Z"
      fill="#CBAF59" />
    <path fill-rule="evenodd" clip-rule="evenodd"
      d="M38.6411 65.3563C39.7072 67.2409 40.6687 69.1828 41.5211 71.1733C41.3595 69.7979 40.9221 67.4437 38.6411 65.3563Z"
      fill="#E3C677" />
    <path fill-rule="evenodd" clip-rule="evenodd"
      d="M53.9808 70.08C54.304 69.8779 54.9435 68.7771 55.5019 68.5024C56.0597 68.2192 56.4805 68.1627 56.9824 67.6043C57.4837 67.0213 57.6224 66.6656 58.7216 66.2048C60.2592 65.5408 59.2016 64.6832 59.2016 64.6832C59.371 64.5168 59.5521 64.3629 59.7435 64.2224C60.1403 63.9232 60.6011 63.5589 60.5611 62.9195C60.5045 61.8437 60.3024 60.2821 59.4203 59.376C60.2779 59.1979 61.92 59.0768 62.9403 58.8181C64.1211 58.5184 64.6635 58.0976 64.6635 58.0976C64.6635 58.0976 63.984 56.9408 65.0843 55.776C66.1845 54.6112 67.0827 53.9152 67.7461 52.6123C66.9856 52.5152 65.8261 52.1109 62.8672 53.2352C63.0269 53.3104 63.1811 53.3968 63.3285 53.4939C63.3285 53.4939 61.5083 53.9957 60.8448 54.5541C59.6875 55.5328 59.5419 56.3339 58.288 56.9328C57.0341 57.5317 55.7717 57.3696 54.7285 57.8549C53.6853 58.3403 53.5312 58.7531 53.1504 58.9312C53.2315 59.0283 53.1344 59.1899 53.288 59.3275C53.1909 59.4651 52.6245 60.3872 52.0501 60.3872C52.1067 60.6059 52.592 60.7675 52.592 60.7675C52.592 60.7675 52.2363 61.0267 51.3301 61.0912C51.7909 61.5712 52.2283 62.0944 53.4336 62.8549C53.3365 63.0571 52.9317 63.3568 53.0939 63.7371C53.272 64.1173 53.7339 64.6352 55.5776 65.056C54.6389 65.096 53.5392 65.3147 52.0576 65.1125C50.5771 64.9344 50.3344 64.8293 49.4203 65.056C49.5173 65.1531 49.776 65.1531 50.0027 65.4117C49.76 65.4277 48.2389 65.2336 47.7211 65.9136C47.1792 66.6171 46.9445 67.7744 46.9851 68.5509C46.7019 68.6885 46.4267 68.9312 46.5643 69.4331C46.7019 69.9349 47.4219 70.0965 47.8832 70.4117C48.344 70.7515 48.3845 70.8725 48.8219 70.792C49.2827 70.6949 49.9621 70.2341 50.3589 70.2341C50.7557 70.2341 51.0384 70.5333 51.0384 70.5333C51.0384 70.5333 52.1147 70.0155 52.2197 70.1125C52.3168 70.2096 52.2357 70.8325 52.3408 70.9296C52.4475 71.0027 53.6597 70.2827 53.9835 70.08H53.9808Z"
      fill="#ECD592" />
    <path fill-rule="evenodd" clip-rule="evenodd"
      d="M77.5003 37.7024C72.4437 24.6443 59.9435 22.2251 59.9435 22.2251H24.28L24.4176 35.5259H31.52V65.2267H24.2795V78.5035H58.9563C67.3136 78.5035 74.0128 70.1051 74.0128 70.1051C84.7408 54.8789 77.4997 37.7024 77.4997 37.7024H77.5003ZM59.1424 61.1568C59.1424 61.1568 56.4224 65.0811 53.4629 65.0811H47.5429L47.4027 35.5584H55C55 35.5584 58.52 36.2944 60.9792 43.2603C60.9792 43.2603 64.2395 53.2336 59.1424 61.1568Z"
      fill="white" fill-opacity="0.8" />
  </g>
  <defs>
    <clipPath id="clip0_1_26">
      <rect width="100" height="100" fill="white" />
    </clipPath>
  </defs>
</svg>