<svg width="90" height="100" viewBox="0 0 90 100" fill="none" xmlns="http://www.w3.org/2000/svg">
  <path
    d="M4.03999 30.4V69.6C4.03999 72.12 5.35999 74.4 7.55999 75.68L41.52 95.28C43.68 96.52 46.36 96.52 48.52 95.28L82.48 75.68C84.64 74.44 86 72.12 86 69.6V30.4C86 27.88 84.68 25.6 82.48 24.32L48.52 4.72001C46.36 3.48001 43.68 3.48001 41.52 4.72001L7.55999 24.32C5.39999 25.56 4.07999 27.88 4.07999 30.4H4.03999Z"
    fill="#213147" />
  <path
    d="M52.4 57.6L47.56 70.88C47.44 71.24 47.44 71.64 47.56 72.04L55.88 94.88L65.52 89.32L53.96 57.6C53.68 56.88 52.68 56.88 52.4 57.6Z"
    fill="#12AAFF" />
  <path
    d="M62.12 35.28C61.84 34.56 60.84 34.56 60.56 35.28L55.72 48.56C55.6 48.92 55.6 49.32 55.72 49.72L69.36 87.12L79 81.56L62.12 35.32V35.28Z"
    fill="#12AAFF" />
  <path
    d="M45 6.2C45.24 6.2 45.48 6.28 45.68 6.4L82.4 27.6C82.84 27.84 83.08 28.32 83.08 28.8V71.2C83.08 71.68 82.8 72.16 82.4 72.4L45.68 93.6C45.48 93.72 45.24 93.8 45 93.8C44.76 93.8 44.52 93.72 44.32 93.6L7.59999 72.4C7.15999 72.16 6.91999 71.68 6.91999 71.2V28.76C6.91999 28.28 7.19999 27.8 7.59999 27.56L44.32 6.36C44.52 6.24 44.76 6.16 45 6.16V6.2ZM45 0C43.68 0 42.4 0.32 41.2 1L4.47999 22.2C2.11999 23.56 0.679993 26.04 0.679993 28.76V71.16C0.679993 73.88 2.11999 76.36 4.47999 77.72L41.2 98.92C42.36 99.6 43.68 99.92 45 99.92C46.32 99.92 47.6 99.6 48.8 98.92L85.52 77.72C87.88 76.36 89.32 73.88 89.32 71.16V28.76C89.32 26.04 87.88 23.56 85.52 22.2L48.76 1C47.6 0.32 46.28 0 44.96 0H45Z"
    fill="#9DCCED" />
  <path d="M20.68 87.16L24.08 77.88L30.88 83.52L24.52 89.36L20.68 87.16Z" fill="#213147" />
  <path
    d="M41.88 25.76H32.56C31.88 25.76 31.24 26.2 31 26.84L11.04 81.56L20.68 87.12L42.68 26.84C42.88 26.28 42.48 25.72 41.92 25.72L41.88 25.76Z"
    fill="white" />
  <path
    d="M58.2 25.76H48.88C48.2 25.76 47.56 26.2 47.32 26.84L24.52 89.32L34.16 94.88L58.96 26.84C59.16 26.28 58.76 25.72 58.2 25.72V25.76Z"
    fill="white" />
</svg>