<svg width="799" height="446" viewBox="0 0 799 446" fill="none" xmlns="http://www.w3.org/2000/svg">
  <path
    d="M256.865 105.915V242.397C256.865 250.763 261.732 259.129 268.731 263.284L387.113 331.525C394.768 335.681 403.845 335.681 411.5 331.525L529.882 263.284C537.538 259.129 541.748 250.763 541.748 242.397V105.915C541.748 97.5492 536.881 89.1831 529.882 85.0275L411.446 16.7868C403.79 12.6311 394.713 12.6311 387.058 16.7868L268.676 85.0275C261.021 89.1831 256.865 97.5492 256.865 105.915Z"
    fill="#213147" />
  <path
    d="M425.389 200.621L408.657 246.607C407.946 247.974 407.946 249.396 408.657 250.763L437.911 330.158L471.32 310.637L430.912 200.621C430.256 197.832 426.756 197.832 425.389 200.621Z"
    fill="#12AAFF" />
  <path
    d="M458.799 122.647C458.088 119.858 454.643 119.858 453.221 122.647L436.489 168.633C435.778 170 435.778 171.422 436.489 172.789L483.842 303.037L517.252 283.516L458.799 122.647Z"
    fill="#12AAFF" />
  <path
    d="M398.924 21.6533C399.635 21.6533 400.291 21.6533 401.002 22.3641L529.117 96.1821C530.484 96.8929 531.195 98.2599 531.195 100.338V247.974C531.195 249.341 530.484 251.473 529.117 252.129L401.002 325.947C400.291 326.658 399.635 326.658 398.924 326.658C398.213 326.658 397.557 326.658 396.846 325.947L268.731 252.129C267.364 251.419 266.653 250.052 266.653 247.974V100.338C266.653 98.9708 267.364 96.8382 268.731 96.1821L396.846 22.3641C397.502 21.6533 398.213 21.6533 398.924 21.6533ZM398.924 0.0546875C394.058 0.0546875 389.847 1.42169 385.692 3.55421L257.576 77.3722C249.21 82.2387 244.344 90.6047 244.344 100.338V247.974C244.344 257.051 249.21 266.073 257.576 270.939L385.692 344.757C389.847 346.835 394.058 348.257 398.924 348.257C403.791 348.257 408.001 346.89 412.157 344.757L540.272 270.939C548.638 266.073 553.504 257.707 553.504 247.974V100.338C553.504 91.2609 548.638 82.2387 540.272 77.3722L412.813 3.55421C408.657 1.47637 404.447 0.0546875 399.58 0.0546875H398.924Z"
    fill="#9DCCED" />
  <path d="M314.662 302.982L326.473 270.939L350.149 290.46L327.895 311.348L314.662 302.982Z" fill="#213147" />
  <path
    d="M388.48 89.8939H355.727C353.649 89.8939 350.86 91.2609 350.15 93.3934L280.542 284.172L313.951 303.693L390.558 94.0496C391.269 91.9718 389.847 89.8939 387.769 89.8939H388.48Z"
    fill="white" />
  <path
    d="M444.855 89.894H412.102C410.024 89.894 407.235 91.261 406.524 93.3935L327.184 310.637L360.593 330.158L446.933 93.3935C447.644 91.3156 446.222 89.2378 444.144 89.2378L444.855 89.894Z"
    fill="white" />
  <path
    d="M51.4112 373C54.2477 373 56.508 373.576 58.1922 374.684C59.8763 375.792 61.5605 378.052 63.289 380.889L97.7256 442.981C98.3018 443.557 98.3018 444.089 97.7256 444.665C97.7256 445.242 97.1494 445.242 96.0414 445.242H83.0557C81.9477 445.242 81.3715 444.665 80.7954 444.134L73.3939 430.572H24.8635L17.5064 444.134C16.9302 445.242 16.3984 445.242 15.2461 445.242H1.68415C0.576155 445.242 0 445.242 0 444.665C0 444.089 0 443.557 0 442.981L33.8605 380.889C35.5446 377.521 37.2288 375.792 38.9573 374.684C40.6857 373.576 42.3256 373 44.5859 373H50.7907H51.4112ZM31.0683 418.738H66.613L50.2589 388.246C49.6827 387.67 49.6827 387.67 49.1509 387.67H48.5747C47.9985 387.67 47.4667 387.67 47.4667 388.246L31.0683 418.738Z"
    fill="#213147" />
  <path
    d="M172.759 373C180.648 373 186.321 374.684 189.689 378.629C193.058 381.997 194.786 387.67 194.786 394.451V400.08C194.786 406.284 193.678 410.805 191.418 414.173C189.157 417.542 185.213 419.802 179.584 420.954L197.091 442.981C197.667 443.557 197.667 444.089 197.667 444.665C197.667 445.242 197.091 445.773 195.983 445.773H182.421C181.313 445.773 180.737 445.773 180.737 445.197C180.16 445.197 180.16 444.621 179.629 444.089L163.275 422.638H129.99V443.513C129.99 445.197 129.414 445.773 127.73 445.773H116.428C114.744 445.773 114.168 445.197 114.168 443.513V376.368C114.168 374.108 115.276 373 117.536 373H173.424H172.759ZM129.857 410.229H169.346C172.715 410.229 175.551 409.653 176.703 407.968C178.388 406.284 178.964 404.024 178.964 401.188V396.667C178.964 393.299 178.388 391.038 176.703 389.886C175.019 388.202 172.759 387.626 169.346 387.626H130.965C129.857 387.626 129.857 388.202 129.857 388.734V410.229Z"
    fill="#213147" />
  <path
    d="M281.698 373C289.055 373 294.108 374.684 296.944 377.521C299.781 380.357 301.465 384.878 301.465 390.506V395.603C301.465 401.232 299.204 405.752 294.684 408.589C299.204 411.425 302.041 415.946 302.041 422.151V428.356C302.041 431.192 301.465 433.452 300.933 435.713C300.401 437.973 299.249 439.657 298.096 441.341C296.412 443.026 294.728 444.178 292.468 444.71C290.207 445.286 287.371 445.818 284.003 445.818H222.486C220.226 445.818 219.118 444.71 219.118 442.449V376.413C219.118 374.152 220.226 373.044 222.486 373.044H282.318H281.698V373ZM234.852 402.916H277.177C280.546 402.916 282.806 402.34 283.958 401.232C285.111 400.124 285.642 398.972 285.642 396.711V393.343C285.642 391.083 285.066 389.398 283.958 388.822C282.85 387.714 280.59 387.138 278.33 387.138H236.004C234.896 387.138 234.896 387.714 234.896 388.246V402.916H234.852ZM234.852 414.218V429.464C234.852 430.572 235.428 430.572 235.96 430.572H278.285C281.122 430.572 282.806 429.996 283.914 428.888C285.022 427.78 285.598 426.051 285.598 424.367V420.422C285.598 418.162 285.022 416.478 283.914 415.326C282.806 414.173 280.546 413.641 276.557 413.641H234.276L234.852 414.218Z"
    fill="#213147" />
  <path
    d="M340.377 373C342.061 373 342.638 373.576 342.638 375.26V442.981C342.638 444.665 342.061 445.242 340.377 445.242H329.076C327.392 445.242 326.815 444.665 326.815 442.981V375.26C326.815 373.576 327.392 373 329.076 373H340.377Z"
    fill="#213147" />
  <path
    d="M449.316 373C451 373 451.576 373.576 451.576 375.26V385.41C451.576 387.094 451 387.67 449.316 387.67H416.564V442.981C416.564 444.665 415.987 445.242 414.303 445.242H403.002C401.317 445.242 400.741 444.665 400.741 442.981V387.67H367.989C366.305 387.67 365.729 387.094 365.729 385.41V375.26C365.729 373.576 366.305 373 367.989 373H448.696H449.316Z"
    fill="#213147" />
  <path
    d="M531.175 373C539.064 373 544.737 374.684 548.105 378.629C551.474 381.997 553.202 387.67 553.202 394.451V400.08C553.202 406.284 552.094 410.805 549.834 414.173C547.573 417.542 543.629 419.802 538 420.954L555.507 442.981C556.083 443.557 556.083 444.089 556.083 444.665C556.083 445.242 555.507 445.773 554.399 445.773H540.837C539.729 445.773 539.153 445.773 539.153 445.197C538.576 445.197 538.576 444.621 538.045 444.089L521.691 422.638H488.406V443.513C488.406 445.197 487.83 445.773 486.146 445.773H474.844C473.16 445.773 472.584 445.197 472.584 443.513V376.368C472.584 374.108 473.692 373 475.952 373H531.84H531.175ZM488.273 410.229H527.762C531.131 410.229 533.967 409.653 535.12 407.968C536.804 406.284 537.38 404.024 537.38 401.188V396.667C537.38 393.299 536.804 391.038 535.12 389.886C533.435 388.202 531.175 387.626 527.762 387.626H489.381C488.273 387.626 488.273 388.202 488.273 388.734V410.229Z"
    fill="#213147" />
  <path
    d="M589.323 373C591.007 373 591.584 373.576 591.584 375.26V416.478C591.584 419.314 591.584 421.575 592.16 423.259C592.736 424.943 593.268 426.627 594.42 427.78C595.572 428.932 596.68 429.464 598.365 430.04C600.049 430.616 602.309 430.616 605.145 430.616H633.953C636.79 430.616 639.05 430.616 640.734 430.04C642.419 429.464 644.103 428.932 644.679 427.78C645.787 426.672 646.363 424.943 646.939 423.259C647.515 421.575 647.515 419.314 647.515 416.478V375.26C647.515 373.576 648.092 373 649.776 373H661.077C662.761 373 663.338 373.576 663.338 375.26V418.162C663.338 423.259 662.761 427.203 661.653 430.572C660.545 433.94 658.817 436.777 656.557 439.037C654.296 441.297 651.46 442.981 647.515 443.557C643.571 444.665 639.626 445.242 633.953 445.242H604.037C598.941 445.242 594.42 444.665 590.476 443.557C587.107 442.449 583.695 440.721 581.434 439.037C579.174 436.777 577.49 433.94 576.338 430.572C575.23 427.203 574.653 422.683 574.653 418.162V375.26C574.653 373.576 575.229 373 576.914 373H588.215H589.323Z"
    fill="#213147" />
  <path
    d="M707.835 373C709.519 373 710.672 373 711.78 373.576C712.888 373.576 714.04 374.152 714.616 374.684C715.192 375.26 716.3 375.792 716.876 376.944C717.453 378.052 717.984 379.205 719.137 380.889L740.588 430.572C741.164 431.148 741.164 431.68 742.272 431.68H743.38C743.956 431.68 744.488 431.104 745.064 430.572L766.515 380.889C767.091 379.205 767.623 378.052 768.775 376.944C769.351 375.836 769.883 375.26 771.035 374.684C771.612 374.108 772.72 373.576 773.872 373.576C775.024 373.576 776.132 373 777.816 373H789.118C792.486 373 795.323 373.576 796.475 375.26C797.583 376.944 798.159 379.781 798.159 383.725V442.981C798.159 444.665 797.583 445.242 795.899 445.242H785.174C783.489 445.242 782.913 444.665 782.913 442.981V388.822C782.913 388.246 782.337 387.714 782.337 387.714H781.229C780.653 387.714 780.121 388.29 780.121 388.29L759.246 434.56C758.67 436.245 757.562 437.929 756.41 439.081C755.258 440.233 754.726 441.341 753.573 442.449C752.465 443.026 751.313 444.134 750.205 444.134C749.097 444.71 747.369 444.71 745.684 444.71H740.588C738.903 444.71 737.219 444.71 736.067 444.134C734.915 443.557 733.807 443.026 732.699 442.449C731.591 441.873 731.014 440.765 729.862 439.081C728.754 437.973 728.178 436.245 727.026 434.56L706.151 388.29C706.151 387.714 705.575 387.714 705.043 387.714H703.935C703.359 387.714 703.359 388.29 703.359 388.822V443.026C703.359 444.71 702.783 445.286 701.099 445.286H690.329C688.645 445.286 688.068 444.71 688.068 443.026V383.725C688.068 379.781 688.645 376.944 689.753 375.26C690.861 373.576 693.697 373 697.11 373H708.411H707.835Z"
    fill="#213147" />
</svg>