<svg width="10" height="13" viewBox="0 0 10 13" fill="none" xmlns="http://www.w3.org/2000/svg">
  <path
    d="M0.125117 0.875114V12.1251C0.125475 12.239 0.156889 12.3507 0.215979 12.448C0.275068 12.5454 0.359595 12.6248 0.460463 12.6777C0.56133 12.7306 0.674718 12.755 0.78842 12.7483C0.902122 12.7416 1.01183 12.7039 1.10574 12.6395L9.23074 7.01449C9.56762 6.78136 9.56762 6.22012 9.23074 5.98636L1.10574 0.361364C1.01203 0.296255 0.902262 0.258073 0.78837 0.250968C0.674479 0.243862 0.560819 0.268104 0.459738 0.321061C0.358657 0.374017 0.274021 0.453662 0.215028 0.551342C0.156034 0.649022 0.124938 0.761002 0.125117 0.875114ZM7.77699 6.50011L1.37512 10.9326V2.06761L7.77699 6.50011Z"
    fill="#12141D" />
</svg>