<svg width="99" height="197" viewBox="0 0 99 197" fill="none" xmlns="http://www.w3.org/2000/svg">
  <path
    d="M95.905 1.22614C95.905 1.90332 96.4004 2.45228 97.0116 2.45228C97.6227 2.45228 98.1182 1.90332 98.1182 1.22614C98.1182 0.548961 97.6227 0 97.0116 0C96.4004 0 95.905 0.548961 95.905 1.22614Z"
    fill="black" />
  <path
    d="M76.7243 1.22614C76.7243 1.90332 77.2197 2.45228 77.8309 2.45228C78.4421 2.45228 78.9375 1.90332 78.9375 1.22614C78.9375 0.548961 78.4421 0 77.8309 0C77.2197 0 76.7243 0.548961 76.7243 1.22614Z"
    fill="black" />
  <path
    d="M57.5427 1.22614C57.5427 1.90332 58.0381 2.45228 58.6493 2.45228C59.2604 2.45228 59.7559 1.90332 59.7559 1.22614C59.7559 0.548961 59.2604 0 58.6493 0C58.0381 0 57.5427 0.548961 57.5427 1.22614Z"
    fill="black" />
  <path
    d="M38.36 1.22614C38.36 1.90332 38.8555 2.45228 39.4666 2.45228C40.0778 2.45228 40.5732 1.90332 40.5732 1.22614C40.5732 0.548961 40.0778 0 39.4666 0C38.8555 0 38.36 0.548961 38.36 1.22614Z"
    fill="black" />
  <path
    d="M19.1804 1.22614C19.1804 1.90332 19.6758 2.45228 20.287 2.45228C20.8981 2.45228 21.3936 1.90332 21.3936 1.22614C21.3936 0.548961 20.8981 0 20.287 0C19.6758 0 19.1804 0.548961 19.1804 1.22614Z"
    fill="black" />
  <path
    d="M-0.000309467 1.22614C-0.000309467 1.90332 0.495132 2.45228 1.10629 2.45228C1.71745 2.45228 2.21289 1.90332 2.21289 1.22614C2.21289 0.548961 1.71745 0 1.10629 0C0.495132 0 -0.000309467 0.548961 -0.000309467 1.22614Z"
    fill="black" />
  <path
    d="M95.905 29.0196C95.905 29.6968 96.4004 30.2457 97.0116 30.2457C97.6227 30.2457 98.1182 29.6968 98.1182 29.0196C98.1182 28.3424 97.6227 27.7935 97.0116 27.7935C96.4004 27.7935 95.905 28.3424 95.905 29.0196Z"
    fill="black" />
  <path
    d="M76.7233 29.0196C76.7233 29.6968 77.2188 30.2457 77.8299 30.2457C78.4411 30.2457 78.9365 29.6968 78.9365 29.0196C78.9365 28.3424 78.4411 27.7935 77.8299 27.7935C77.2188 27.7935 76.7233 28.3424 76.7233 29.0196Z"
    fill="black" />
  <path
    d="M57.5427 29.0196C57.5427 29.6968 58.0381 30.2457 58.6493 30.2457C59.2604 30.2457 59.7559 29.6968 59.7559 29.0196C59.7559 28.3424 59.2604 27.7935 58.6493 27.7935C58.0381 27.7935 57.5427 28.3424 57.5427 29.0196Z"
    fill="black" />
  <path
    d="M38.36 29.0196C38.36 29.6968 38.8555 30.2457 39.4666 30.2457C40.0778 30.2457 40.5732 29.6968 40.5732 29.0196C40.5732 28.3424 40.0778 27.7935 39.4666 27.7935C38.8555 27.7935 38.36 28.3424 38.36 29.0196Z"
    fill="black" />
  <path
    d="M19.1804 29.0196C19.1804 29.6968 19.6758 30.2457 20.287 30.2457C20.8981 30.2457 21.3936 29.6968 21.3936 29.0196C21.3936 28.3424 20.8981 27.7935 20.287 27.7935C19.6758 27.7935 19.1804 28.3424 19.1804 29.0196Z"
    fill="black" />
  <path
    d="M-0.000309467 29.0196C-0.000309467 29.6968 0.495132 30.2457 1.10629 30.2457C1.71745 30.2457 2.21289 29.6968 2.21289 29.0196C2.21289 28.3424 1.71745 27.7935 1.10629 27.7935C0.495132 27.7935 -0.000309467 28.3424 -0.000309467 29.0196Z"
    fill="black" />
  <path
    d="M95.905 56.8113C95.905 57.4885 96.4004 58.0375 97.0116 58.0375C97.6227 58.0375 98.1182 57.4885 98.1182 56.8113C98.1182 56.1342 97.6227 55.5852 97.0116 55.5852C96.4004 55.5852 95.905 56.1342 95.905 56.8113Z"
    fill="black" />
  <path
    d="M76.7233 56.8113C76.7233 57.4885 77.2188 58.0375 77.8299 58.0375C78.4411 58.0375 78.9365 57.4885 78.9365 56.8113C78.9365 56.1342 78.4411 55.5852 77.8299 55.5852C77.2188 55.5852 76.7233 56.1342 76.7233 56.8113Z"
    fill="black" />
  <path
    d="M57.5427 56.8113C57.5427 57.4885 58.0381 58.0375 58.6493 58.0375C59.2604 58.0375 59.7559 57.4885 59.7559 56.8113C59.7559 56.1342 59.2604 55.5852 58.6493 55.5852C58.0381 55.5852 57.5427 56.1342 57.5427 56.8113Z"
    fill="black" />
  <path
    d="M95.905 84.6038C95.905 85.281 96.4004 85.83 97.0116 85.83C97.6227 85.83 98.1182 85.281 98.1182 84.6038C98.1182 83.9266 97.6227 83.3777 97.0116 83.3777C96.4004 83.3777 95.905 83.9266 95.905 84.6038Z"
    fill="black" />
  <path
    d="M76.7243 84.6038C76.7243 85.281 77.2197 85.83 77.8309 85.83C78.4421 85.83 78.9375 85.281 78.9375 84.6038C78.9375 83.9266 78.4421 83.3777 77.8309 83.3777C77.2197 83.3777 76.7243 83.9266 76.7243 84.6038Z"
    fill="black" />
  <path
    d="M95.905 112.396C95.905 113.073 96.4004 113.622 97.0116 113.622C97.6227 113.622 98.1182 113.073 98.1182 112.396C98.1182 111.719 97.6227 111.17 97.0116 111.17C96.4004 111.17 95.905 111.719 95.905 112.396Z"
    fill="black" />
  <path
    d="M76.7233 112.396C76.7233 113.073 77.2188 113.622 77.8299 113.622C78.4411 113.622 78.9365 113.073 78.9365 112.396C78.9365 111.719 78.4411 111.17 77.8299 111.17C77.2188 111.17 76.7233 111.719 76.7233 112.396Z"
    fill="black" />
  <path
    d="M95.905 140.189C95.905 140.866 96.4004 141.415 97.0116 141.415C97.6227 141.415 98.1182 140.866 98.1182 140.189C98.1182 139.512 97.6227 138.963 97.0116 138.963C96.4004 138.963 95.905 139.512 95.905 140.189Z"
    fill="black" />
  <path
    d="M76.7233 140.189C76.7233 140.866 77.2188 141.415 77.8299 141.415C78.4411 141.415 78.9365 140.866 78.9365 140.189C78.9365 139.512 78.4411 138.963 77.8299 138.963C77.2188 138.963 76.7233 139.512 76.7233 140.189Z"
    fill="black" />
  <path
    d="M95.905 167.981C95.905 168.659 96.4004 169.208 97.0116 169.208C97.6227 169.208 98.1182 168.659 98.1182 167.981C98.1182 167.304 97.6227 166.755 97.0116 166.755C96.4004 166.755 95.905 167.304 95.905 167.981Z"
    fill="black" />
  <path
    d="M76.7243 167.982C76.7243 168.659 77.2197 169.208 77.8309 169.208C78.4421 169.208 78.9375 168.659 78.9375 167.982C78.9375 167.304 78.4421 166.755 77.8309 166.755C77.2197 166.755 76.7243 167.304 76.7243 167.982Z"
    fill="black" />
  <path
    d="M95.905 195.774C95.905 196.451 96.4004 197 97.0116 197C97.6227 197 98.1182 196.451 98.1182 195.774C98.1182 195.097 97.6227 194.548 97.0116 194.548C96.4004 194.548 95.905 195.097 95.905 195.774Z"
    fill="black" />
  <path
    d="M76.7233 195.774C76.7233 196.451 77.2188 197 77.8299 197C78.4411 197 78.9365 196.451 78.9365 195.774C78.9365 195.097 78.4411 194.548 77.8299 194.548C77.2188 194.548 76.7233 195.097 76.7233 195.774Z"
    fill="black" />
  <path
    d="M38.36 56.8111C38.36 57.4883 38.8555 58.0372 39.4666 58.0372C40.0778 58.0372 40.5732 57.4883 40.5732 56.8111C40.5732 56.1339 40.0778 55.585 39.4666 55.585C38.8555 55.585 38.36 56.1339 38.36 56.8111Z"
    fill="white" />
  <path
    d="M19.1804 56.8111C19.1804 57.4883 19.6758 58.0372 20.287 58.0372C20.8981 58.0372 21.3936 57.4883 21.3936 56.8111C21.3936 56.1339 20.8981 55.585 20.287 55.585C19.6758 55.585 19.1804 56.1339 19.1804 56.8111Z"
    fill="white" />
  <path
    d="M-0.000309467 56.8111C-0.000309467 57.4883 0.495132 58.0372 1.10629 58.0372C1.71745 58.0372 2.21289 57.4883 2.21289 56.8111C2.21289 56.1339 1.71745 55.585 1.10629 55.585C0.495132 55.585 -0.000309467 56.1339 -0.000309467 56.8111Z"
    fill="white" />
  <path
    d="M57.5427 84.6037C57.5427 85.2809 58.0381 85.8298 58.6493 85.8298C59.2604 85.8298 59.7559 85.2809 59.7559 84.6037C59.7559 83.9265 59.2604 83.3776 58.6493 83.3776C58.0381 83.3776 57.5427 83.9265 57.5427 84.6037Z"
    fill="white" />
  <path
    d="M38.36 84.6037C38.36 85.2809 38.8555 85.8298 39.4666 85.8298C40.0778 85.8298 40.5732 85.2809 40.5732 84.6037C40.5732 83.9265 40.0778 83.3776 39.4666 83.3776C38.8555 83.3776 38.36 83.9265 38.36 84.6037Z"
    fill="white" />
  <path
    d="M19.1804 84.6037C19.1804 85.2809 19.6758 85.8298 20.287 85.8298C20.8981 85.8298 21.3936 85.2809 21.3936 84.6037C21.3936 83.9265 20.8981 83.3776 20.287 83.3776C19.6758 83.3776 19.1804 83.9265 19.1804 84.6037Z"
    fill="white" />
  <path
    d="M-0.000309467 84.6037C-0.000309467 85.2809 0.495132 85.8298 1.10629 85.8298C1.71745 85.8298 2.21289 85.2809 2.21289 84.6037C2.21289 83.9265 1.71745 83.3776 1.10629 83.3776C0.495132 83.3776 -0.000309467 83.9265 -0.000309467 84.6037Z"
    fill="white" />
  <path
    d="M57.5427 112.396C57.5427 113.073 58.0381 113.622 58.6493 113.622C59.2604 113.622 59.7559 113.073 59.7559 112.396C59.7559 111.719 59.2604 111.17 58.6493 111.17C58.0381 111.17 57.5427 111.719 57.5427 112.396Z"
    fill="white" />
  <path
    d="M38.36 112.396C38.36 113.073 38.8555 113.622 39.4666 113.622C40.0778 113.622 40.5732 113.073 40.5732 112.396C40.5732 111.719 40.0778 111.17 39.4666 111.17C38.8555 111.17 38.36 111.719 38.36 112.396Z"
    fill="white" />
  <path
    d="M19.1804 112.396C19.1804 113.073 19.6758 113.622 20.287 113.622C20.8981 113.622 21.3936 113.073 21.3936 112.396C21.3936 111.719 20.8981 111.17 20.287 111.17C19.6758 111.17 19.1804 111.719 19.1804 112.396Z"
    fill="white" />
  <path
    d="M-0.000309467 112.396C-0.000309467 113.073 0.495132 113.622 1.10629 113.622C1.71745 113.622 2.21289 113.073 2.21289 112.396C2.21289 111.719 1.71745 111.17 1.10629 111.17C0.495132 111.17 -0.000309467 111.719 -0.000309467 112.396Z"
    fill="white" />
  <path
    d="M57.5427 140.189C57.5427 140.866 58.0381 141.415 58.6493 141.415C59.2604 141.415 59.7559 140.866 59.7559 140.189C59.7559 139.511 59.2604 138.962 58.6493 138.962C58.0381 138.962 57.5427 139.511 57.5427 140.189Z"
    fill="white" />
  <path
    d="M38.36 140.189C38.36 140.866 38.8555 141.415 39.4666 141.415C40.0778 141.415 40.5732 140.866 40.5732 140.189C40.5732 139.512 40.0778 138.963 39.4666 138.963C38.8555 138.963 38.36 139.512 38.36 140.189Z"
    fill="white" />
  <path
    d="M19.1804 140.189C19.1804 140.866 19.6758 141.415 20.287 141.415C20.8981 141.415 21.3936 140.866 21.3936 140.189C21.3936 139.512 20.8981 138.963 20.287 138.963C19.6758 138.963 19.1804 139.512 19.1804 140.189Z"
    fill="white" />
  <path
    d="M-0.000309467 140.189C-0.000309467 140.866 0.495132 141.415 1.10629 141.415C1.71745 141.415 2.21289 140.866 2.21289 140.189C2.21289 139.511 1.71745 138.962 1.10629 138.962C0.495132 138.962 -0.000309467 139.511 -0.000309467 140.189Z"
    fill="white" />
  <path
    d="M57.5427 167.981C57.5427 168.659 58.0381 169.208 58.6493 169.208C59.2604 169.208 59.7559 168.659 59.7559 167.981C59.7559 167.304 59.2604 166.755 58.6493 166.755C58.0381 166.755 57.5427 167.304 57.5427 167.981Z"
    fill="white" />
  <path
    d="M38.36 167.981C38.36 168.658 38.8555 169.207 39.4666 169.207C40.0778 169.207 40.5732 168.658 40.5732 167.981C40.5732 167.304 40.0778 166.755 39.4666 166.755C38.8555 166.755 38.36 167.304 38.36 167.981Z"
    fill="white" />
  <path
    d="M19.1804 167.981C19.1804 168.658 19.6758 169.207 20.287 169.207C20.8981 169.207 21.3936 168.658 21.3936 167.981C21.3936 167.304 20.8981 166.755 20.287 166.755C19.6758 166.755 19.1804 167.304 19.1804 167.981Z"
    fill="white" />
  <path
    d="M-0.000309467 167.981C-0.000309467 168.659 0.495132 169.208 1.10629 169.208C1.71745 169.208 2.21289 168.659 2.21289 167.981C2.21289 167.304 1.71745 166.755 1.10629 166.755C0.495132 166.755 -0.000309467 167.304 -0.000309467 167.981Z"
    fill="white" />
  <path
    d="M57.5427 195.774C57.5427 196.451 58.0381 197 58.6493 197C59.2604 197 59.7559 196.451 59.7559 195.774C59.7559 195.097 59.2604 194.548 58.6493 194.548C58.0381 194.548 57.5427 195.097 57.5427 195.774Z"
    fill="white" />
  <path
    d="M38.36 195.774C38.36 196.451 38.8555 197 39.4666 197C40.0778 197 40.5732 196.451 40.5732 195.774C40.5732 195.097 40.0778 194.548 39.4666 194.548C38.8555 194.548 38.36 195.097 38.36 195.774Z"
    fill="white" />
  <path
    d="M19.1804 195.774C19.1804 196.451 19.6758 197 20.287 197C20.8981 197 21.3936 196.451 21.3936 195.774C21.3936 195.097 20.8981 194.548 20.287 194.548C19.6758 194.548 19.1804 195.097 19.1804 195.774Z"
    fill="white" />
  <path
    d="M-0.000309467 195.774C-0.000309467 196.451 0.495132 197 1.10629 197C1.71745 197 2.21289 196.451 2.21289 195.774C2.21289 195.097 1.71745 194.548 1.10629 194.548C0.495132 194.548 -0.000309467 195.097 -0.000309467 195.774Z"
    fill="white" />
</svg>