<svg width="286" height="143" viewBox="0 0 286 143" fill="none" xmlns="http://www.w3.org/2000/svg">
  <path
    d="M1.77924 3.21155C2.76188 3.21155 3.55847 2.49262 3.55847 1.60577C3.55847 0.71893 2.76188 0 1.77924 0C0.796591 0 0 0.71893 0 1.60577C0 2.49262 0.796591 3.21155 1.77924 3.21155Z"
    fill="#F5F5F5" />
  <path
    d="M1.77924 31.045C2.76188 31.045 3.55847 30.3261 3.55847 29.4393C3.55847 28.5524 2.76188 27.8335 1.77924 27.8335C0.796591 27.8335 0 28.5524 0 29.4393C0 30.3261 0.796591 31.045 1.77924 31.045Z"
    fill="#F5F5F5" />
  <path
    d="M1.77924 58.8785C2.76188 58.8785 3.55847 58.1596 3.55847 57.2728C3.55847 56.3859 2.76188 55.667 1.77924 55.667C0.796591 55.667 0 56.3859 0 57.2728C0 58.1596 0.796591 58.8785 1.77924 58.8785Z"
    fill="#F5F5F5" />
  <path
    d="M1.77924 86.7125C2.76188 86.7125 3.55847 85.9936 3.55847 85.1068C3.55847 84.2199 2.76188 83.501 1.77924 83.501C0.796591 83.501 0 84.2199 0 85.1068C0 85.9936 0.796591 86.7125 1.77924 86.7125Z"
    fill="#F5F5F5" />
  <path
    d="M1.77924 114.546C2.76188 114.546 3.55847 113.827 3.55847 112.94C3.55847 112.053 2.76188 111.334 1.77924 111.334C0.796591 111.334 0 112.053 0 112.94C0 113.827 0.796591 114.546 1.77924 114.546Z"
    fill="#F5F5F5" />
  <path
    d="M1.77924 142.379C2.76188 142.379 3.55847 141.66 3.55847 140.773C3.55847 139.886 2.76188 139.167 1.77924 139.167C0.796591 139.167 0 139.886 0 140.773C0 141.66 0.796591 142.379 1.77924 142.379Z"
    fill="#F5F5F5" />
  <path
    d="M42.1098 3.21155C43.0924 3.21155 43.889 2.49262 43.889 1.60577C43.889 0.71893 43.0924 0 42.1098 0C41.1272 0 40.3306 0.71893 40.3306 1.60577C40.3306 2.49262 41.1272 3.21155 42.1098 3.21155Z"
    fill="#F5F5F5" />
  <path
    d="M42.1098 31.045C43.0924 31.045 43.889 30.3261 43.889 29.4393C43.889 28.5524 43.0924 27.8335 42.1098 27.8335C41.1272 27.8335 40.3306 28.5524 40.3306 29.4393C40.3306 30.3261 41.1272 31.045 42.1098 31.045Z"
    fill="#F5F5F5" />
  <path
    d="M42.1098 58.8785C43.0924 58.8785 43.889 58.1596 43.889 57.2728C43.889 56.3859 43.0924 55.667 42.1098 55.667C41.1272 55.667 40.3306 56.3859 40.3306 57.2728C40.3306 58.1596 41.1272 58.8785 42.1098 58.8785Z"
    fill="#F5F5F5" />
  <path
    d="M42.1098 86.7125C43.0924 86.7125 43.889 85.9936 43.889 85.1068C43.889 84.2199 43.0924 83.501 42.1098 83.501C41.1272 83.501 40.3306 84.2199 40.3306 85.1068C40.3306 85.9936 41.1272 86.7125 42.1098 86.7125Z"
    fill="#F5F5F5" />
  <path
    d="M42.1098 114.546C43.0924 114.546 43.889 113.827 43.889 112.94C43.889 112.053 43.0924 111.334 42.1098 111.334C41.1272 111.334 40.3306 112.053 40.3306 112.94C40.3306 113.827 41.1272 114.546 42.1098 114.546Z"
    fill="#F5F5F5" />
  <path
    d="M42.1098 142.379C43.0924 142.379 43.889 141.66 43.889 140.773C43.889 139.886 43.0924 139.167 42.1098 139.167C41.1272 139.167 40.3306 139.886 40.3306 140.773C40.3306 141.66 41.1272 142.379 42.1098 142.379Z"
    fill="#F5F5F5" />
  <path
    d="M82.4389 3.21155C83.4215 3.21155 84.2181 2.49262 84.2181 1.60577C84.2181 0.71893 83.4215 0 82.4389 0C81.4563 0 80.6597 0.71893 80.6597 1.60577C80.6597 2.49262 81.4563 3.21155 82.4389 3.21155Z"
    fill="#F5F5F5" />
  <path
    d="M82.4389 31.045C83.4215 31.045 84.2181 30.3261 84.2181 29.4393C84.2181 28.5524 83.4215 27.8335 82.4389 27.8335C81.4563 27.8335 80.6597 28.5524 80.6597 29.4393C80.6597 30.3261 81.4563 31.045 82.4389 31.045Z"
    fill="#F5F5F5" />
  <path
    d="M82.4389 58.8785C83.4215 58.8785 84.2181 58.1596 84.2181 57.2728C84.2181 56.3859 83.4215 55.667 82.4389 55.667C81.4563 55.667 80.6597 56.3859 80.6597 57.2728C80.6597 58.1596 81.4563 58.8785 82.4389 58.8785Z"
    fill="#F5F5F5" />
  <path
    d="M82.4389 86.7125C83.4215 86.7125 84.2181 85.9936 84.2181 85.1068C84.2181 84.2199 83.4215 83.501 82.4389 83.501C81.4563 83.501 80.6597 84.2199 80.6597 85.1068C80.6597 85.9936 81.4563 86.7125 82.4389 86.7125Z"
    fill="#F5F5F5" />
  <path
    d="M82.4389 114.546C83.4215 114.546 84.2181 113.827 84.2181 112.94C84.2181 112.053 83.4215 111.334 82.4389 111.334C81.4563 111.334 80.6597 112.053 80.6597 112.94C80.6597 113.827 81.4563 114.546 82.4389 114.546Z"
    fill="#F5F5F5" />
  <path
    d="M82.4389 142.379C83.4215 142.379 84.2181 141.66 84.2181 140.773C84.2181 139.886 83.4215 139.167 82.4389 139.167C81.4563 139.167 80.6597 139.886 80.6597 140.773C80.6597 141.66 81.4563 142.379 82.4389 142.379Z"
    fill="#F5F5F5" />
  <path
    d="M122.768 3.21155C123.75 3.21155 124.547 2.49262 124.547 1.60577C124.547 0.71893 123.75 0 122.768 0C121.785 0 120.988 0.71893 120.988 1.60577C120.988 2.49262 121.785 3.21155 122.768 3.21155Z"
    fill="#F5F5F5" />
  <path
    d="M122.768 31.045C123.75 31.045 124.547 30.3261 124.547 29.4393C124.547 28.5524 123.75 27.8335 122.768 27.8335C121.785 27.8335 120.988 28.5524 120.988 29.4393C120.988 30.3261 121.785 31.045 122.768 31.045Z"
    fill="#F5F5F5" />
  <path
    d="M122.768 58.8785C123.75 58.8785 124.547 58.1596 124.547 57.2728C124.547 56.3859 123.75 55.667 122.768 55.667C121.785 55.667 120.988 56.3859 120.988 57.2728C120.988 58.1596 121.785 58.8785 122.768 58.8785Z"
    fill="#F5F5F5" />
  <path
    d="M122.768 86.7125C123.75 86.7125 124.547 85.9936 124.547 85.1068C124.547 84.2199 123.75 83.501 122.768 83.501C121.785 83.501 120.988 84.2199 120.988 85.1068C120.988 85.9936 121.785 86.7125 122.768 86.7125Z"
    fill="#F5F5F5" />
  <path
    d="M122.768 114.546C123.75 114.546 124.547 113.827 124.547 112.94C124.547 112.053 123.75 111.334 122.768 111.334C121.785 111.334 120.988 112.053 120.988 112.94C120.988 113.827 121.785 114.546 122.768 114.546Z"
    fill="#F5F5F5" />
  <path
    d="M122.768 142.379C123.75 142.379 124.547 141.66 124.547 140.773C124.547 139.886 123.75 139.167 122.768 139.167C121.785 139.167 120.988 139.886 120.988 140.773C120.988 141.66 121.785 142.379 122.768 142.379Z"
    fill="#F5F5F5" />
  <path
    d="M163.096 3.21155C164.079 3.21155 164.875 2.49262 164.875 1.60577C164.875 0.71893 164.079 0 163.096 0C162.113 0 161.317 0.71893 161.317 1.60577C161.317 2.49262 162.113 3.21155 163.096 3.21155Z"
    fill="#F5F5F5" />
  <path
    d="M163.096 31.045C164.079 31.045 164.875 30.3261 164.875 29.4393C164.875 28.5524 164.079 27.8335 163.096 27.8335C162.113 27.8335 161.317 28.5524 161.317 29.4393C161.317 30.3261 162.113 31.045 163.096 31.045Z"
    fill="#F5F5F5" />
  <path
    d="M163.096 58.8785C164.079 58.8785 164.875 58.1596 164.875 57.2728C164.875 56.3859 164.079 55.667 163.096 55.667C162.113 55.667 161.317 56.3859 161.317 57.2728C161.317 58.1596 162.113 58.8785 163.096 58.8785Z"
    fill="#F5F5F5" />
  <path
    d="M163.096 86.7125C164.079 86.7125 164.875 85.9936 164.875 85.1068C164.875 84.2199 164.079 83.501 163.096 83.501C162.113 83.501 161.317 84.2199 161.317 85.1068C161.317 85.9936 162.113 86.7125 163.096 86.7125Z"
    fill="#F5F5F5" />
  <path
    d="M163.096 114.546C164.079 114.546 164.875 113.827 164.875 112.94C164.875 112.053 164.079 111.334 163.096 111.334C162.113 111.334 161.317 112.053 161.317 112.94C161.317 113.827 162.113 114.546 163.096 114.546Z"
    fill="#F5F5F5" />
  <path
    d="M163.096 142.379C164.079 142.379 164.875 141.66 164.875 140.773C164.875 139.886 164.079 139.167 163.096 139.167C162.113 139.167 161.317 139.886 161.317 140.773C161.317 141.66 162.113 142.379 163.096 142.379Z"
    fill="#F5F5F5" />
  <path
    d="M203.427 3.21155C204.41 3.21155 205.206 2.49262 205.206 1.60577C205.206 0.71893 204.41 0 203.427 0C202.445 0 201.648 0.71893 201.648 1.60577C201.648 2.49262 202.445 3.21155 203.427 3.21155Z"
    fill="#F5F5F5" />
  <path
    d="M203.427 31.045C204.41 31.045 205.206 30.3261 205.206 29.4393C205.206 28.5524 204.41 27.8335 203.427 27.8335C202.445 27.8335 201.648 28.5524 201.648 29.4393C201.648 30.3261 202.445 31.045 203.427 31.045Z"
    fill="#F5F5F5" />
  <path
    d="M203.427 58.8785C204.41 58.8785 205.206 58.1596 205.206 57.2728C205.206 56.3859 204.41 55.667 203.427 55.667C202.445 55.667 201.648 56.3859 201.648 57.2728C201.648 58.1596 202.445 58.8785 203.427 58.8785Z"
    fill="#F5F5F5" />
  <path
    d="M203.427 86.7125C204.41 86.7125 205.206 85.9936 205.206 85.1068C205.206 84.2199 204.41 83.501 203.427 83.501C202.445 83.501 201.648 84.2199 201.648 85.1068C201.648 85.9936 202.445 86.7125 203.427 86.7125Z"
    fill="#F5F5F5" />
  <path
    d="M203.427 114.546C204.41 114.546 205.206 113.827 205.206 112.94C205.206 112.053 204.41 111.334 203.427 111.334C202.445 111.334 201.648 112.053 201.648 112.94C201.648 113.827 202.445 114.546 203.427 114.546Z"
    fill="#F5F5F5" />
  <path
    d="M203.427 142.379C204.41 142.379 205.206 141.66 205.206 140.773C205.206 139.886 204.41 139.167 203.427 139.167C202.445 139.167 201.648 139.886 201.648 140.773C201.648 141.66 202.445 142.379 203.427 142.379Z"
    fill="#F5F5F5" />
  <path
    d="M243.756 3.21155C244.738 3.21155 245.535 2.49262 245.535 1.60577C245.535 0.71893 244.738 0 243.756 0C242.773 0 241.977 0.71893 241.977 1.60577C241.977 2.49262 242.773 3.21155 243.756 3.21155Z"
    fill="#F5F5F5" />
  <path
    d="M243.756 31.045C244.738 31.045 245.535 30.3261 245.535 29.4393C245.535 28.5524 244.738 27.8335 243.756 27.8335C242.773 27.8335 241.977 28.5524 241.977 29.4393C241.977 30.3261 242.773 31.045 243.756 31.045Z"
    fill="#F5F5F5" />
  <path
    d="M243.756 58.8785C244.738 58.8785 245.535 58.1596 245.535 57.2728C245.535 56.3859 244.738 55.667 243.756 55.667C242.773 55.667 241.977 56.3859 241.977 57.2728C241.977 58.1596 242.773 58.8785 243.756 58.8785Z"
    fill="#F5F5F5" />
  <path
    d="M243.756 86.7125C244.738 86.7125 245.535 85.9936 245.535 85.1068C245.535 84.2199 244.738 83.501 243.756 83.501C242.773 83.501 241.977 84.2199 241.977 85.1068C241.977 85.9936 242.773 86.7125 243.756 86.7125Z"
    fill="#F5F5F5" />
  <path
    d="M243.756 114.546C244.738 114.546 245.535 113.827 245.535 112.94C245.535 112.053 244.738 111.334 243.756 111.334C242.773 111.334 241.977 112.053 241.977 112.94C241.977 113.827 242.773 114.546 243.756 114.546Z"
    fill="#F5F5F5" />
  <path
    d="M243.756 142.379C244.738 142.379 245.535 141.66 245.535 140.773C245.535 139.886 244.738 139.167 243.756 139.167C242.773 139.167 241.977 139.886 241.977 140.773C241.977 141.66 242.773 142.379 243.756 142.379Z"
    fill="#F5F5F5" />
  <path
    d="M284.084 3.21155C285.067 3.21155 285.864 2.49262 285.864 1.60577C285.864 0.71893 285.067 0 284.084 0C283.102 0 282.305 0.71893 282.305 1.60577C282.305 2.49262 283.102 3.21155 284.084 3.21155Z"
    fill="#F5F5F5" />
  <path
    d="M284.084 31.045C285.067 31.045 285.864 30.3261 285.864 29.4393C285.864 28.5524 285.067 27.8335 284.084 27.8335C283.102 27.8335 282.305 28.5524 282.305 29.4393C282.305 30.3261 283.102 31.045 284.084 31.045Z"
    fill="#F5F5F5" />
  <path
    d="M284.084 58.8785C285.067 58.8785 285.864 58.1596 285.864 57.2728C285.864 56.3859 285.067 55.667 284.084 55.667C283.102 55.667 282.305 56.3859 282.305 57.2728C282.305 58.1596 283.102 58.8785 284.084 58.8785Z"
    fill="#F5F5F5" />
  <path
    d="M284.084 86.7125C285.067 86.7125 285.864 85.9936 285.864 85.1068C285.864 84.2199 285.067 83.501 284.084 83.501C283.102 83.501 282.305 84.2199 282.305 85.1068C282.305 85.9936 283.102 86.7125 284.084 86.7125Z"
    fill="#F5F5F5" />
  <path
    d="M284.084 114.546C285.067 114.546 285.864 113.827 285.864 112.94C285.864 112.053 285.067 111.334 284.084 111.334C283.102 111.334 282.305 112.053 282.305 112.94C282.305 113.827 283.102 114.546 284.084 114.546Z"
    fill="#F5F5F5" />
  <path
    d="M284.084 142.379C285.067 142.379 285.864 141.66 285.864 140.773C285.864 139.886 285.067 139.167 284.084 139.167C283.102 139.167 282.305 139.886 282.305 140.773C282.305 141.66 283.102 142.379 284.084 142.379Z"
    fill="#F5F5F5" />
</svg>