<svg width="101" height="201" viewBox="0 0 101 201" fill="none" xmlns="http://www.w3.org/2000/svg">
  <path
    d="M97.8542 1.25104C97.8542 1.94196 98.3597 2.50207 98.9832 2.50207C99.6068 2.50207 100.112 1.94196 100.112 1.25104C100.112 0.560108 99.6068 0 98.9832 0C98.3597 0 97.8542 0.560108 97.8542 1.25104Z"
    fill="#F5F5F5" />
  <path
    d="M78.2829 1.25104C78.2829 1.94196 78.7884 2.50207 79.4119 2.50207C80.0355 2.50207 80.541 1.94196 80.541 1.25104C80.541 0.560108 80.0355 0 79.4119 0C78.7884 0 78.2829 0.560108 78.2829 1.25104Z"
    fill="#F5F5F5" />
  <path
    d="M58.7135 1.25104C58.7135 1.94196 59.219 2.50207 59.8426 2.50207C60.4662 2.50207 60.9717 1.94196 60.9717 1.25104C60.9717 0.560108 60.4662 0 59.8426 0C59.219 0 58.7135 0.560108 58.7135 1.25104Z"
    fill="#F5F5F5" />
  <path
    d="M39.1423 1.25104C39.1423 1.94196 39.6478 2.50207 40.2713 2.50207C40.8949 2.50207 41.4004 1.94196 41.4004 1.25104C41.4004 0.560108 40.8949 0 40.2713 0C39.6478 0 39.1423 0.560108 39.1423 1.25104Z"
    fill="#F5F5F5" />
  <path
    d="M19.571 1.25104C19.571 1.94196 20.0765 2.50207 20.7 2.50207C21.3236 2.50207 21.8291 1.94196 21.8291 1.25104C21.8291 0.560108 21.3236 0 20.7 0C20.0765 0 19.571 0.560108 19.571 1.25104Z"
    fill="#F5F5F5" />
  <path
    d="M-0.00032711 1.25104C-0.00032711 1.94196 0.505175 2.50207 1.12874 2.50207C1.75231 2.50207 2.25781 1.94196 2.25781 1.25104C2.25781 0.560108 1.75231 0 1.12874 0C0.505175 0 -0.00032711 0.560108 -0.00032711 1.25104Z"
    fill="#F5F5F5" />
  <path
    d="M97.8542 29.6089C97.8542 30.2999 98.3597 30.86 98.9832 30.86C99.6068 30.86 100.112 30.2999 100.112 29.6089C100.112 28.918 99.6068 28.3579 98.9832 28.3579C98.3597 28.3579 97.8542 28.918 97.8542 29.6089Z"
    fill="#F5F5F5" />
  <path
    d="M78.2829 29.6094C78.2829 30.3004 78.7884 30.8605 79.4119 30.8605C80.0355 30.8605 80.541 30.3004 80.541 29.6094C80.541 28.9185 80.0355 28.3584 79.4119 28.3584C78.7884 28.3584 78.2829 28.9185 78.2829 29.6094Z"
    fill="#F5F5F5" />
  <path
    d="M58.7135 29.6094C58.7135 30.3004 59.219 30.8605 59.8426 30.8605C60.4662 30.8605 60.9717 30.3004 60.9717 29.6094C60.9717 28.9185 60.4662 28.3584 59.8426 28.3584C59.219 28.3584 58.7135 28.9185 58.7135 29.6094Z"
    fill="#F5F5F5" />
  <path
    d="M39.1423 29.6089C39.1423 30.2999 39.6478 30.86 40.2713 30.86C40.8949 30.86 41.4004 30.2999 41.4004 29.6089C41.4004 28.918 40.8949 28.3579 40.2713 28.3579C39.6478 28.3579 39.1423 28.918 39.1423 29.6089Z"
    fill="#F5F5F5" />
  <path
    d="M19.571 29.6089C19.571 30.2999 20.0765 30.86 20.7 30.86C21.3236 30.86 21.8291 30.2999 21.8291 29.6089C21.8291 28.918 21.3236 28.3579 20.7 28.3579C20.0765 28.3579 19.571 28.918 19.571 29.6089Z"
    fill="#F5F5F5" />
  <path
    d="M-0.00032711 29.6094C-0.00032711 30.3004 0.505175 30.8605 1.12874 30.8605C1.75231 30.8605 2.25781 30.3004 2.25781 29.6094C2.25781 28.9185 1.75231 28.3584 1.12874 28.3584C0.505175 28.3584 -0.00032711 28.9185 -0.00032711 29.6094Z"
    fill="#F5F5F5" />
  <path
    d="M97.8542 57.9654C97.8542 58.6563 98.3597 59.2164 98.9832 59.2164C99.6068 59.2164 100.112 58.6563 100.112 57.9654C100.112 57.2745 99.6068 56.7144 98.9832 56.7144C98.3597 56.7144 97.8542 57.2745 97.8542 57.9654Z"
    fill="#F5F5F5" />
  <path
    d="M78.2829 57.9654C78.2829 58.6563 78.7884 59.2164 79.4119 59.2164C80.0355 59.2164 80.541 58.6563 80.541 57.9654C80.541 57.2745 80.0355 56.7144 79.4119 56.7144C78.7884 56.7144 78.2829 57.2745 78.2829 57.9654Z"
    fill="#F5F5F5" />
  <path
    d="M58.7135 57.9654C58.7135 58.6563 59.219 59.2164 59.8426 59.2164C60.4662 59.2164 60.9717 58.6563 60.9717 57.9654C60.9717 57.2745 60.4662 56.7144 59.8426 56.7144C59.219 56.7144 58.7135 57.2745 58.7135 57.9654Z"
    fill="#F5F5F5" />
  <path
    d="M39.1423 57.9654C39.1423 58.6563 39.6478 59.2164 40.2713 59.2164C40.8949 59.2164 41.4004 58.6563 41.4004 57.9654C41.4004 57.2745 40.8949 56.7144 40.2713 56.7144C39.6478 56.7144 39.1423 57.2745 39.1423 57.9654Z"
    fill="#F5F5F5" />
  <path
    d="M19.571 57.9654C19.571 58.6563 20.0765 59.2164 20.7 59.2164C21.3236 59.2164 21.8291 58.6563 21.8291 57.9654C21.8291 57.2745 21.3236 56.7144 20.7 56.7144C20.0765 56.7144 19.571 57.2745 19.571 57.9654Z"
    fill="#F5F5F5" />
  <path
    d="M-0.00032711 57.9654C-0.00032711 58.6563 0.505175 59.2164 1.12874 59.2164C1.75231 59.2164 2.25781 58.6563 2.25781 57.9654C2.25781 57.2745 1.75231 56.7144 1.12874 56.7144C0.505175 56.7144 -0.00032711 57.2745 -0.00032711 57.9654Z"
    fill="#F5F5F5" />
  <path
    d="M97.8542 86.3213C97.8542 87.0123 98.3597 87.5724 98.9832 87.5724C99.6068 87.5724 100.112 87.0123 100.112 86.3213C100.112 85.6304 99.6068 85.0703 98.9832 85.0703C98.3597 85.0703 97.8542 85.6304 97.8542 86.3213Z"
    fill="#F5F5F5" />
  <path
    d="M78.2829 86.3218C78.2829 87.0128 78.7884 87.5729 79.4119 87.5729C80.0355 87.5729 80.541 87.0128 80.541 86.3218C80.541 85.6309 80.0355 85.0708 79.4119 85.0708C78.7884 85.0708 78.2829 85.6309 78.2829 86.3218Z"
    fill="#F5F5F5" />
  <path
    d="M58.7135 86.3218C58.7135 87.0128 59.219 87.5729 59.8426 87.5729C60.4662 87.5729 60.9717 87.0128 60.9717 86.3218C60.9717 85.6309 60.4662 85.0708 59.8426 85.0708C59.219 85.0708 58.7135 85.6309 58.7135 86.3218Z"
    fill="#F5F5F5" />
  <path
    d="M39.1423 86.3213C39.1423 87.0123 39.6478 87.5724 40.2713 87.5724C40.8949 87.5724 41.4004 87.0123 41.4004 86.3213C41.4004 85.6304 40.8949 85.0703 40.2713 85.0703C39.6478 85.0703 39.1423 85.6304 39.1423 86.3213Z"
    fill="#F5F5F5" />
  <path
    d="M19.571 86.3213C19.571 87.0123 20.0765 87.5724 20.7 87.5724C21.3236 87.5724 21.8291 87.0123 21.8291 86.3213C21.8291 85.6304 21.3236 85.0703 20.7 85.0703C20.0765 85.0703 19.571 85.6304 19.571 86.3213Z"
    fill="#F5F5F5" />
  <path
    d="M-0.00032711 86.3218C-0.00032711 87.0128 0.505175 87.5729 1.12874 87.5729C1.75231 87.5729 2.25781 87.0128 2.25781 86.3218C2.25781 85.6309 1.75231 85.0708 1.12874 85.0708C0.505175 85.0708 -0.00032711 85.6309 -0.00032711 86.3218Z"
    fill="#F5F5F5" />
  <path
    d="M97.8542 114.678C97.8542 115.369 98.3597 115.929 98.9832 115.929C99.6068 115.929 100.112 115.369 100.112 114.678C100.112 113.987 99.6068 113.427 98.9832 113.427C98.3597 113.427 97.8542 113.987 97.8542 114.678Z"
    fill="#F5F5F5" />
  <path
    d="M78.2829 114.678C78.2829 115.369 78.7884 115.929 79.4119 115.929C80.0355 115.929 80.541 115.369 80.541 114.678C80.541 113.987 80.0355 113.427 79.4119 113.427C78.7884 113.427 78.2829 113.987 78.2829 114.678Z"
    fill="#F5F5F5" />
  <path
    d="M58.7135 114.678C58.7135 115.369 59.219 115.929 59.8426 115.929C60.4662 115.929 60.9717 115.369 60.9717 114.678C60.9717 113.987 60.4662 113.427 59.8426 113.427C59.219 113.427 58.7135 113.987 58.7135 114.678Z"
    fill="#F5F5F5" />
  <path
    d="M39.1423 114.678C39.1423 115.369 39.6478 115.929 40.2713 115.929C40.8949 115.929 41.4004 115.369 41.4004 114.678C41.4004 113.987 40.8949 113.427 40.2713 113.427C39.6478 113.427 39.1423 113.987 39.1423 114.678Z"
    fill="#F5F5F5" />
  <path
    d="M19.571 114.678C19.571 115.369 20.0765 115.929 20.7 115.929C21.3236 115.929 21.8291 115.369 21.8291 114.678C21.8291 113.987 21.3236 113.427 20.7 113.427C20.0765 113.427 19.571 113.987 19.571 114.678Z"
    fill="#F5F5F5" />
  <path
    d="M-0.00032711 114.678C-0.00032711 115.369 0.505175 115.929 1.12874 115.929C1.75231 115.929 2.25781 115.369 2.25781 114.678C2.25781 113.987 1.75231 113.427 1.12874 113.427C0.505175 113.427 -0.00032711 113.987 -0.00032711 114.678Z"
    fill="#F5F5F5" />
  <path
    d="M97.8542 143.035C97.8542 143.726 98.3597 144.286 98.9832 144.286C99.6068 144.286 100.112 143.726 100.112 143.035C100.112 142.344 99.6068 141.784 98.9832 141.784C98.3597 141.784 97.8542 142.344 97.8542 143.035Z"
    fill="#F5F5F5" />
  <path
    d="M78.2829 143.035C78.2829 143.726 78.7884 144.286 79.4119 144.286C80.0355 144.286 80.541 143.726 80.541 143.035C80.541 142.344 80.0355 141.784 79.4119 141.784C78.7884 141.784 78.2829 142.344 78.2829 143.035Z"
    fill="#F5F5F5" />
  <path
    d="M58.7135 143.035C58.7135 143.726 59.219 144.286 59.8426 144.286C60.4662 144.286 60.9717 143.726 60.9717 143.035C60.9717 142.344 60.4662 141.784 59.8426 141.784C59.219 141.784 58.7135 142.344 58.7135 143.035Z"
    fill="#F5F5F5" />
  <path
    d="M39.1423 143.035C39.1423 143.726 39.6478 144.286 40.2713 144.286C40.8949 144.286 41.4004 143.726 41.4004 143.035C41.4004 142.344 40.8949 141.784 40.2713 141.784C39.6478 141.784 39.1423 142.344 39.1423 143.035Z"
    fill="#F5F5F5" />
  <path
    d="M19.571 143.035C19.571 143.726 20.0765 144.286 20.7 144.286C21.3236 144.286 21.8291 143.726 21.8291 143.035C21.8291 142.344 21.3236 141.784 20.7 141.784C20.0765 141.784 19.571 142.344 19.571 143.035Z"
    fill="#F5F5F5" />
  <path
    d="M-0.00032711 143.035C-0.00032711 143.726 0.505175 144.286 1.12874 144.286C1.75231 144.286 2.25781 143.726 2.25781 143.035C2.25781 142.344 1.75231 141.784 1.12874 141.784C0.505175 141.784 -0.00032711 142.344 -0.00032711 143.035Z"
    fill="#F5F5F5" />
  <path
    d="M97.8542 171.393C97.8542 172.084 98.3597 172.644 98.9832 172.644C99.6068 172.644 100.112 172.084 100.112 171.393C100.112 170.702 99.6068 170.142 98.9832 170.142C98.3597 170.142 97.8542 170.702 97.8542 171.393Z"
    fill="#F5F5F5" />
  <path
    d="M78.2829 171.393C78.2829 172.084 78.7884 172.644 79.4119 172.644C80.0355 172.644 80.541 172.084 80.541 171.393C80.541 170.702 80.0355 170.142 79.4119 170.142C78.7884 170.142 78.2829 170.702 78.2829 171.393Z"
    fill="#F5F5F5" />
  <path
    d="M58.7135 171.392C58.7135 172.083 59.219 172.643 59.8426 172.643C60.4662 172.643 60.9717 172.083 60.9717 171.392C60.9717 170.701 60.4662 170.141 59.8426 170.141C59.219 170.141 58.7135 170.701 58.7135 171.392Z"
    fill="#F5F5F5" />
  <path
    d="M39.1423 171.392C39.1423 172.083 39.6478 172.643 40.2713 172.643C40.8949 172.643 41.4004 172.083 41.4004 171.392C41.4004 170.701 40.8949 170.141 40.2713 170.141C39.6478 170.141 39.1423 170.701 39.1423 171.392Z"
    fill="#F5F5F5" />
  <path
    d="M19.571 171.393C19.571 172.084 20.0765 172.644 20.7 172.644C21.3236 172.644 21.8291 172.084 21.8291 171.393C21.8291 170.702 21.3236 170.142 20.7 170.142C20.0765 170.142 19.571 170.702 19.571 171.393Z"
    fill="#F5F5F5" />
  <path
    d="M-0.00032711 171.393C-0.00032711 172.084 0.505175 172.644 1.12874 172.644C1.75231 172.644 2.25781 172.084 2.25781 171.393C2.25781 170.702 1.75231 170.142 1.12874 170.142C0.505175 170.142 -0.00032711 170.702 -0.00032711 171.393Z"
    fill="#F5F5F5" />
  <path
    d="M97.8542 199.749C97.8542 200.44 98.3597 201 98.9832 201C99.6068 201 100.112 200.44 100.112 199.749C100.112 199.058 99.6068 198.498 98.9832 198.498C98.3597 198.498 97.8542 199.058 97.8542 199.749Z"
    fill="#F5F5F5" />
  <path
    d="M78.2829 199.749C78.2829 200.44 78.7884 201 79.4119 201C80.0355 201 80.541 200.44 80.541 199.749C80.541 199.058 80.0355 198.498 79.4119 198.498C78.7884 198.498 78.2829 199.058 78.2829 199.749Z"
    fill="#F5F5F5" />
  <path
    d="M58.7135 199.749C58.7135 200.44 59.219 201 59.8426 201C60.4662 201 60.9717 200.44 60.9717 199.749C60.9717 199.058 60.4662 198.498 59.8426 198.498C59.219 198.498 58.7135 199.058 58.7135 199.749Z"
    fill="#F5F5F5" />
  <path
    d="M39.1423 199.749C39.1423 200.44 39.6478 201 40.2713 201C40.8949 201 41.4004 200.44 41.4004 199.749C41.4004 199.058 40.8949 198.498 40.2713 198.498C39.6478 198.498 39.1423 199.058 39.1423 199.749Z"
    fill="#F5F5F5" />
  <path
    d="M19.571 199.749C19.571 200.44 20.0765 201 20.7 201C21.3236 201 21.8291 200.44 21.8291 199.749C21.8291 199.058 21.3236 198.498 20.7 198.498C20.0765 198.498 19.571 199.058 19.571 199.749Z"
    fill="#F5F5F5" />
  <path
    d="M-0.00032711 199.749C-0.00032711 200.44 0.505175 201 1.12874 201C1.75231 201 2.25781 200.44 2.25781 199.749C2.25781 199.058 1.75231 198.498 1.12874 198.498C0.505175 198.498 -0.00032711 199.058 -0.00032711 199.749Z"
    fill="#F5F5F5" />
</svg>