<svg width="33" height="33" viewBox="0 0 33 33" fill="none" xmlns="http://www.w3.org/2000/svg">
  <circle cx="16.3638" cy="16.3638" r="16.3638" fill="#F5F5F5" />
  <path
    d="M16.5003 4.41675C14.9135 4.41675 13.3423 4.72929 11.8762 5.33654C10.4102 5.94378 9.07816 6.83383 7.95612 7.95587C5.69005 10.2219 4.41699 13.2954 4.41699 16.5001C4.41699 21.8409 7.88491 26.3722 12.682 27.9792C13.2862 28.0759 13.4795 27.7013 13.4795 27.3751V25.333C10.1324 26.058 9.41949 23.7138 9.41949 23.7138C8.86366 22.3122 8.07824 21.9376 8.07824 21.9376C6.97866 21.1884 8.16283 21.2126 8.16283 21.2126C9.37116 21.2972 10.0116 22.4572 10.0116 22.4572C11.0628 24.2938 12.8391 23.7501 13.5278 23.4601C13.6366 22.6747 13.9507 22.143 14.2891 21.8409C11.6066 21.5388 8.79116 20.4997 8.79116 15.8959C8.79116 14.5547 9.25033 13.4792 10.0357 12.6213C9.91491 12.3192 9.49199 11.0626 10.1566 9.43133C10.1566 9.43133 11.1716 9.10508 13.4795 10.6638C14.4341 10.398 15.4732 10.2651 16.5003 10.2651C17.5274 10.2651 18.5666 10.398 19.5212 10.6638C21.8291 9.10508 22.8441 9.43133 22.8441 9.43133C23.5087 11.0626 23.0857 12.3192 22.9649 12.6213C23.7503 13.4792 24.2095 14.5547 24.2095 15.8959C24.2095 20.5117 21.382 21.5267 18.6874 21.8288C19.1224 22.2034 19.5212 22.9405 19.5212 24.0642V27.3751C19.5212 27.7013 19.7145 28.088 20.3307 27.9792C25.1278 26.3601 28.5837 21.8409 28.5837 16.5001C28.5837 14.9133 28.2711 13.342 27.6639 11.876C27.0566 10.41 26.1666 9.07792 25.0445 7.95587C23.9225 6.83383 22.5904 5.94378 21.1244 5.33654C19.6584 4.72929 18.0871 4.41675 16.5003 4.41675Z"
    fill="black" />
</svg>