<svg width="26" height="26" viewBox="0 0 26 26" fill="none" xmlns="http://www.w3.org/2000/svg">
  <circle cx="12.9412" cy="12.9412" r="12.9412" fill="black" />
  <path
    d="M13 3C11.6868 3 10.3864 3.25866 9.17317 3.7612C7.95991 4.26375 6.85752 5.00035 5.92893 5.92893C4.05357 7.8043 3 10.3478 3 13C3 17.42 5.87 21.17 9.84 22.5C10.34 22.58 10.5 22.27 10.5 22V20.31C7.73 20.91 7.14 18.97 7.14 18.97C6.68 17.81 6.03 17.5 6.03 17.5C5.12 16.88 6.1 16.9 6.1 16.9C7.1 16.97 7.63 17.93 7.63 17.93C8.5 19.45 9.97 19 10.54 18.76C10.63 18.11 10.89 17.67 11.17 17.42C8.95 17.17 6.62 16.31 6.62 12.5C6.62 11.39 7 10.5 7.65 9.79C7.55 9.54 7.2 8.5 7.75 7.15C7.75 7.15 8.59 6.88 10.5 8.17C11.29 7.95 12.15 7.84 13 7.84C13.85 7.84 14.71 7.95 15.5 8.17C17.41 6.88 18.25 7.15 18.25 7.15C18.8 8.5 18.45 9.54 18.35 9.79C19 10.5 19.38 11.39 19.38 12.5C19.38 16.32 17.04 17.16 14.81 17.41C15.17 17.72 15.5 18.33 15.5 19.26V22C15.5 22.27 15.66 22.59 16.17 22.5C20.14 21.16 23 17.42 23 13C23 11.6868 22.7413 10.3864 22.2388 9.17317C21.7362 7.95991 20.9997 6.85752 20.0711 5.92893C19.1425 5.00035 18.0401 4.26375 16.8268 3.7612C15.6136 3.25866 14.3132 3 13 3Z"
    fill="white" />
</svg>