<svg width="26" height="26" viewBox="0 0 26 26" fill="none" xmlns="http://www.w3.org/2000/svg">
<path d="M13.0584 25.8824C20.2056 25.8824 25.9996 20.0884 25.9996 12.9412C25.9996 5.79397 20.2056 0 13.0584 0C5.91116 0 0.117188 5.79397 0.117188 12.9412C0.117188 20.0884 5.91116 25.8824 13.0584 25.8824Z" fill="black"/>
<path d="M16.3125 12.5C16.3125 13.1504 16.2773 13.7773 16.2158 14.375H10.7842C10.7197 13.7773 10.6875 13.1504 10.6875 12.5C10.6875 11.8496 10.7227 11.2227 10.7842 10.625H16.2158C16.2803 11.2227 16.3125 11.8496 16.3125 12.5ZM17.1562 10.625H20.7627C20.918 11.2256 21 11.8525 21 12.5C21 13.1475 20.918 13.7744 20.7627 14.375H17.1562C17.2177 13.7715 17.25 13.1445 17.25 12.5C17.25 11.8555 17.2177 11.2285 17.1562 10.625ZM20.4551 9.6875H17.0361C16.7431 7.81543 16.1631 6.24807 15.416 5.2461C17.71 5.85255 19.5762 7.51659 20.4522 9.6875H20.4551ZM16.0869 9.6875H10.9131C11.0918 8.62107 11.3672 7.6777 11.7041 6.91311C12.0117 6.22168 12.3545 5.72068 12.6856 5.4043C13.0137 5.09375 13.2861 5 13.5 5C13.7139 5 13.9863 5.09375 14.3144 5.4043C14.6455 5.72068 14.9883 6.22168 15.2959 6.91311C15.6357 7.67477 15.9082 8.61814 16.0869 9.6875ZM9.96389 9.6875H6.54492C7.42384 7.51659 9.28711 5.85255 11.584 5.2461C10.8369 6.24807 10.2569 7.81543 9.96389 9.6875ZM6.23731 10.625H9.84375C9.78225 11.2285 9.75 11.8555 9.75 12.5C9.75 13.1445 9.78225 13.7715 9.84375 14.375H6.23731C6.08203 13.7744 6 13.1475 6 12.5C6 11.8525 6.08203 11.2256 6.23731 10.625ZM11.7041 18.084C11.3643 17.3223 11.0918 16.3789 10.9131 15.3125H16.0869C15.9082 16.3789 15.6328 17.3223 15.2959 18.084C14.9883 18.7754 14.6455 19.2764 14.3144 19.5928C13.9863 19.9063 13.7139 20 13.5 20C13.2861 20 13.0137 19.9062 12.6856 19.5957C12.3545 19.2793 12.0117 18.7783 11.7041 18.0869V18.084ZM9.96389 15.3125C10.2569 17.1846 10.8369 18.7519 11.584 19.7539C9.28711 19.1475 7.42384 17.4834 6.54492 15.3125H9.96389ZM20.4551 15.3125C19.5762 17.4834 17.7129 19.1475 15.419 19.7539C16.166 18.7519 16.7431 17.1846 17.039 15.3125H20.4551Z" fill="white"/>
</svg>
