<svg width="26" height="26" viewBox="0 0 26 26" fill="none" xmlns="http://www.w3.org/2000/svg">
  <circle cx="13.0584" cy="12.9412" r="12.9412" fill="black" />
  <path
    d="M12.0486 13.7823C12.0486 13.3213 11.6684 12.9412 11.2074 12.9412C10.7464 12.9412 10.3662 13.3213 10.3662 13.7823C10.3662 14.0054 10.4548 14.2194 10.6126 14.3771C10.7703 14.5349 10.9843 14.6235 11.2074 14.6235C11.4305 14.6235 11.6444 14.5349 11.8022 14.3771C11.9599 14.2194 12.0486 14.0054 12.0486 13.7823ZM14.7501 15.6993C14.3861 16.0632 13.6096 16.1926 13.0596 16.1926C12.5096 16.1926 11.7331 16.0632 11.3692 15.6993C11.3495 15.6782 11.3257 15.6614 11.2993 15.6499C11.2728 15.6384 11.2443 15.6325 11.2155 15.6325C11.1867 15.6325 11.1581 15.6384 11.1317 15.6499C11.1053 15.6614 11.0815 15.6782 11.0618 15.6993C11.0407 15.7189 11.0239 15.7427 11.0125 15.7692C11.001 15.7956 10.9951 15.8241 10.9951 15.8529C10.9951 15.8818 11.001 15.9103 11.0125 15.9367C11.0239 15.9631 11.0407 15.9869 11.0618 16.0066C11.6361 16.5809 12.7361 16.6294 13.0596 16.6294C13.3831 16.6294 14.4831 16.5809 15.0574 16.0066C15.0785 15.9869 15.0953 15.9631 15.1067 15.9367C15.1182 15.9103 15.1241 15.8818 15.1241 15.8529C15.1241 15.8241 15.1182 15.7956 15.1067 15.7692C15.0953 15.7427 15.0785 15.7189 15.0574 15.6993C14.9765 15.6184 14.839 15.6184 14.7501 15.6993ZM14.9118 12.9412C14.4508 12.9412 14.0706 13.3213 14.0706 13.7823C14.0706 14.2434 14.4508 14.6235 14.9118 14.6235C15.3728 14.6235 15.753 14.2434 15.753 13.7823C15.753 13.3213 15.3809 12.9412 14.9118 12.9412Z"
    fill="white" />
  <path
    d="M13.059 4.85303C8.59425 4.85303 4.9707 8.47657 4.9707 12.9413C4.9707 17.406 8.59425 21.0296 13.059 21.0296C17.5237 21.0296 21.1472 17.406 21.1472 12.9413C21.1472 8.47657 17.5237 4.85303 13.059 4.85303ZM17.7502 14.017C17.7663 14.1303 17.7744 14.2516 17.7744 14.3729C17.7744 16.1847 15.6634 17.6568 13.059 17.6568C10.4545 17.6568 8.34351 16.1847 8.34351 14.3729C8.34351 14.2516 8.3516 14.1303 8.36777 14.017C7.95527 13.831 7.67218 13.4185 7.67218 12.9413C7.67099 12.7094 7.73835 12.4822 7.86581 12.2885C7.99327 12.0947 8.17516 11.9429 8.38861 11.8522C8.60206 11.7614 8.83756 11.7358 9.06554 11.7785C9.29352 11.8211 9.50381 11.9302 9.66999 12.092C10.4869 11.5016 11.6193 11.1295 12.8729 11.0891L13.4715 8.26628C13.4796 8.20966 13.5119 8.16113 13.5604 8.13686C13.609 8.10451 13.6656 8.09642 13.7222 8.10451L15.6796 8.5251C15.746 8.39049 15.8471 8.2761 15.9726 8.19379C16.0981 8.11147 16.2434 8.06423 16.3933 8.05697C16.5432 8.04971 16.6923 8.08268 16.8252 8.15248C16.9581 8.22228 17.0698 8.32635 17.1489 8.45391C17.228 8.58147 17.2715 8.72786 17.2749 8.87791C17.2784 9.02796 17.2416 9.17619 17.1684 9.30723C17.0953 9.43828 16.9884 9.54736 16.8589 9.62316C16.7293 9.69897 16.5819 9.73874 16.4318 9.73834C15.9788 9.73834 15.6149 9.38246 15.5906 8.9376L13.8354 8.56554L13.3016 11.0891C14.5391 11.1295 15.6472 11.5097 16.456 12.092C16.58 11.9736 16.7284 11.8837 16.8908 11.8287C17.0531 11.7736 17.2255 11.7547 17.396 11.7732C17.5664 11.7917 17.7308 11.8473 17.8775 11.9359C18.0242 12.0246 18.1498 12.1443 18.2454 12.2866C18.3411 12.4288 18.4045 12.5903 18.4312 12.7597C18.458 12.929 18.4474 13.1021 18.4002 13.267C18.353 13.4318 18.2704 13.5843 18.1581 13.7139C18.0458 13.8434 17.9066 13.9469 17.7502 14.017Z"
    fill="white" />
</svg>