<svg width="40" height="40" viewBox="0 0 40 40" fill="none" xmlns="http://www.w3.org/2000/svg">
<circle cx="20" cy="20" r="20" fill="#F5F5F5"/>
<g clip-path="url(#clip0_945_342)">
<path d="M24.125 20C24.125 20.9539 24.0734 21.8734 23.9832 22.75H16.0168C15.9223 21.8734 15.875 20.9539 15.875 20C15.875 19.0461 15.9266 18.1266 16.0168 17.25H23.9832C24.0777 18.1266 24.125 19.0461 24.125 20ZM25.3625 17.25H30.652C30.8797 18.1309 31 19.0504 31 20C31 20.9496 30.8797 21.8691 30.652 22.75H25.3625C25.4527 21.8648 25.5 20.9453 25.5 20C25.5 19.0547 25.4527 18.1352 25.3625 17.25ZM30.2008 15.875H25.1863C24.7566 13.1293 23.9059 10.8305 22.8102 9.36094C26.1746 10.2504 28.9117 12.691 30.1965 15.875H30.2008ZM23.7941 15.875H16.2059C16.468 14.3109 16.8719 12.9273 17.366 11.8059C17.8172 10.7918 18.3199 10.057 18.8055 9.59297C19.2867 9.1375 19.6863 9 20 9C20.3137 9 20.7133 9.1375 21.1945 9.59297C21.6801 10.057 22.1828 10.7918 22.634 11.8059C23.1324 12.923 23.532 14.3066 23.7941 15.875ZM14.8137 15.875H9.79922C11.0883 12.691 13.8211 10.2504 17.1898 9.36094C16.0941 10.8305 15.2434 13.1293 14.8137 15.875ZM9.34805 17.25H14.6375C14.5473 18.1352 14.5 19.0547 14.5 20C14.5 20.9453 14.5473 21.8648 14.6375 22.75H9.34805C9.12031 21.8691 9 20.9496 9 20C9 19.0504 9.12031 18.1309 9.34805 17.25ZM17.366 28.1898C16.8676 27.0727 16.468 25.6891 16.2059 24.125H23.7941C23.532 25.6891 23.1281 27.0727 22.634 28.1898C22.1828 29.2039 21.6801 29.9387 21.1945 30.4027C20.7133 30.8625 20.3137 31 20 31C19.6863 31 19.2867 30.8625 18.8055 30.407C18.3199 29.943 17.8172 29.2082 17.366 28.1941V28.1898ZM14.8137 24.125C15.2434 26.8707 16.0941 29.1695 17.1898 30.6391C13.8211 29.7496 11.0883 27.309 9.79922 24.125H14.8137ZM30.2008 24.125C28.9117 27.309 26.1789 29.7496 22.8145 30.6391C23.9102 29.1695 24.7566 26.8707 25.1906 24.125H30.2008Z" fill="black"/>
</g>
<defs>
<clipPath id="clip0_945_342">
<rect width="22" height="22" fill="white" transform="translate(9 9)"/>
</clipPath>
</defs>
</svg>
