<svg width="184" height="302" viewBox="0 0 184 302" fill="none" xmlns="http://www.w3.org/2000/svg">
  <path
    d="M81.8617 3.40841C76.0097 -0.359448 67.9965 4.28296 66.9651 11.1409C65.8494 18.5673 73.4696 23.5668 79.8689 22.8016C86.9629 21.9489 91.5168 13.801 89.096 6.86289C86.6752 -0.0752192 78.0656 -2.0794 72.6627 2.35895C71.2102 3.54688 73.2591 5.64581 74.6906 4.46516C78.7603 1.12729 85.2929 3.34282 86.6191 8.56827C87.9453 13.7937 84.3386 19.5439 79.0339 19.8937C74.887 20.1707 69.7507 17.3211 69.7437 12.4892C69.7437 7.19814 76.0588 3.18249 80.4303 5.98105C82.0091 6.99407 83.4475 4.41415 81.8757 3.40841H81.8617Z"
    fill="white" />
  <path
    d="M10.7493 141.543C6.5574 138.844 0.817379 142.17 0.0785145 147.082C-0.720666 152.402 4.73789 155.983 9.32187 155.435C14.4034 154.824 17.6655 148.988 15.9314 144.018C14.1974 139.048 8.03011 137.612 4.15986 140.791C3.11942 141.642 4.5871 143.146 5.61246 142.3C8.52771 139.909 13.2072 141.496 14.1572 145.239C15.1071 148.982 12.5236 153.101 8.72374 153.352C5.7532 153.55 2.07395 151.509 2.06893 148.048C2.06893 144.258 6.59259 141.381 9.72397 143.386C10.8549 144.112 11.8853 142.264 10.7594 141.543H10.7493Z"
    fill="white" />
  <path
    d="M157 94.6845C153.276 92.2869 148.177 95.241 147.521 99.6049C146.811 104.33 151.66 107.512 155.732 107.025C160.246 106.482 163.144 101.298 161.603 96.8826C160.063 92.4678 154.584 91.1925 151.146 94.0167C150.222 94.7726 151.526 96.1082 152.437 95.3569C155.026 93.2329 159.183 94.6427 160.027 97.9678C160.871 101.293 158.576 104.952 155.201 105.174C152.562 105.351 149.294 103.537 149.289 100.463C149.289 97.096 153.307 94.5407 156.089 96.3215C157.094 96.9661 158.009 95.3245 157.009 94.6845H157Z"
    fill="white" />
  <path
    d="M84.3878 288.759C80.4085 286.197 74.9595 289.354 74.2581 294.017C73.4995 299.067 78.6812 302.467 83.0328 301.946C87.8567 301.367 90.9533 295.826 89.3072 291.108C87.661 286.39 81.8065 285.027 78.1325 288.045C77.1448 288.853 78.5381 290.281 79.5115 289.478C82.2789 287.208 86.7211 288.715 87.6229 292.268C88.5246 295.821 86.0721 299.731 82.465 299.969C79.6451 300.157 76.1524 298.22 76.1476 294.934C76.1476 291.336 80.4419 288.605 83.4145 290.509C84.488 291.197 85.4662 289.443 84.3974 288.759H84.3878Z"
    fill="white" />
  <path
    d="M104.158 169.831C98.54 166.214 90.8474 170.67 89.8572 177.254C88.7861 184.383 96.1016 189.183 102.245 188.448C109.055 187.63 113.427 179.808 111.103 173.147C108.779 166.486 100.514 164.562 95.3269 168.823C93.9325 169.964 95.8995 171.979 97.2736 170.845C101.181 167.641 107.452 169.768 108.725 174.784C109.998 179.801 106.536 185.321 101.443 185.657C97.4622 185.922 92.5314 183.187 92.5247 178.548C92.5247 173.469 98.5872 169.614 102.784 172.3C104.299 173.273 105.68 170.796 104.171 169.831H104.158Z"
    fill="white" />
  <path
    d="M177.174 213.649L160.771 223.119C159.558 223.82 160.469 225.409 161.687 224.705L178.09 215.235C179.308 214.532 178.392 212.946 177.174 213.649Z"
    fill="white" />
  <path
    d="M165.966 211.378L174.976 226.984C175.684 228.21 177.269 227.295 176.561 226.068L167.551 210.463C166.84 209.231 165.255 210.147 165.966 211.378Z"
    fill="white" />
  <path d="M106.238 169.303C106.238 169.303 136.461 143.679 152.946 105.242" stroke="white" stroke-width="3" />
</svg>