<svg width="27" height="26" viewBox="0 0 27 26" fill="none" xmlns="http://www.w3.org/2000/svg">
  <circle cx="13.6483" cy="12.9412" r="12.9412" fill="black" />
  <path
    d="M17.9894 7.54113C17.9894 7.54113 19.2464 7.05098 19.1416 8.24134C19.1067 8.7315 18.7925 10.447 18.5481 12.3026L17.7101 17.7993C17.7101 17.7993 17.6402 18.6045 17.0117 18.7446C16.3832 18.8846 15.4405 18.2544 15.2658 18.1144C15.1262 18.0094 12.6471 16.4339 11.7741 15.6636C11.5297 15.4536 11.2504 15.0334 11.8091 14.5433L15.4754 11.0422C15.8944 10.6221 16.3134 9.64178 14.5675 10.8322L9.67912 14.1582C9.67912 14.1582 9.12045 14.5083 8.07295 14.1932L5.80333 13.493C5.80333 13.493 4.96531 12.9678 6.39692 12.4426C9.88864 10.7971 14.1834 9.1166 17.9894 7.54113Z"
    fill="white" />
</svg>