<svg width="19" height="16" viewBox="0 0 19 16" fill="none" xmlns="http://www.w3.org/2000/svg">
  <path
    d="M18.6232 2.41194C17.9248 2.72233 17.1877 2.91632 16.4117 3.03272C17.1877 2.56714 17.8084 1.82997 18.08 0.937604C17.3429 1.36439 16.5281 1.67477 15.6357 1.86876C14.9374 1.1316 13.9286 0.666016 12.8423 0.666016C10.7471 0.666016 9.04002 2.37314 9.04002 4.46825C9.04002 4.77864 9.07882 5.05023 9.15641 5.32182C6.01375 5.16663 3.18147 3.65349 1.28035 1.32559C0.969959 1.90756 0.775967 2.52834 0.775967 3.22671C0.775967 4.54585 1.43554 5.7098 2.48309 6.40817C1.86232 6.36937 1.28035 6.21418 0.737169 5.94259V5.98139C0.737169 7.84371 2.05631 9.39565 3.80224 9.74483C3.49185 9.82243 3.14267 9.86123 2.79348 9.86123C2.56069 9.86123 2.2891 9.82243 2.05631 9.78363C2.56069 11.2968 3.95743 12.4219 5.62576 12.4219C4.30662 13.4307 2.67709 14.0515 0.892362 14.0515C0.581975 14.0515 0.271588 14.0515 0 14.0127C1.70713 15.099 3.68584 15.7198 5.85855 15.7198C12.8811 15.7198 16.7221 9.90003 16.7221 4.85624C16.7221 4.70105 16.7221 4.50705 16.7221 4.35186C17.4593 3.84748 18.1188 3.18791 18.6232 2.41194Z"
    fill="black" />
</svg>